<svg height="512" viewBox="0 0 64 64" width="512" xmlns="http://www.w3.org/2000/svg"><path d="M54 62H10a2 2 0 01-2-2V4a2 2 0 012-2h44a2 2 0 012 2v56a2 2 0 01-2 2z" fill="#758190"/><path d="M8 4v28.681C20.36 31.403 30 20.958 30 8.26A24.61 24.61 0 0029.192 2H10a2 2 0 00-2 2z" fill="#8892a0"/><path d="M48 10h4v48H12V10h4" fill="#c7e2fc"/><path d="M29.931 10H12v21.922C21.839 29.202 29.194 20.516 29.931 10z" fill="#ebf7fe"/><path d="M20 6h24v8H20z" fill="#f2c351"/><path d="M20 14h9.318c.441-1.842.682-3.763.682-5.74 0-.762-.04-1.515-.108-2.26H20z" fill="#f7d881"/><path d="M44 7h2a2 2 0 012 2v4h-4" fill="#243242"/><path d="M20 7h-2a2 2 0 00-2 2v4h4" fill="#4d5d7a"/><path d="M14.999 17h27.999v2H14.999zm30 0h3.999v2h-3.999zm-30 4h27.999v2H14.999zm30 0h3.999v2h-3.999zm-24 4H49v2H20.999z" fill="#8892a0"/><path d="M14.999 25h3.999v2h-3.999z" fill="#ebf7fe"/><path d="M20.999 29H49v2H20.999zm-6 0h3.999v2h-3.999zm18 22h15.999v2H32.999zm0-4h15.999v2H32.999zm0-4h15.999v2H32.999z" fill="#8892a0"/><path d="M22.999 8h1.999v4h-1.999zm4 0h1.999v4h-1.999zm4 0h1.999v4h-1.999zm4 0h1.999v4h-1.999zm4 0h1.999v4h-1.999z" fill="#ebf7fe"/><path d="M19.999 55.999c-2.758 0-5-2.243-5-5s2.242-5 5-5c2.757 0 4.999 2.243 4.999 5s-2.242 5-4.999 5zm0-7.999c-1.654 0-3 1.346-3 3s1.346 3 3 3a3.003 3.003 0 002.999-3c0-1.655-1.346-3-2.999-3z" fill="#243242"/><path d="M19.999 53c-.257 0-.513-.099-.708-.293l-2-2 1.415-1.415 1.338 1.339 7.296-6.384 1.317 1.505-8 7a1 1 0 01-.658.248z" fill="#669e4f"/><path d="M19.999 44.999c-2.758 0-5-2.243-5-5s2.242-5 5-5c2.757 0 4.999 2.243 4.999 5s-2.242 5-4.999 5zm0-7.999c-1.654 0-3 1.346-3 3s1.346 3 3 3a3.003 3.003 0 002.999-3c0-1.655-1.346-3-2.999-3z" fill="#243242"/><path d="M19.999 42c-.257 0-.513-.099-.708-.293l-2-2 1.415-1.415 1.338 1.339 7.296-6.384 1.317 1.505-8 7a1 1 0 01-.658.248z" fill="#669e4f"/><path d="M32.999 39h3.999v2h-3.999zM39 39h3.999v2H39zm6 0h3.999v2H45z" fill="#8892a0"/><path d="M28.392 17H14.999v2H27.53c.317-.651.603-1.319.862-2zm-7.393 8v2h.305a24.605 24.605 0 002.097-2zm5.441-4H14.999v2h10.084c.484-.644.937-1.311 1.357-2zm-11.441 8v1.886A24.446 24.446 0 0018.582 29z" fill="#a8b0bc"/></svg>