<svg height="512" width="512" xmlns="http://www.w3.org/2000/svg"><path d="M171.708 359.026h168.584v33.301H171.708z" fill="#ecf4ff"/><path d="M317.398 359.026h22.894v33.301h-22.894z" fill="#cbe2ff"/><path d="M350.698 402.628v99.07c0 5.689-4.612 10.302-10.302 10.302H171.603c-5.689 0-10.302-4.612-10.302-10.302v-99.07c0-5.689 4.612-10.302 10.302-10.302h168.793c5.69 0 10.302 4.613 10.302 10.302z" fill="#9dc6fb"/><path d="M350.698 402.628v99.07c0 5.689-4.612 10.302-10.302 10.302h-12.592V392.326h12.592c5.69 0 10.302 4.613 10.302 10.302z" fill="#80b4fb"/><path d="M348.411 104.084c-13.025-.463-23.729 9.958-23.729 22.879V54.667c0-12.414-9.653-22.987-22.059-23.428-13.025-.463-23.729 9.958-23.729 22.879V23.447c0-12.414-9.653-22.987-22.059-23.428-13.025-.463-23.729 9.958-23.729 22.879v31.219c0-12.921-10.704-23.342-23.729-22.879-12.406.441-22.059 11.014-22.059 23.428v41.077c0-12.921-10.704-23.342-23.729-22.879-12.406.441-22.059 11.014-22.059 23.428v147.289a83.251 83.251 0 0014.744 47.303l13.61 19.711a10.302 10.302 0 011.824 5.853v42.577h168.584v-42.577a10.3 10.3 0 011.824-5.853l13.61-19.711a83.249 83.249 0 0014.744-47.303v-116.07c.001-12.413-9.653-22.986-22.059-23.427z" fill="#f1d0a5"/><path d="M370.473 127.509v116.069a83.254 83.254 0 01-14.742 47.306l-13.617 19.712a10.3 10.3 0 00-1.826 5.855v42.579H171.711v-42.579a10.3 10.3 0 00-1.826-5.855l-13.617-19.712a83.25 83.25 0 01-14.742-47.306V96.295c0-12.414 9.653-22.994 22.066-23.426 2.905-.103 5.697.33 8.272 1.236 8.993 3.07 15.453 11.6 15.453 21.634V54.671c0-12.374 9.588-22.934 21.952-23.428a22.76 22.76 0 018.387 1.232c8.993 3.08 15.453 11.61 15.453 21.644V22.895c0-12.918 10.703-23.344 23.725-22.88 2.308.082 4.522.515 6.603 1.246 9.066 3.204 15.453 12.084 15.453 22.19V54.12c0-12.918 10.704-23.344 23.735-22.88 12.403.443 22.056 11.012 22.056 23.426v72.297c0-12.918 10.703-23.344 23.725-22.88 12.414.443 22.067 11.012 22.067 23.426z" fill="#f1d0a5"/><path d="M334.063 249.265c-45.509 55.54-107.388 86.12-162.355 85.946v23.815h168.584v-42.577a10.3 10.3 0 011.824-5.853l13.61-19.711a83.249 83.249 0 0014.744-47.303v-53.075c-8.992 20.237-21.139 40.125-36.407 58.758z" fill="#f1b986"/><circle cx="300.748" cy="447.48" fill="#f6e266" r="16.65"/><path d="M248.273 306.395a7.726 7.726 0 007.726-7.726V263.71a33.833 33.833 0 0115.095-28.206l50.146-33.431a7.728 7.728 0 003.441-6.429V54.666c0-10.1-6.39-18.978-15.453-22.176v159.02l-46.706 31.138a49.254 49.254 0 00-21.977 41.063v34.958a7.728 7.728 0 007.728 7.726z" fill="#f1b986"/><path d="M278.89 23.451v145.141a7.722 7.722 0 01-7.726 7.726 7.729 7.729 0 01-7.726-7.726V1.261c9.065 3.204 15.452 12.084 15.452 22.19zM233.11 54.12v114.473a7.729 7.729 0 01-7.726 7.726 7.722 7.722 0 01-7.726-7.726V32.476c8.992 3.08 15.452 11.61 15.452 21.644zm-45.792 41.618v72.854c0 4.265-3.461 7.726-7.726 7.726s-7.726-3.461-7.726-7.726V74.105c8.993 3.07 15.452 11.6 15.452 21.633z" fill="#f1b986"/></svg>