<svg height="512" width="512" xmlns="http://www.w3.org/2000/svg"><path d="M408 488H104a48 48 0 01-48-48V40a16 16 0 0116-16h272a16 16 0 0116 16v400a48 48 0 0048 48z" fill="#e0edff"/><path d="M360 224h80a16 16 0 0116 16v200a48 48 0 01-48 48 48 48 0 01-48-48V224z" fill="#c8dbf7"/><circle cx="88" cy="56" fill="#bdd1f2" r="8"/><circle cx="112" cy="56" fill="#bdd1f2" r="8"/><circle cx="136" cy="56" fill="#bdd1f2" r="8"/><path d="M96 128h40v40H96z" fill="#548aff"/><path d="M136 176H96a8 8 0 01-8-8v-40a8 8 0 018-8h40a8 8 0 018 8v40a8 8 0 01-8 8zm-32-16h24v-24h-24z" fill="#7dafff"/><path d="M160 160h24v16h-24zm40 0h120v16H200zM96 208h40v40H96z" fill="#548aff"/><path d="M136 256H96a8 8 0 01-8-8v-40a8 8 0 018-8h40a8 8 0 018 8v40a8 8 0 01-8 8zm-32-16h24v-24h-24z" fill="#7dafff"/><path d="M160 240h24v16h-24zm136 0h24v16h-24zm-96 0h80v16h-80zM96 288h40v40H96z" fill="#548aff"/><path d="M136 336H96a8 8 0 01-8-8v-40a8 8 0 018-8h40a8 8 0 018 8v40a8 8 0 01-8 8zm-32-16h24v-24h-24z" fill="#7dafff"/><path d="M160 320h24v16h-24zm96 0h64v16h-64zm-56 0h40v16h-40zM96 368h40v40H96z" fill="#548aff"/><path d="M136 416H96a8 8 0 01-8-8v-40a8 8 0 018-8h40a8 8 0 018 8v40a8 8 0 01-8 8zm-32-16h24v-24h-24z" fill="#7dafff"/><path d="M160 400h24v16h-24zm128 0h32v16h-32zm-88 0h72v16h-72z" fill="#548aff"/></svg>