<svg height="512pt" viewBox="0 0 512 512" width="512pt" xmlns="http://www.w3.org/2000/svg"><path d="M504.5 256c0 137.242-111.258 248.5-248.5 248.5S7.5 393.242 7.5 256 118.758 7.5 256 7.5 504.5 118.758 504.5 256zm0 0" fill="#c3ddff"/><path d="M7.5 256c0 113.613 76.277 209.352 180.395 238.973 63.101-22.684 74.667-73.246 64.097-106.207-8.515-26.551-40.582-41.582-80.828-28.555-49.34 15.969-84.445 7.574-103.543-11.524-13.855-13.855-14.777-35.312-4.922-53.035 7.59-13.652 21.387-22.695 36.64-26.054 35.345-7.782 138.798-33.805 139.626-71.88.68-31.148-22.543-50.234-79.156-75.894-37.625-17.054-48.024-52.594-33.93-77.535C54.859 88.031 7.5 166.473 7.5 256zm0 0" fill="#ccf49f"/><path d="M296.082 464.418c-137.242 0-248.5-111.258-248.5-248.5 0-58.406 20.203-112.066 53.93-154.488C44.254 106.957 7.5 177.164 7.5 256c0 137.242 111.258 248.5 248.5 248.5 78.836 0 149.047-36.754 194.57-94.012-42.422 33.73-96.082 53.93-154.488 53.93zm0 0" fill="#a4ccff"/><path d="M97.574 365.398c-12.383-3.367-22.43-9.187-29.953-16.71-13.234-13.235-14.55-33.368-6.066-50.594a247.992 247.992 0 01-13.973-82.172c0-58.41 20.203-112.067 53.93-154.488C44.254 106.957 7.5 177.164 7.5 256c0 113.613 76.277 209.352 180.395 238.973 24.816-8.922 41.566-22.18 52.23-36.957-57.828-13.317-107.957-46.754-142.55-92.618zm0 0" fill="#b3e59f"/><path d="M256 7.5c-22.668 0-44.602 3.094-65.469 8.777-30.336 52.399 12.696 81.157 56.45 84.328 55.613 4.036 93.113-40.425 121.914-2.855 22.18 28.934-55.73 59.863-34.641 102.137l-21.48 116.328c-3.004 12.633-2.508 24.902 4.351 36.144 23.047 37.782 93.855-11.332 78.488 47.004-7.797 29.602-9.355 51.133-7.191 66.871C458.148 422.227 504.5 344.547 504.5 256 504.5 118.758 393.242 7.5 256 7.5zm0 0" fill="#ccf49f"/><path d="M400.29 320.129H111.71c-17.71 0-32.065-14.356-32.065-32.067v-64.128c0-17.707 14.355-32.063 32.066-32.063h288.578c17.711 0 32.066 14.356 32.066 32.063v64.129c0 17.71-14.355 32.066-32.066 32.066zm0 0" fill="#fff"/><path d="M387.672 446.93c-.3 7.238-.027 13.664.75 19.308 23.625-14.914 44.476-33.761 61.84-55.515a248.788 248.788 0 01-62.59 36.207zm0 0" fill="#b3e59f"/><path d="M135.758 296.082c-17.707 0-32.067-14.355-32.067-32.066v-71.012c-13.804 3.574-24.046 16.008-24.046 30.93v64.129c0 17.71 14.355 32.066 32.066 32.066h288.578c14.926 0 27.356-10.242 30.934-24.047zm0 0" fill="#edf4ff"/><path d="M194.758 225.027a7.5 7.5 0 00-9.809 4.04l-13.12 31.48-13.114-31.48a7.505 7.505 0 00-6.926-4.614 7.5 7.5 0 00-6.922 4.613l-13.117 31.48-13.117-31.48a7.502 7.502 0 00-13.848 5.77l20.04 48.098c1.167 2.796 3.898 4.617 6.925 4.617s5.758-1.82 6.922-4.617l13.117-31.48 13.117 31.48c1.164 2.793 3.895 4.617 6.922 4.617s5.762-1.824 6.926-4.617l20.039-48.098a7.502 7.502 0 00-4.035-9.809zm104.207 0a7.5 7.5 0 00-9.809 4.04l-13.117 31.48-13.117-31.48a7.5 7.5 0 00-6.922-4.614 7.509 7.509 0 00-6.926 4.613l-13.117 31.48-13.117-31.48a7.5 7.5 0 10-13.848 5.77l20.043 48.098a7.503 7.503 0 006.922 4.617 7.508 7.508 0 006.926-4.617L256 251.454l13.117 31.48a7.5 7.5 0 0013.848 0l20.039-48.098a7.5 7.5 0 00-4.04-9.809zm88.207 57.907l20.043-48.098c1.594-3.824-.215-8.215-4.04-9.809s-8.214.215-9.808 4.04l-13.117 31.48-13.117-31.48a7.497 7.497 0 00-6.922-4.618 7.504 7.504 0 00-6.926 4.617l-13.117 31.48-13.117-31.48a7.5 7.5 0 10-13.848 5.77l20.043 48.098a7.5 7.5 0 006.922 4.613 7.505 7.505 0 006.926-4.613l13.117-31.48 13.117 31.48a7.5 7.5 0 0013.844 0zm0 0"/><path d="M437.02 74.98C388.668 26.63 324.379 0 256 0S123.332 26.629 74.98 74.98C26.63 123.332 0 187.621 0 256s26.629 132.668 74.98 181.02C123.332 485.37 187.621 512 256 512s132.668-26.629 181.02-74.98C485.37 388.668 512 324.379 512 256s-26.629-132.668-74.98-181.02zm-258.813-2.628c10.512 20.125 36.66 34.043 68.234 36.316 24.102 1.738 44.454-4.848 62.407-10.656 27.191-8.801 40.847-12.266 54.109 4.918 4.93 6.394 3.64 11.21-14.023 28.875-12.989 12.988-30.196 30.207-24.832 52.566h-77.727c-2.297-30.379-31.754-48.465-83.688-70.066-28.527-11.868-34.042-30.875-35.09-38.496-1.66-12.067 3.192-23.555 13.305-31.524.149-.113.282-.238.418-.363a237.47 237.47 0 0135.72-15.73c-7.353 19.804-3.825 34.601 1.167 44.16zm32.855 420.472c20.54-10.652 35.618-25.39 44.176-43.383 9.145-19.222 10.567-42.171 3.895-62.964-4.29-13.372-13.863-24.434-26.969-31.149-17.535-8.992-40.02-9.793-63.309-2.254-41.406 13.403-76.37 9.867-95.93-9.691-7.39-7.39-10.683-17.547-9.269-28.602.996-7.8 4.192-15.191 8.895-21.105 2.734 19.168 19.25 33.953 39.16 33.953h192.187c-1.28 11.594 1.032 22.043 6.93 31.148 12.633 19.496 35.723 18.895 54.281 18.418 9.844-.254 21-.543 23.883 3.157 1.89 2.421 1.668 8.468-.601 16.582-7.332 26.21-9.864 48.156-7.547 65.304C343.578 484.891 300.723 497 256 497c-15.246 0-30.27-1.422-44.938-4.176zm215.352-66.41a243.774 243.774 0 01-31.332 26.469c-.574-14 2.016-31.395 7.754-51.906 3.828-13.688 3.191-23.168-2.012-29.844-7.535-9.668-21.41-9.313-36.101-8.934-16.348.426-33.246.86-41.305-11.578-4.332-6.687-5.762-14.094-4.406-22.992h41.195a7.5 7.5 0 100-15H111.711c-13.547 0-24.566-11.02-24.566-24.563v-64.128c0-13.547 11.02-24.567 24.566-24.567h8.02a7.5 7.5 0 100-15h-8.02c-21.816 0-39.566 17.75-39.566 39.567v49.777c-12.497 8.633-21.34 23.316-23.368 39.164-2.015 15.762 2.793 30.363 13.54 41.11 23.687 23.687 64.199 28.554 111.156 13.355 19.468-6.301 37.882-5.828 51.847 1.332 9.668 4.957 16.422 12.695 19.532 22.383 5.515 17.195 4.363 36.129-3.157 51.937-9.433 19.832-27.945 34.598-54.988 43.938-37.8-11.29-72.441-31.84-101.121-60.524C40.066 380.895 15 320.375 15 256S40.066 131.105 85.586 85.586a244.422 244.422 0 0127.574-23.75c-1.015 5.16-1.176 10.539-.426 16.012 2.957 21.52 19.067 39.855 44.192 50.304 51.761 21.532 72.015 36.485 74.367 56.22h-79.5a7.5 7.5 0 100 15h248.496c13.547 0 24.566 11.019 24.566 24.562v64.129c0 13.546-11.02 24.566-24.566 24.566h-8.02a7.5 7.5 0 100 15h8.02c21.816 0 39.566-17.75 39.566-39.566v-64.13c0-21.816-17.75-39.562-39.566-39.562h-60.48c-5.793-14.812 4.156-26.39 19.73-41.96 13.285-13.286 29.82-29.817 15.293-48.645-20.3-26.305-44.734-18.399-70.602-10.028-16.652 5.39-35.52 11.492-56.71 9.969-26.43-1.906-47.895-12.75-56.016-28.3-6.223-11.91-4.602-26.368 4.762-42.981C215.555 17.53 235.582 15 256 15c64.375 0 124.895 25.066 170.414 70.586C471.934 131.106 497 191.625 497 256s-25.066 124.895-70.586 170.414zm0 0"/></svg>