<svg xmlns="http://www.w3.org/2000/svg" viewBox="0 0 512 512"><path fill="#0071bc" d="M251.746 51.2h256v418.133h-256z"/><path d="M448.013 435.2H251.746v-384h221.867v358.4c0 14.14-11.461 25.6-25.6 25.6z" fill="#e6e6e6"/><path d="M473.613 409.6c0-14.14-11.46-25.6-25.6-25.6h-25.6V8.533h25.6c14.14 0 25.6 11.46 25.6 25.6V409.6z" fill="#29abe2"/><path d="M251.746 460.8c0 23.561-19.106 42.667-42.667 42.667s-42.667-19.106-42.667-42.667v-.606c-32.683 4.693-62.967-17.997-67.661-50.679a59.583 59.583 0 01-.606-8.448c-32.99-.009-59.725-26.761-59.716-59.75a59.69 59.69 0 0113.474-37.777c-30.967-11.383-46.839-45.705-35.465-76.672a59.716 59.716 0 0127.221-31.701c-13.534-30.089-.111-65.451 29.978-78.976a59.765 59.765 0 0124.508-5.257c2.825 0 5.649.196 8.448.589l.085-.589c0-32.99 26.743-59.733 59.733-59.733 0-23.561 19.106-42.667 42.667-42.667s42.667 19.106 42.667 42.667" fill="#f2c09a"/><path d="M209.079 0c-25.148.034-46.549 18.321-50.5 43.153-31.206 3.652-55.902 28.117-59.844 59.29-.196 0-.393-.043-.589-.043-37.7-.009-68.275 30.549-68.284 68.25a68.269 68.269 0 003.345 21.12C2.41 213.436-4.988 255.957 16.678 286.754a68.189 68.189 0 0022.502 20.284c-19.004 32.444-8.107 74.155 24.337 93.167a68.041 68.041 0 0026.607 8.883c4.096 34.33 33.186 60.194 67.755 60.245.256 0 .512-.051.759-.051 4.847 27.861 31.369 46.507 59.221 41.66 24.405-4.25 42.274-25.37 42.419-50.142V51.2C260.254 22.938 237.35.026 209.079 0zm0 494.933c-18.85 0-34.133-15.283-34.133-34.133a34.136 34.136 0 0113.653-27.307l-10.24-13.653a50.699 50.699 0 00-19.678 32.367c-.265 0-.529.06-.794.06-25.216-.026-46.66-18.415-50.534-43.332a67.322 67.322 0 0010.308-2.167l-4.881-16.358c-27.102 8.064-55.603-7.373-63.667-34.483-8.064-27.11 7.373-55.612 34.483-63.667a51.18 51.18 0 0136.506 2.799l7.322-15.411c-26.138-12.407-57.259-6.972-77.653 13.551-25.301-12.518-35.669-43.179-23.151-68.48a51.123 51.123 0 0145.935-28.45V179.2a67.824 67.824 0 00-23.893 4.395c-7.245-27.23 8.951-55.168 36.181-62.413a51.15 51.15 0 0113.312-1.715h.546a67.816 67.816 0 0031.881 49.596l8.969-14.507c-24.064-14.848-31.539-46.396-16.683-70.46a51.219 51.219 0 0135.874-23.731 51.286 51.286 0 0016.213 28.971l11.392-12.715c-14.054-12.561-15.275-34.133-2.714-48.196 12.561-14.054 34.133-15.275 48.196-2.714A34.147 34.147 0 01243.221 51.2v161.365c-27.878-4.745-46.635-31.181-41.89-59.059a51.217 51.217 0 0124.047-35.268l-8.806-14.609c-29.269 17.579-41.028 54.093-27.52 85.453-23.211 5.376-39.654 26.027-39.697 49.852h17.067c.043-18.082 14.208-32.981 32.265-33.946a68.218 68.218 0 0044.535 24.823v94.455h-17.067a51.071 51.071 0 00-8.533.768v-.768c-.026-23.552-19.115-42.641-42.667-42.667v17.067c14.14 0 25.6 11.46 25.6 25.6v6.929a51.194 51.194 0 00-25.6 44.271h17.067c0-18.85 15.283-34.133 34.133-34.133h17.067V460.8c-.01 18.85-15.293 34.133-34.143 34.133z" fill="#e9937c"/><path d="M302.946 85.333h17.067V102.4h-17.067zm34.133 0h51.2V102.4h-51.2zm-51.2 34.134h102.4v17.067h-102.4zm0 34.133h102.4v17.067h-102.4zm0 34.133h68.267V204.8h-68.267zm17.067 93.867h17.067v17.067h-17.067zm34.133 0h51.2v17.067h-51.2zm-51.2 34.133h102.4V332.8h-102.4zm0 34.134h102.4v17.067h-102.4zm0 34.133h68.267v17.067h-68.267zm42.667 110.933h128V512h-128zm145.058 0h17.067V512h-17.067z" fill="#b3b3b3"/></svg>