<svg height="512" width="512" xmlns="http://www.w3.org/2000/svg"><path d="M256 0c-75.3.3-135 61.199-135 135 0 41.1 18.9 79.799 50.4 105 5.7 4.799 11.7 9 18.3 12.599 3.9 2.1 6.301 6.899 6.301 12.299V270l15 30h90l15-30v-5.101c0-5.4 2.401-10.199 6.599-12.299 6.3-3.6 12.6-7.801 18-12.6 32.1-25.501 50.7-64.2 50.4-105.901C390.399 58.5 328.001 0 256 0z" fill="#f6d401"/><path d="M316 270v-5.101c0-5.4 2.401-10.199 6.599-12.299C328.9 249 335.2 244.799 340.6 240c32.1-25.501 50.7-64.2 50.4-105.901C390.399 58.5 328.001 0 256 0v300h45z" fill="#fd9d34"/><path d="M286 120v36.973l-30 19.995-30-19.995V120h-30v53.027l45 30.004V285h30v-81.969l45-30.004V120z" fill="#fd9d34"/><path d="M271 203.031l45-30.004V120h-30v36.973l-30 19.995V285h15z" fill="#ec5b20"/><path d="M68.646 260.493l-15-25.986 51.958-30 15 25.986z" fill="#f6d401"/><path d="M406.396 65.493l-15-25.986 51.958-30 15 25.986z" fill="#fd9d34"/><path d="M105.604 65.493l-51.958-30 15-25.986 51.958 30z" fill="#f6d401"/><path d="M443.354 260.493l-51.958-30 15-25.986 51.958 30z" fill="#fd9d34"/><path d="M31 120h60v30H31z" fill="#f6d401"/><path d="M421 120h60v30h-60z" fill="#fd9d34"/><path d="M256 270h-60v92h120v-92z" fill="#e1ebf0"/><path d="M256 270h60v92h-60z" fill="#cde1e6"/><path d="M482 392v75H331l-18.6 30H195.099L181 467H30v-75h196c11.7 0 21.899 4.499 30 11.7 8.101-7.202 18.3-11.7 30-11.7z" fill="#fff7cc"/><path d="M482 392v75H331l-18.6 30H256v-93.3c8.101-7.202 18.3-11.7 30-11.7z" fill="#ffe6b3"/><path d="M512 452v30H331v30H181v-30H0v-30h211v30h90v-30z" fill="#e86a36"/><path d="M512 452v30H331v30h-75v-30h45v-30z" fill="#ba5529"/></svg>