<svg height="512" viewBox="0 0 64 64" width="512" xmlns="http://www.w3.org/2000/svg"><path d="M56 10h4v15h-4zm-8 6h4v9h-4zm-8 3h4v6h-4z" fill="#669e54"/><path d="M44.293 28.293l-13 13 1.414 1.414L45.414 30H63v-2H45a.996.996 0 00-.707.293zM37 24h26v2H37zm9.414-17H52c.266 0 .52-.105.707-.293L55 4.414V7h2V2a1 1 0 00-1-1h-5v2h2.586l-2 2H46a.996.996 0 00-.707.293l-6 6 1.414 1.414z" fill="#88929f"/><path d="M33 41h-6l-5 6-5-6h-6a9 9 0 00-9 9v12h40V50a9 9 0 00-9-9z" fill="#c7e2fb"/><path d="M11.5 60c12.182 0 22.637-7.009 27.138-17.01A8.955 8.955 0 0033 41h-6l-5 6-5-6h-6a9 9 0 00-9 9v8.508A30.897 30.897 0 0011.5 60z" fill="#ebf7fe"/><path d="M22 47l-5-6h-4l3 9z" fill="#4472b0"/><path d="M22 47l-2.8 1.4L21 52h2l1.8-3.6z" fill="#2d4d81"/><path d="M22 47l5-6h4l-3 9zm3 15l-2-10h-2l-2 10z" fill="#4472b0"/><path d="M35 55h2v7h-2zM7 55h2v7H7z" fill="#95aabc"/><path d="M31 24v6a9 9 0 01-9 9 9 9 0 01-9-9v-6h6a5.999 5.999 0 004.8-2.4L25 20l1.2 1.6A5.999 5.999 0 0031 24z" fill="#efbe9c"/><path d="M13 30v-5h-1a3 3 0 100 6h1.059A8.935 8.935 0 0113 30z" fill="#efbe9c"/><path d="M22 10c-6.627 0-12 5.373-12 12v3.779A2.978 2.978 0 0112 25h1v-1h6a5.999 5.999 0 004.8-2.4L25 20l1.2 1.6A5.999 5.999 0 0031 24v1h1c.772 0 1.468.3 2 .779V22c0-6.627-5.373-12-12-12z" fill="#976949"/><path d="M32 25h-1v5c0 .338-.022.671-.059 1H32a3 3 0 100-6zM22 39c-1.851 0-3.57-.56-5-1.518V41l5 6 5-6v-3.518A8.952 8.952 0 0122 39z" fill="#efbe9c"/></svg>