<svg xmlns="http://www.w3.org/2000/svg" viewBox="0 0 512 512"><path d="M106.216 109.791c0-14.009-11.362-25.371-25.371-25.371s-25.371 11.362-25.371 25.371l.033 31.374.109 129.738h50.601l-.001-161.112z" fill="#ff9269"/><path fill="#ffb082" d="M234.213 386.211V503.83l-32.681-.044-32.681-176.749z"/><path d="M201.532 359.718v144.068l-69.719-.098v-30.785c0-5.795-2.32-14.663-5.164-19.707L25.916 290.598c-2.832-5.044-5.164-13.911-5.164-19.696l-.142-161.117c0-14.009 11.362-25.371 25.371-25.371s25.371 11.362 25.371 25.371v144.406l130.18 105.527z" fill="#ffcd9c"/><path d="M211.881 332.299l-29.391-29.042 19.042 159.537a77.061 77.061 0 0032.681 7.255v-83.837c0-17.376-10.044-41.636-22.332-53.913z" fill="#ff9269"/><path d="M201.532 353.531v109.263c-26.188-12.179-44.686-38.476-44.686-68.946v-43.662l-78.064-78.064c-9.902-9.902-9.902-25.97 0-35.873 9.913-9.913 25.97-9.913 35.884 0l67.824 67.007c10.741 12.997 19.042 34.479 19.042 50.275z" fill="#ffb082"/><path d="M405.784 109.791c0-14.009 11.362-25.371 25.371-25.371 14.009 0 25.371 11.362 25.371 25.371l-.033 31.374-.109 129.738h-50.601V109.791z" fill="#ff9269"/><path d="M440.644 254.191v-144.4c0-14.009 11.362-25.371 25.371-25.371 14.009 0 25.371 11.362 25.371 25.371l-.142 161.111c0 5.784-2.331 14.652-5.164 19.696L385.35 453.195c-2.843 5.044-5.164 13.911-5.164 19.707v30.785l-102.4.144V386.207l162.858-132.016z" fill="#ffcd9c"/><path d="M300.118 332.295l97.221-96.047c9.908-9.908 25.97-9.908 35.878 0s9.908 25.97 0 35.878l-78.059 78.059v43.667c0 42.082-35.288 76.196-77.37 76.196v-83.843c-.001-17.368 10.048-41.628 22.33-53.91z" fill="#ffb082"/><path fill="#2f5e88" d="M307.745 29.957h54.468v152.511h-54.468z"/><path fill="#367596" d="M149.787 29.957h179.745v152.511H149.787z"/><path fill="#88acb5" d="M340.426 160.681l-21.788 21.787 21.788 21.787h32.68v-43.574z"/><path fill="#a7cbcf" d="M138.894 160.681h201.532v43.574H138.894z"/><path fill="#88acb5" d="M340.426 8.17l-21.788 21.787 21.788 21.788h32.68V8.17z"/><path fill="#a7cbcf" d="M138.894 8.17h201.532v43.574H138.894z"/><path fill="#88acb5" d="M340.426 84.426l-21.788 21.787L340.426 128h32.68V84.426z"/><path fill="#a7cbcf" d="M138.894 84.426h201.532V128H138.894z"/><path d="M120.438 230.471c-6.335-6.335-14.758-9.824-23.716-9.824-6.154 0-12.055 1.646-17.2 4.731V109.796c0-5.9-1.537-11.446-4.222-16.267a17.208 17.208 0 015.545-.932c9.484 0 17.199 7.716 17.199 17.2v84.951a8.17 8.17 0 0016.34 0v-84.951c0-18.494-15.045-33.54-33.539-33.54a33.387 33.387 0 00-17.436 4.891 33.349 33.349 0 00-17.424-4.891c-18.494 0-33.54 15.046-33.54 33.547l.142 161.102c.007 7.218 2.679 17.407 6.216 23.7.057.101.115.2.178.298l100.63 162.43c2.122 3.865 4.036 11.226 4.036 15.564v30.789a8.17 8.17 0 0016.34 0v-30.789c0-7.22-2.669-17.412-6.207-23.707a8.035 8.035 0 00-.176-.298L32.97 286.462c-2.122-3.868-4.039-11.231-4.044-15.571l-.142-161.095c0-9.484 7.715-17.2 17.199-17.2s17.199 7.716 17.199 17.2v144.392c0 .204.016.403.03.602.149 8.387 3.408 16.728 9.793 23.114l78.059 78.059a8.17 8.17 0 0011.554 0 8.17 8.17 0 000-11.554l-78.058-78.06a17.09 17.09 0 01-5.038-12.163 17.09 17.09 0 015.038-12.162c3.248-3.248 7.568-5.038 12.162-5.038s8.913 1.79 12.196 5.073l97.186 96.012c10.808 10.808 19.938 32.851 19.938 48.136V503.83a8.17 8.17 0 0016.34 0V386.207c0-19.606-10.86-45.825-24.759-59.724l-97.185-96.012zM466.017 76.255a33.342 33.342 0 00-17.423 4.891 33.395 33.395 0 00-17.436-4.891c-18.494 0-33.54 15.046-33.54 33.54v84.951a8.17 8.17 0 0016.34 0v-84.951c0-9.484 7.716-17.2 17.199-17.2 1.912 0 3.777.331 5.544.932a33.326 33.326 0 00-4.222 16.267v115.582c-5.145-3.084-11.046-4.731-17.2-4.731-8.959 0-17.382 3.489-23.681 9.789l-97.256 96.082c-13.864 13.864-24.724 40.083-24.724 59.689V503.83a8.17 8.17 0 0016.34 0V386.207c0-15.284 9.13-37.327 19.903-48.1l97.256-96.082c3.248-3.248 7.568-5.038 12.162-5.038s8.913 1.79 12.162 5.038a17.09 17.09 0 015.038 12.162c0 4.595-1.79 8.914-5.038 12.163l-78.059 78.059a8.17 8.17 0 000 11.554 8.17 8.17 0 0011.554 0l78.059-78.059c6.386-6.386 9.644-14.727 9.793-23.114.014-.199.031-.4.031-.602V109.796c0-9.484 7.716-17.2 17.199-17.2 9.484 0 17.2 7.716 17.2 17.192l-.142 161.104c-.003 4.34-1.922 11.703-4.045 15.571l-100.63 162.429c-.061.098-.12.198-.176.298-3.539 6.294-6.207 16.485-6.207 23.707v30.789a8.17 8.17 0 0016.34 0v-30.789c0-4.339 1.914-11.699 4.035-15.564l100.63-162.43c.061-.098.12-.198.178-.298 3.538-6.294 6.21-16.483 6.216-23.7l.142-161.11c-.003-18.493-15.048-33.54-33.542-33.54z"/><path d="M138.894 212.426h234.213a8.17 8.17 0 008.17-8.17v-43.574a8.17 8.17 0 00-8.17-8.17h-2.723v-16.34h2.723a8.17 8.17 0 008.17-8.17V84.426a8.17 8.17 0 00-8.17-8.17h-2.723v-16.34h2.723a8.17 8.17 0 008.17-8.17V8.17a8.17 8.17 0 00-8.17-8.17H138.894a8.17 8.17 0 00-8.17 8.17v43.574a8.17 8.17 0 008.17 8.17h2.723v16.34h-2.723a8.17 8.17 0 00-8.17 8.17V128a8.17 8.17 0 008.17 8.17h2.723v16.34h-2.723a8.17 8.17 0 00-8.17 8.17v43.574a8.17 8.17 0 008.17 8.172zm226.042-16.341H147.064v-27.234h217.872v27.234zM147.064 16.34h217.872v27.234H147.064V16.34zm10.893 43.575h196.085v16.34H157.957v-16.34zm0 76.255h138.894a8.17 8.17 0 000-16.34H147.064V92.596h217.872v27.234h-35.404a8.17 8.17 0 000 16.34h24.511v16.34H157.957v-16.34z"/></svg>