<svg xmlns="http://www.w3.org/2000/svg" viewBox="0 0 512 512"><path d="M377.053 294.633c0 102.055-82.73 184.775-184.775 184.775-102.055 0-184.775-82.72-184.775-184.775 0-102.046 82.72-184.775 184.775-184.775h.263c75.785.107 140.882 45.839 169.282 111.207 9.793 22.545 15.23 47.425 15.23 73.568z" fill="#ff5d49"/><path d="M361.822 221.065c-16.758 9.989-24.451 25.054-24.451 46.782v49.136c0 6.964-2.714 13.519-7.625 18.46-4.97 4.97-11.535 7.693-18.518 7.693-28.585 0-51.83-23.255-51.83-51.83v-48.124a6.046 6.046 0 00-6.04-6.04h-56.849c-17.944 0-32.543-14.599-32.543-32.543V192.14c0-10.932 5.427-20.629 13.733-26.533a30.636 30.636 0 01-1.05-7.995v-13.908c0-11.778 6.555-22.059 16.204-27.379a30.093 30.093 0 01-.311-4.309v-2.159c75.784.108 140.88 45.84 169.28 111.208z" fill="#ea2e1f"/><path fill="#ffbf00" d="M447.7 49.695h56.8v140.6h-56.8z"/><path fill="#f79800" d="M447.7 49.695h36.06v140.6H447.7z"/><path d="M178.551 204.597v-12.452c0-9.911 8.034-17.945 17.945-17.945h10.197c-8.629-.617-15.457-7.799-15.457-16.59v-13.909c0-9.196 7.455-16.651 16.65-16.651h14.273c-8.305 0-15.032-6.727-15.032-15.032v-11.987c0-8.302 6.73-15.032 15.032-15.032h13.828c-8.305 0-15.032-6.737-15.032-15.042v-8.952c0-8.295 6.727-15.032 15.032-15.032h201.96v145.353c-23.317 0-42.061 2.347-57.083 6.413-48.08 12.979-58.084 43.417-58.084 70.112v49.132c0 3.186-1.295 6.08-3.379 8.174a11.512 11.512 0 01-8.173 3.389c-20.575 0-37.246-16.671-37.246-37.236v-48.131c0-11.391-9.235-20.626-20.626-20.626h-56.85c-9.916 0-17.955-8.039-17.955-17.956z" fill="#ffc197"/><path d="M384.811 196.739c14.325-3.446 31.815-5.413 53.138-5.413V45.973h-53.138v150.766z" fill="#ff9e5c"/><path fill="#ffd96e" d="M397.65 32.849h72.12v174.29h-72.12z"/><path d="M130.105 387.526a7.491 7.491 0 0010.418 1.987c31.921-21.697 71.58-21.697 103.501 0a7.5 7.5 0 008.433-12.405c-18.051-12.27-38.862-18.756-60.183-18.756s-42.132 6.486-60.183 18.756a7.499 7.499 0 00-1.986 10.418zm6.203-113.745a7.5 7.5 0 007.5-7.5v-5.68a7.5 7.5 0 00-15 0v5.68a7.5 7.5 0 007.5 7.5zm118.899-7.5v-5.68a7.5 7.5 0 00-15 0v5.68a7.5 7.5 0 0015 0z"/><path d="M504.5 94.16a7.5 7.5 0 007.5-7.5V49.69a7.5 7.5 0 00-7.5-7.5h-27.23v-9.341a7.5 7.5 0 00-7.5-7.5h-72.12a7.5 7.5 0 00-7.5 7.5v5.621h-25.98a7.5 7.5 0 000 15h25.98v134.453c-49.672 9.663-74.86 36.522-74.86 79.928v49.13a4.018 4.018 0 01-1.194 2.877 4.056 4.056 0 01-2.876 1.193c-16.393 0-29.73-13.341-29.73-29.74v-48.14c0-15.505-12.619-28.12-28.13-28.12H196.5c-5.762 0-10.45-4.688-10.45-10.45v-12.45c0-5.768 4.688-10.46 10.45-10.46h10.117c.026 0 .051.004.077.004h15.223a7.5 7.5 0 000-15h-14.821c-4.695-.396-8.356-4.359-8.356-9.084V143.7c0-5.045 4.1-9.15 9.14-9.15h13.081c.033 0 .064.005.097.005h15.223a7.5 7.5 0 000-15h-14.024c-.033 0-.064-.005-.097-.005-4.158 0-7.54-3.378-7.54-7.53v-11.99c0-4.152 3.382-7.53 7.54-7.53h11.32c.075.002.147.011.223.011h15.224a7.5 7.5 0 000-15h-12.714c-.075-.002-.147-.011-.223-.011-4.152 0-7.53-3.382-7.53-7.54v-8.95c0-4.158 3.378-7.54 7.53-7.54h97.84a7.5 7.5 0 000-15h-97.84c-12.423 0-22.53 10.111-22.53 22.54v8.95c0 3.061.613 5.981 1.723 8.645-9.024 2.943-15.563 11.436-15.563 21.425v2.473c-2.455-.093-4.91-.143-7.35-.143C86.252 102.361 0 188.617 0 294.64c0 47.642 17.557 93.349 49.437 128.703 31.642 35.089 74.817 57.248 121.572 62.393a7.502 7.502 0 008.276-6.635 7.5 7.5 0 00-6.635-8.275C82.775 460.936 15 385.193 15 294.64c0-97.752 79.523-177.28 177.27-177.28 2.676 0 5.371.068 8.063.188.254.999.55 1.981.933 2.923-10.105 2.884-17.525 12.206-17.525 23.229v13.91c0 3.997.991 7.791 2.745 11.134-9.068 3.898-15.435 12.922-15.435 23.406v12.45c0 14.033 11.417 25.45 25.45 25.45h56.86c7.24 0 13.13 5.886 13.13 13.12v48.14c0 24.669 20.066 44.74 44.73 44.74a18.93 18.93 0 0013.47-5.574c3.611-3.594 5.6-8.387 5.6-13.496v-49.13c0-15.505 3.031-34.824 22.214-49.092 11.16 23.553 17.046 49.611 17.046 75.882 0 94.301-73.696 172.058-167.775 177.021a7.501 7.501 0 00.789 14.98c102.047-5.383 181.985-89.72 181.985-192 0-28.932-6.583-57.637-19.061-83.504 6.837-3.166 14.977-5.86 24.661-7.92v3.92a7.5 7.5 0 007.5 7.5h72.12a7.5 7.5 0 007.5-7.5v-9.345h27.23a7.5 7.5 0 007.5-7.5v-73.3a7.5 7.5 0 00-15 0v65.8h-19.73v-125.6H497v29.47a7.5 7.5 0 007.5 7.498zm-42.23 105.476h-57.12V40.349h57.12v159.287z"/><path d="M433.709 61.354a7.5 7.5 0 007.5-7.5v-1.658a7.5 7.5 0 00-15 0v1.658a7.5 7.5 0 007.5 7.5zm0 18.758a7.5 7.5 0 007.5-7.5v-1.658a7.5 7.5 0 00-15 0v1.658a7.5 7.5 0 007.5 7.5z"/></svg>