<svg xmlns="http://www.w3.org/2000/svg" viewBox="0 0 468.293 468.293"><path d="M67.139 61.421v393.421c0 7.428 6.022 13.45 13.45 13.45h307.115c7.428 0 13.45-6.022 13.45-13.45V61.421c0-7.428-6.022-13.45-13.45-13.45H80.589c-7.429 0-13.45 6.022-13.45 13.45z" fill="#64798a"/><path d="M374.254 74.872v279.094c-47.801 13.641-80.443 39.875-87.427 87.427H94.039V74.872h280.215z" fill="#ebf0f3"/><path fill="#d5d6db" d="M374.254 353.965l-87.427 87.427v-87.427z"/><path d="M267.772 33.626C267.772 15.055 252.717 0 234.146 0S200.52 15.055 200.52 33.626h-34.815c-5.506 0-9.969 4.463-9.969 9.969V80.82c0 5.506 4.463 9.969 9.969 9.969h136.882c5.506 0 9.969-4.463 9.969-9.969V43.595c0-5.506-4.463-9.969-9.969-9.969h-34.815z" fill="#2f4859"/><path d="M234.146 19.616c-7.738 0-14.01 6.273-14.01 14.01s6.273 14.011 14.01 14.011 14.01-6.273 14.01-14.011-6.272-14.01-14.01-14.01z" fill="#ebf0f3"/><circle cx="234.146" cy="258.129" r="83.131" fill="#44c4a1"/><path d="M283.671 223.578a9.01 9.01 0 00-12.744 0l-49.982 49.991-23.578-23.578a9.01 9.01 0 00-12.744 0 9.01 9.01 0 000 12.744l29.95 29.95a9.009 9.009 0 0012.744 0l56.354-56.363a9.01 9.01 0 000-12.744z" fill="#ebf0f3"/></svg>