<svg height="512" viewBox="0 0 510.998 510.998" width="512" xmlns="http://www.w3.org/2000/svg"><path d="M318.919 334.516l21.09 38.47-41.29 27.55-22.32-39.34-73.04-116.41-114.48-183.9a42.347 42.347 0 01-2.9-15.44c0-14.19 7.07-28.07 19.98-36.17 3.53-2.21 8.19-1.14 10.41 2.39l30.88 49.22 84.79 135.14z" fill="#f3eae6"/><path d="M503.499 69.876v231.3c0 4.97-4.03 9-8.99 9h-148.41l-87.72-149.14c-1.29-2.2-4.47-2.2-5.76 0l-87.72 149.14H16.489c-4.96 0-8.99-4.03-8.99-9v-231.3c0-4.97 4.03-8.99 8.99-8.99h478.02c4.96 0 8.99 4.02 8.99 8.99z" fill="#80d261"/><path d="M119.961 301.176v-231.3c0-4.97 4.03-8.99 8.99-8.99H16.489c-4.96 0-8.99 4.02-8.99 8.99v231.3c0 4.97 4.03 9 8.99 9h112.463c-4.96 0-8.991-4.03-8.991-9zM436.509 81.362a67.324 67.324 0 008.535-20.476H331.068l-67.92 108.257 57.235 97.311z" fill="#68ca44"/><path d="M220.688 177.934l-36.329 36.33 19 30.522 14.969 23.857 28.679-48.757-14.968-23.86z" fill="#efe2dd"/><path d="M471.499 120.886v129.29c-16.57 0-30 13.43-30 30h-113.05l-70.07-119.14c-1.29-2.2-4.47-2.2-5.76 0l-70.59 120.01-1.48-.87H69.499c0-16.57-13.43-30-30-30v-129.29c16.57 0 30-13.44 30-30h372c0 16.56 13.43 30 30 30z" fill="#ade194"/><path d="M69.499 90.886c0 16.56-13.43 30-30 30v129.29c16.57 0 30 13.43 30 30h50.462V90.886zm242.747 0l-49.099 78.257 57.236 97.31L430.534 90.886z" fill="#97da7b"/><path d="M336.439 171.183l-36.25 57.983-22.76-35.74-19.05-32.39c-1.29-2.2-4.47-2.2-5.76 0l-50.32 85.56c-13.06-13.46-21.09-31.81-21.09-52.04 0-41.31 33.48-74.79 74.79-74.79 20.65 0 39.35 8.37 52.88 21.9z" fill="#fee45a"/><path d="M308.879 141.666a74.956 74.956 0 00-19.641-14.108l-26.091 41.585 14.294 24.302 22.748 35.721 36.25-57.983z" fill="#fedf30"/><path d="M401.871 9.28a7.549 7.549 0 00-10.407 2.383L188.906 334.515l-13.826 18.578 43.138 26.448 13.211-18.346 183.903-293.12c12.519-19.953 6.492-46.277-13.461-58.795z" fill="#f9f3f1"/><path d="M410.799 392.246c21.21 33.8 11 78.39-22.8 99.6-33.8 21.2-78.39 10.99-99.6-22.81-13.88-22.13-14.29-48.9-3.43-70.69l-10.87-17.32c-4.57-7.29-2.37-16.9 4.92-21.48l37.28-23.39c7.29-4.57 16.91-2.37 21.48 4.92l10.87 17.32c24.35-.3 48.27 11.71 62.15 33.85zm-23.91 46.93c2.28-9.96.54-20.21-4.89-28.86-7.04-11.23-19.18-17.93-32.46-17.93-7.15 0-14.15 2.03-20.26 5.86-17.87 11.21-23.28 34.86-12.07 52.72 7.04 11.23 19.18 17.93 32.46 17.93 7.15 0 14.15-2.02 20.26-5.85 8.66-5.43 14.68-13.91 16.96-23.87zm-158.08-79.63c7.29 4.58 9.49 14.19 4.92 21.48l-10.117 16.12a2.57 2.57 0 00-.133 2.474c10.219 21.553 9.561 47.715-4.05 69.416-21.21 33.8-65.8 44.01-99.6 22.81-33.8-21.21-44.01-65.8-22.8-99.6 13.89-22.14 37.8-34.15 62.15-33.85l10.87-17.32c4.57-7.29 14.19-9.49 21.48-4.92zm-38.18 91.42c11.2-17.86 5.79-41.51-12.08-52.72-6.1-3.83-13.11-5.86-20.25-5.86-13.29 0-25.43 6.7-32.47 17.93-5.43 8.65-7.17 18.9-4.89 28.86s8.31 18.44 16.96 23.87c6.11 3.83 13.11 5.85 20.26 5.85 13.28 0 25.42-6.7 32.47-17.93z" fill="#fe646f"/><path d="M494.506 53.381h-65.791c3.077-19.275-5.309-39.443-22.858-50.454-7.03-4.412-16.336-2.28-20.746 4.75l-28.675 45.704H151.393L122.719 7.677c-4.409-7.029-13.715-9.16-20.746-4.75C84.655 13.792 75.965 33.86 79.115 53.381H16.492C7.398 53.381 0 60.779 0 69.873V301.18c0 9.094 7.398 16.493 16.492 16.493H39.5a7.5 7.5 0 000-15H16.492A1.494 1.494 0 0115 301.18V69.873c0-.823.669-1.493 1.492-1.493h330.532l-9.411 15H135.946a7.5 7.5 0 000 15h192.256l-20.281 32.326c-14.634-11.946-32.778-18.445-51.922-18.445-45.375 0-82.29 36.915-82.29 82.29 0 19.611 6.83 38.163 19.338 52.976l-14.789 25.145H76.247c-2.99-14.671-14.576-26.256-29.247-29.247v-50.399h58.076a7.5 7.5 0 000-15H47v-50.399c14.671-2.99 26.256-14.576 29.247-29.247h27.737a7.5 7.5 0 000-15H69.5a7.5 7.5 0 00-7.5 7.5c0 12.407-10.093 22.5-22.5 22.5a7.5 7.5 0 00-7.5 7.5v129.292a7.5 7.5 0 007.5 7.5c12.407 0 22.5 10.093 22.5 22.5a7.5 7.5 0 007.5 7.5h99.935l-8.822 15h-89.15a7.5 7.5 0 000 15h93.44a7.501 7.501 0 006.465-3.698l32.203-54.751 11.86 18.904-30.256 48.224a23.103 23.103 0 00-7.079.508 22.926 22.926 0 00-14.4 10.231l-8.698 13.864c-26.372 1.049-50.188 14.777-64.323 37.306-11.321 18.043-14.938 39.416-10.184 60.18s17.31 38.434 35.354 49.754c13.141 8.245 27.778 12.175 42.253 12.174 26.557-.002 52.556-13.236 67.681-37.344 14.135-22.53 16.135-49.944 5.603-74.147l8.699-13.864c4.734-7.547 4.547-16.802.314-23.997l13.52-21.55 13.52 21.55c-4.233 7.195-4.42 16.451.315 23.997l8.698 13.864c-10.532 24.203-8.532 51.617 5.603 74.147 15.127 24.11 41.122 37.345 67.681 37.344 14.473 0 29.115-3.931 42.253-12.174 18.044-11.32 30.599-28.99 35.354-49.754 4.754-20.764 1.137-42.137-10.184-60.18-14.135-22.53-37.949-36.259-64.323-37.306l-8.698-13.864a22.925 22.925 0 00-14.399-10.232 23.166 23.166 0 00-7.079-.508L292.4 278.127l13.495-21.51 33.736 57.358a7.501 7.501 0 006.465 3.698h148.41c9.094 0 16.492-7.398 16.492-16.493V69.873c0-9.094-7.398-16.492-16.492-16.492zM110.013 15.648l23.673 37.732H94.393c-3.37-14.403 2.711-29.685 15.62-37.732zm78.696 178.904c0-37.104 30.186-67.29 67.29-67.29 16.279 0 31.665 5.759 43.866 16.285l-22.231 35.433-12.79-21.746c-1.968-3.348-5.462-5.346-9.345-5.346s-7.377 1.999-9.345 5.345l-44.933 76.396c-8.118-11.329-12.512-24.862-12.512-39.077zm65.206 22.235l-13.102-20.884 14.687-24.971 13.154 22.364zm-41.777 27.869l20.107-34.186 12.817 20.428-20.777 33.117zm15.236 132.386l-10.866 17.319a7.501 7.501 0 00-.359 7.332c10.168 20.398 9.018 44.084-3.076 63.361-18.974 30.243-59.014 39.409-89.257 20.436-14.65-9.191-24.844-23.538-28.704-40.396-3.859-16.858-.923-34.211 8.268-48.861 11.949-19.045 32.417-30.343 54.885-30.343.273 0 .551.002.825.005 2.623.051 5.056-1.299 6.445-3.514l10.866-17.319a8.023 8.023 0 015.042-3.582 8.02 8.02 0 016.097 1.032l37.284 23.392c3.773 2.367 4.917 7.364 2.55 11.138zm104.054-31.98l10.866 17.319c1.389 2.214 3.844 3.566 6.445 3.514 22.776-.285 43.616 11.061 55.71 30.337 9.191 14.65 12.127 32.002 8.268 48.861-3.86 16.858-14.054 31.205-28.704 40.396-30.242 18.975-70.283 9.806-89.257-20.436-12.094-19.276-13.244-42.963-3.076-63.361a7.502 7.502 0 00-.359-7.332l-10.866-17.319c-2.368-3.774-1.224-8.771 2.55-11.139l37.284-23.392a8.024 8.024 0 016.097-1.032 8.038 8.038 0 015.042 3.584zm-22.843-12.914l-29.818 18.708-15.999-25.5 20.778-33.117zm9.56-109.168a7.501 7.501 0 00-10.339 2.367l-78.744 125.508-29.817-18.707 198.64-316.515c16.418 10.301 21.395 32.039 11.094 48.457l-84.186 134.183a7.499 7.499 0 002.367 10.339 7.499 7.499 0 0010.339-2.367l67.673-107.863h29.579c2.99 14.671 14.576 26.256 29.247 29.247v50.399h-90.533a7.5 7.5 0 000 15h90.533v50.399c-14.671 2.99-26.256 14.576-29.247 29.247h-102.01L314.877 242.3l5.635-8.982a7.498 7.498 0 00-2.367-10.338zm177.853 78.2c0 .823-.669 1.493-1.492 1.493h-144.12l-8.822-15h99.935a7.5 7.5 0 007.5-7.5c0-12.407 10.093-22.5 22.5-22.5a7.5 7.5 0 007.5-7.5V120.881a7.5 7.5 0 00-7.5-7.5c-12.407 0-22.5-10.093-22.5-22.5a7.5 7.5 0 00-7.5-7.5h-26.915l7.102-11.319a50.227 50.227 0 002.084-3.681h70.737c.823 0 1.492.669 1.492 1.493V301.18z"/><path d="M182.539 391.892c-7.304-4.583-15.688-7.005-24.245-7.005-15.883 0-30.396 8.016-38.82 21.443-6.495 10.351-8.569 22.611-5.842 34.523 2.727 11.911 9.929 22.047 20.281 28.542 7.304 4.583 15.688 7.005 24.244 7.005 15.883 0 30.396-8.016 38.82-21.444 13.407-21.368 6.93-49.659-14.438-63.064zm1.732 55.092c-5.664 9.027-15.426 14.416-26.114 14.416-5.732 0-11.359-1.629-16.272-4.711-6.957-4.365-11.798-11.178-13.631-19.183-1.833-8.006-.438-16.246 3.926-23.203 5.664-9.026 15.426-14.416 26.114-14.416 5.733 0 11.361 1.629 16.273 4.711 14.361 9.01 18.715 28.024 9.704 42.386zm126.581 7.972c8.425 13.427 22.937 21.443 38.82 21.443 8.556 0 16.939-2.422 24.244-7.005 10.352-6.494 17.554-16.63 20.281-28.542s.653-24.172-5.842-34.522c-8.424-13.428-22.937-21.444-38.82-21.444-8.557 0-16.941 2.422-24.245 7.005-21.368 13.406-27.845 41.697-14.438 63.065zm22.41-50.358c4.912-3.082 10.54-4.711 16.273-4.711 10.688 0 20.45 5.389 26.114 14.416 4.365 6.957 5.759 15.197 3.926 23.203-1.833 8.005-6.673 14.818-13.63 19.183-4.913 3.082-10.54 4.711-16.272 4.711-10.688 0-20.451-5.389-26.114-14.416-9.012-14.362-4.658-33.376 9.703-42.386zm-80.347-135.963a7.5 7.5 0 00-7.5 7.5v4.992a7.5 7.5 0 0015 0v-4.992a7.5 7.5 0 00-7.5-7.5zm-108.949-75.608a7.5 7.5 0 000-15h-8.547a7.5 7.5 0 000 15z"/></svg>