<svg xmlns="http://www.w3.org/2000/svg" viewBox="0 0 480 480"><path d="M272.702 280.089c35.426-18.061 49.504-61.421 31.443-96.847-18.061-35.426-61.421-49.504-96.847-31.443s-49.504 61.421-31.443 96.847a72.002 72.002 0 0031.443 31.443c-44.055.936-79.284 36.911-79.298 80.975V472h224V361.064c-.014-44.064-35.243-80.039-79.298-80.975z" fill="#f99898"/><path d="M268.03 280A69.585 69.585 0 00304 220.8c-.492-34.091-28.527-61.328-62.618-60.835-.461.007-.921.018-1.382.035-33.012-1.06-60.633 24.843-61.692 57.855a60.234 60.234 0 00-.022 2.945A67.565 67.565 0 00211.97 280c-37.669.858-75.97 36.233-75.97 76.152V472h208V356.152c0-39.919-38.301-75.294-75.97-76.152z" fill="#ec322c"/><path d="M232 48h16v32h-16V48zm79.032 42.327L333.659 67.7l11.313 11.313-22.627 22.627-11.313-11.313zM408 464h32v16h-32v-16zm0-80h32v16h-32v-16zm0-80h32v16h-32v-16zm-9.682-74.523l30.357-10.124 5.062 15.18-30.357 10.124-5.062-15.18zm-24.849-82.963l30.358-10.124 5.062 15.18-30.358 10.124-5.062-15.18zM135.033 79.023l11.314-11.312 22.625 22.629-11.314 11.312-22.625-22.629zM40 464h32v16H40v-16zm0-80h32v16H40v-16zm0-80h32v16H40v-16zm6.295-69.472l5.059-15.181 30.359 10.117-5.059 15.181-30.359-10.117zm24.813-82.94l5.061-15.18 30.359 10.121-5.061 15.18-30.359-10.121z" fill="#6ff0f7"/><path d="M440 80a7.998 7.998 0 01-8-7.996V72c-.014-13.249-10.751-23.986-24-24a8 8 0 010-16c13.249-.014 23.986-10.751 24-24a8 8 0 0116 0c.014 13.249 10.751 23.986 24 24a8 8 0 010 16c-13.249.014-23.986 10.751-24 24a7.998 7.998 0 01-7.996 8H440zm-8.023-40A40.338 40.338 0 01440 48.023 40.338 40.338 0 01448.023 40 40.338 40.338 0 01440 31.977 40.338 40.338 0 01431.977 40zM40 80a7.998 7.998 0 01-8-7.996V72c-.014-13.249-10.751-23.986-24-24a8 8 0 010-16c13.249-.014 23.986-10.751 24-24a8 8 0 0116 0c.014 13.249 10.751 23.986 24 24a8 8 0 010 16c-13.249.014-23.986 10.751-24 24a7.998 7.998 0 01-7.996 8H40zm-8.023-40A40.338 40.338 0 0140 48.023 40.338 40.338 0 0148.023 40 40.338 40.338 0 0140 31.977 40.338 40.338 0 0131.977 40z" fill="#fcd821"/></svg>