<svg height="512" viewBox="0 0 64 64" width="512" xmlns="http://www.w3.org/2000/svg"><path d="M61 28v15l-4 12H41v-7l3.88-13.18.7-2.38A1.992 1.992 0 0147.5 31h.5a2.006 2.006 0 012 2v12l5-9v-8l-4.25-14.44A2 2 0 0152.67 11h.91a2 2 0 011.89 1.33z" fill="#ffdaaa"/><path d="M61 28v15l-4 12h-4l4-12V28l-5.53-15.67a1.981 1.981 0 00-.34-.6 1.982 1.982 0 011.54-.73h.91a2 2 0 011.89 1.33z" fill="#ffc477"/><path d="M38 55h22v6H38z" fill="#c0ab91"/><path d="M56 55h4v6h-4z" fill="#b39a7c"/><path d="M44.88 34.81v.01L42.47 43H21.53l-2.41-8.19a6.966 6.966 0 013.11-4.14 8.926 8.926 0 011.84-.57c.23-.05.93-.1.93-.1h14s.7.05.93.1a8.95 8.95 0 011.84.58 7 7 0 013.11 4.13z" fill="#a4e276"/><path d="M44.88 34.81v.01L42.47 43h-4l2.41-8.18v-.01a7 7 0 00-3.11-4.13 8.95 8.95 0 00-1.84-.58c-.23-.05-.93-.1-.93-.1h4s.7.05.93.1a8.95 8.95 0 011.84.58 7 7 0 013.11 4.13z" fill="#7ed63e"/><path d="M45 20a19.761 19.761 0 01-3.23 10.68A17.544 17.544 0 0139.02 34a20.353 20.353 0 00.91-3.9A8.023 8.023 0 0040 29a16.494 16.494 0 00-2.33-9.03A6.122 6.122 0 0038 18v-6l-8-2-4 2v6a5.761 5.761 0 00.33 1.96v.01A16.494 16.494 0 0024 29a8.023 8.023 0 00.07 1.1A20.373 20.373 0 0025 34a18.082 18.082 0 01-2.77-3.33A19.811 19.811 0 0119 20c0-9.37 5.89-17 13-17s13 7.63 13 17z" fill="#ffa733"/><path d="M45 20a19.761 19.761 0 01-3.23 10.68A17.544 17.544 0 0139.02 34a22.948 22.948 0 00.86-3.5A19.714 19.714 0 0043 20c0-8.93-5.35-16.27-12-16.94A8.262 8.262 0 0132 3c7.11 0 13 7.63 13 17z" fill="#ff9811"/><path d="M39 30l-7 4-7-4 4-3v-3.81a5.961 5.961 0 006 0V27z" fill="#ffdaaa"/><path d="M38 12v6a6.122 6.122 0 01-.33 1.97A6.02 6.02 0 0135 23.19a5.961 5.961 0 01-6 0 6.02 6.02 0 01-2.67-3.22v-.01A5.761 5.761 0 0126 18v-6l4-2z" fill="#ffdaaa"/><path d="M38 12v6a6.122 6.122 0 01-.33 1.97A6.02 6.02 0 0135 23.19a5.857 5.857 0 01-3 .81 6.531 6.531 0 01-1-.08 5.79 5.79 0 002-.73 6.02 6.02 0 002.67-3.22A6.122 6.122 0 0036 18v-6l-6.67-1.67L30 10z" fill="#ffc477"/><path d="M4 55h22v6H4z" fill="#c0ab91"/><path d="M23 48v7H7L3 43V28l5.53-15.67A2 2 0 0110.42 11h.91a2 2 0 011.92 2.56L9 28v8l5 9V33a2.006 2.006 0 012-2h.5a1.992 1.992 0 011.92 1.44z" fill="#ffdaaa"/><path d="M22 55h4v6h-4z" fill="#b39a7c"/><path d="M23 48v7h-4v-7l-4.58-15.56a1.783 1.783 0 00-.17-.4A2 2 0 0116 31h.5a1.992 1.992 0 011.92 1.44z" fill="#ffc477"/><path d="M16 8h2V6h2V4h-2V2h-2v2h-2v2h2zM4 11h2V9h2V7H6V5H4v2H2v2h2zm42-3h2V6h2V4h-2V2h-2v2h-2v2h2zm14-1V5h-2v2h-2v2h2v2h2V9h2V7z"/><path d="M61.94 27.67L56.41 12a3 3 0 00-2.83-2h-.91a2.984 2.984 0 00-2.4 1.2 3.025 3.025 0 00-.48 2.65L54 28.14v7.6l-3 5.4V33a3.009 3.009 0 00-3-3h-.5a3.007 3.007 0 00-2.8 1.96 7.134 7.134 0 00-1.56-1.59A20.637 20.637 0 0046 20c0-9.93-6.28-18-14-18s-14 8.07-14 18a20.493 20.493 0 002.87 10.35 7.172 7.172 0 00-1.57 1.59A3.014 3.014 0 0016.5 30H16a3.009 3.009 0 00-3 3v8.14l-3-5.4v-7.6l4.21-14.29a3.025 3.025 0 00-.48-2.65 2.984 2.984 0 00-2.4-1.2h-.91a3 3 0 00-2.83 2L2.06 27.67A.919.919 0 002 28v15a1.185 1.185 0 00.05.32L5.61 54H4a1 1 0 00-1 1v6a1 1 0 001 1h22a1 1 0 001-1v-6a1 1 0 00-1-1h-2v-6a.863.863 0 00-.04-.28L22.87 44h18.26l-1.09 3.72A.863.863 0 0040 48v6h-2a1 1 0 00-1 1v6a1 1 0 001 1h22a1 1 0 001-1v-6a1 1 0 00-1-1h-1.61l3.56-10.68A1.185 1.185 0 0062 43V28a.919.919 0 00-.06-.33zM20 20c0-8.82 5.38-16 12-16s12 7.18 12 16a18.6 18.6 0 01-3.06 10.13A10.416 10.416 0 0041 29a17.866 17.866 0 00-2.25-9.18A6.835 6.835 0 0039 18v-6a1 1 0 00-.76-.97l-8-2a.978.978 0 00-.69.08l-4 2A.977.977 0 0025 12v6a6.835 6.835 0 00.25 1.82A17.866 17.866 0 0023 29a10.047 10.047 0 00.06 1.11A18.608 18.608 0 0120 20zm8 3.74v2.76l-2.99 2.24a17.26 17.26 0 011.3-6.67A7.44 7.44 0 0028 23.74zM27 18v-5.38l3.12-1.56L37 12.78V18a5 5 0 01-10 0zm2.6 9.8a1.014 1.014 0 00.4-.8v-2.29a7.042 7.042 0 004 0V27a1.014 1.014 0 00.4.8l2.78 2.09L32 32.85l-5.18-2.96zm6.4-1.3v-2.76a7.44 7.44 0 001.69-1.67 17.26 17.26 0 011.3 6.67zM4 42.84V28.17l5.47-15.5a1 1 0 01.95-.67h.91a1 1 0 01.96 1.28L8.04 27.72A.863.863 0 008 28v8a.947.947 0 00.13.49l5 9A1 1 0 0015 45V33a1 1 0 011-1h.5a1 1 0 01.96.72L22 48.14V54H7.72zM25 56v4H5v-4zm-2.72-14l-2.12-7.21a5.009 5.009 0 011.8-2.76 17.882 17.882 0 002.36 2.7.975.975 0 001.2.07 1.067 1.067 0 00.41-1.19c-.23-.75-.47-1.51-.64-2.3l6.21 3.56a1.027 1.027 0 001 0l6.22-3.56c-.18.84-.42 1.64-.66 2.4a1 1 0 00.43 1.14 1.014 1.014 0 00.53.15.977.977 0 00.68-.27 17.546 17.546 0 002.34-2.68 4.959 4.959 0 011.8 2.74L41.72 42zM59 56v4H39v-4zm1-13.16L56.28 54H42v-5.86l4.54-15.42a1 1 0 01.96-.72h.5a1 1 0 011 1v12a1 1 0 001.87.49l5-9A.947.947 0 0056 36v-8a.863.863 0 00-.04-.28l-4.25-14.44a1 1 0 01.96-1.28h.91a1 1 0 01.95.67L60 28.17z"/><path d="M29 14h2v2h-2zm4 0h2v2h-2z"/></svg>