<svg height="512" viewBox="0 0 64 64" width="512" xmlns="http://www.w3.org/2000/svg"><path d="M44 60H6a2 2 0 01-2-2V14h40z" fill="#e6e9ed"/><path d="M46 4v8c-2.81 0-5.45.72-7.75 2H4V4c0-1.1.9-2 2-2h38c1.1 0 2 .9 2 2z" fill="#5cd6b3"/><circle cx="10" cy="8" fill="#e6e9ed" r="2"/><circle cx="18" cy="8" fill="#e6e9ed" r="2"/><circle cx="26" cy="8" fill="#e6e9ed" r="2"/><path d="M2 29V19c0-.55.45-1 1-1h18c.55 0 1 .45 1 1v10c0 .55-.45 1-1 1h-5v2.67a1.336 1.336 0 01-2.4.8L11 30H3c-.55 0-1-.45-1-1z" fill="#ffeaa7"/><path d="M26 48h4v6h-4zm-4-1v7h-4V43zm-8-1v8h-4v-4z" fill="#ff826e"/><path d="M48 44v17c0 .55-.45 1-1 1h-2c-.55 0-1-.45-1-1V44l.02-.12c.65.08 1.31.12 1.98.12s1.33-.04 1.98-.12z" fill="#969faa"/><path d="M56.51 15.93l-.54 5.39C57.25 23.23 58 25.53 58 28c0 4.45-2.42 8.33-6 10.4-1.21.7-2.56 1.19-4 1.43-.65.11-1.32.17-2 .17s-1.35-.06-2-.17c-1.44-.24-2.79-.73-4-1.43-2.16-1.25-3.9-3.17-4.94-5.46C34.38 31.43 34 29.76 34 28c0-6.63 5.37-12 12-12 1.76 0 3.43.38 4.94 1.06l.03-.03L46 12c-2.81 0-5.45.72-7.75 2C33.33 16.73 30 21.97 30 28c0 2.88.76 5.58 2.09 7.91a16.006 16.006 0 0011.93 7.97c.65.08 1.31.12 1.98.12s1.33-.04 1.98-.12C55.88 42.91 62 36.17 62 28c0-4.82-2.13-9.13-5.49-12.07z" fill="#fcd770"/><path d="M55.97 21.322L55.9 22l-4.822-4.861A11.935 11.935 0 0046 16c-6.627 0-12 5.373-12 12s5.373 12 12 12 12-5.373 12-12c0-2.472-.749-4.769-2.03-6.678z" fill="#69d6f4"/><path d="M57 11l-.49 4.93-.54 5.39-.07.68-4.93-4.97L46 12zm-5 27.39v.01c-1.21.7-2.56 1.19-4 1.43V28l4-4zM44 29v10.83c-1.44-.24-2.79-.73-4-1.43V33z" fill="#ff826e"/><path d="M5 21h4v2H5zm6 0h8v2h-8zm-6 4h14v2H5z"/><path d="M63 28c0-4.736-1.99-9.233-5.45-12.446l.565-5.659L47 10.905V4c0-1.654-1.346-3-3-3H6C4.346 1 3 2.346 3 4v13c-1.103 0-2 .897-2 2v10c0 1.103.897 2 2 2v27c0 1.654 1.346 3 3 3h37c0 1.103.897 2 2 2h2c1.103 0 2-.897 2-2V44.719c7.946-1.423 14-8.37 14-16.719zm-12 9.786c-.634.325-1.302.59-2 .788v-10.16l2-2zm-4-10.2v11.363c-.33.03-.662.051-1 .051s-.67-.021-1-.051V26.586l-6 6v3.893a11.077 11.077 0 01-2.721-3.344l14.692-14.692 5.106 5.157c.603 1.379.923 2.87.923 4.4 0 3.408-1.559 6.459-4 8.479V21.586zm-4 10.988a10.903 10.903 0 01-2-.788v-4.372l2-2zM31 28c0-8.137 6.516-14.767 14.603-14.98l2.079 2.099A13.224 13.224 0 0046 15c-7.168 0-13 5.832-13 13 0 1.657.323 3.236.891 4.695l-1.524 1.524A14.89 14.89 0 0131 28zm4 0c0-6.065 4.935-11 11-11 1.072 0 2.116.163 3.124.462L35.459 31.127A10.949 10.949 0 0135 28zm20.885-15.895l-.769 7.682-6.913-6.983zM6 3h38c.552 0 1 .449 1 1v7.051c-2.511.147-4.88.825-6.983 1.949H5V4c0-.551.448-1 1-1zM3 19h18l.001 10H15v3.667c0 .288-.428.43-.601.2L11.5 29H3zm3 40a1 1 0 01-1-1V31h5.5l2.3 3.066a2.343 2.343 0 001.867.934A2.336 2.336 0 0017 32.667V31h4c1.103 0 2-.897 2-2V19c0-1.103-.897-2-2-2H5v-2h30.068C31.363 18.121 29 22.788 29 28c0 2.779.683 5.397 1.871 7.715L24 42.586l-6.964-6.964-10.705 9.635 1.338 1.486 9.295-8.365L24 45.414l7.911-7.911A17.021 17.021 0 0043 44.718V59zm41 2h-2V44.949c.333.02.662.051 1 .051s.667-.031 1-.051zm-1-18c-5.308 0-9.969-2.779-12.636-6.95l1.454-1.454C37.083 38.422 41.241 41 46 41c7.168 0 13-5.832 13-13 0-2.465-.696-4.846-2.002-6.919l.293-2.93A14.986 14.986 0 0161 28c0 8.271-6.729 15-15 15z"/><path d="M10 11c1.654 0 3-1.346 3-3s-1.346-3-3-3-3 1.346-3 3 1.346 3 3 3zm0-4a1.001 1.001 0 11-1 1c0-.551.448-1 1-1zm8 4c1.654 0 3-1.346 3-3s-1.346-3-3-3-3 1.346-3 3 1.346 3 3 3zm0-4a1.001 1.001 0 11-1 1c0-.551.448-1 1-1zm8 4c1.654 0 3-1.346 3-3s-1.346-3-3-3-3 1.346-3 3 1.346 3 3 3zm0-4a1.001 1.001 0 11-1 1c0-.551.448-1 1-1zm13 46v-8h-2v8h-2V43h-2v10h-2v-6h-6v6h-2v-6.414l-6-6V53h-2v-9.414l-6 6V53H7v2h34v-2zm-12-4h2v4h-2zm-8-3.586l2 2V53h-2zm-8 5l2-2V53h-2z"/></svg>