<svg height="512" width="512" xmlns="http://www.w3.org/2000/svg" data-name="Layer 1"><path d="M242.04 420.877a43.6 43.6 0 00-23.24-30.33l-50.97-21.76v-1.331a90.774 90.774 0 01-76.89 0v1.331l-50.97 21.76a43.613 43.613 0 00-23.97 35.4v55.42h226.77v-55.42a40.427 40.427 0 00-.73-5.07z" fill="#50a6ea"/><path d="M69.97 390.547l39.347-16.8a90.624 90.624 0 01-18.377-6.292v1.331l-50.97 21.76A43.613 43.613 0 0016 425.947v55.42h30v-55.42a43.613 43.613 0 0123.97-35.4z" fill="#72bcef"/><path d="M496 69.047v331.83a19.994 19.994 0 01-20 20H242.04a43.6 43.6 0 00-23.24-30.33l-32.76-13.98v-58.78l-.01-.01a80.886 80.886 0 0022.14-55.71v-10.28a20.834 20.834 0 0016.61-25.48 15.668 15.668 0 00-14.02-11.94h-1.96v-31.65a82.608 82.608 0 00-22.76-57.04v-56.63a20 20 0 0120-20h49.41v15.97h181.14v-15.97H476a20 20 0 0120 20z" fill="#e5f5fd"/><circle cx="287.87" cy="171.917" fill="#49c160" r="60"/><path d="M247.87 171.916a60.017 60.017 0 0150-59.154 60 60 0 100 118.309 60.008 60.008 0 01-50-59.155z" fill="#5ae070"/><path d="M208.8 214.367v.92s-70.81 12.48-118.29-29.83a249.9 249.9 0 01-29.32.74l-2.21 36.27a1.677 1.677 0 01-2.44 1.36l-9.8-5.03a6.788 6.788 0 01-3.66-5.55v-30.53a82.86 82.86 0 01165.72 0z" fill="#4a5160"/><path d="M87.35 124.127a82.6 82.6 0 0148.66-23.658 83.661 83.661 0 00-10.07-.612 82.863 82.863 0 00-82.86 82.86v30.53a6.788 6.788 0 003.66 5.55l9.8 5.03a1.678 1.678 0 002.44-1.36s-4.307-65.667 28.37-98.34z" fill="#58606d"/><path d="M167.83 332.247v35.21a90.781 90.781 0 01-76.89 0v-32.59a81.284 81.284 0 0076.89-2.62z" fill="#efc597"/><path d="M110.94 367.456v-25.767a80.7 80.7 0 01-20-6.822v32.589a90.763 90.763 0 0048.445 7.989 90.7 90.7 0 01-28.445-7.989z" fill="#d8ad82"/><path d="M167.83 332.247a81.2 81.2 0 01-122.08-70.18v-10.28a20.876 20.876 0 01-16.62-25.48 15.68 15.68 0 0114.03-11.94l.09-.02a6.772 6.772 0 003.49 4.45l9.8 5.03a1.677 1.677 0 002.44-1.36l2.21-36.27a249.9 249.9 0 0029.32-.74c47.48 42.31 118.29 29.83 118.29 29.83v-.92h1.96a15.668 15.668 0 0114.02 11.94 20.834 20.834 0 01-16.61 25.48v10.28a80.886 80.886 0 01-22.14 55.71c-.53.58-1.09 1.15-1.65 1.71a81.27 81.27 0 01-16.55 12.76z" fill="#ffd8b7"/><path d="M110.94 334.867a81.206 81.206 0 01-45.19-72.8v-10.28a20.876 20.876 0 01-16.62-25.48 15.765 15.765 0 012.267-5.12L46.74 218.8a6.772 6.772 0 01-3.49-4.45l-.09.02a15.68 15.68 0 00-14.03 11.94 20.838 20.838 0 0016.62 25.48v10.28a81.17 81.17 0 0081.21 81.21 82.043 82.043 0 009.984-.618 80.73 80.73 0 01-26.004-7.795z" fill="#e8bc9e"/><path d="M255.45 30.637h181.14v34.38H255.45z" fill="#475673"/><g fill="#284268"><path d="M476 43.051h-33.415V30.634a6 6 0 00-6-6H255.453a6 6 0 00-6 6v12.417h-43.415a26.027 26.027 0 00-26 26v43.232a88.807 88.807 0 00-142.955 70.434v26.893a21.454 21.454 0 00-13.778 15.269 26.863 26.863 0 0016.445 31.452v5.738a87.274 87.274 0 0045.194 76.4v26.359l-47.333 20.2c-.111.048-.22.1-.327.152a49.92 49.92 0 00-27.263 40.268 5.917 5.917 0 00-.021.5v55.421a6 6 0 006 6h226.769a6 6 0 006-6v-54.491H476a26.028 26.028 0 0026-26V69.049a26.028 26.028 0 00-26-25.998zm-214.547-6.417h169.132v22.385H261.453zM49.083 182.717a76.856 76.856 0 11153.712 0v27.316c-14.868 1.607-60.255 4.032-96.7-20.134 25.042-3.338 55.568-11.026 78.208-28.389a6 6 0 10-7.3-9.521c-41.187 31.589-114.766 28.257-115.5 28.218a6.008 6.008 0 00-6.3 5.627l-1.8 29.633-3.915-2.01a.762.762 0 01-.4-.519zm2.667 79.352v-10.281a6 6 0 00-4.965-5.911 14.848 14.848 0 01-11.825-18.142 9.348 9.348 0 015.344-6.49 12.668 12.668 0 003.7 2.888l9.8 5.031a7.676 7.676 0 0011.16-6.217c0-.038.006-.075.008-.113l1.857-30.485c4.9.046 12.478-.034 21.69-.676 49.005 41.688 118.357 30.048 121.323 29.527a5.979 5.979 0 001.776-.629 9.506 9.506 0 017.343 7.164 14.844 14.844 0 01-11.824 18.142 6 6 0 00-4.965 5.911v10.281a75.209 75.209 0 01-150.417 0zm128.291 69.14v36.269l-6.216-2.652v-29.242q3.207-2.052 6.216-4.375zM161.825 342v21.542a85.4 85.4 0 01-64.881 0v-19.588A87.19 87.19 0 00161.825 342zm74.944 133.371H22V426.2a37.86 37.86 0 0120.5-30.21l49.964-21.324a97.348 97.348 0 0073.851 0l49.965 21.325a37.856 37.856 0 0120.489 30.209zM490 400.88a14.013 14.013 0 01-14 14H246.652a49.945 49.945 0 00-25.167-29.7c-.107-.055-.216-.1-.327-.152L192.041 372.6v-52.548a86.854 86.854 0 0022.126-57.983v-5.738a26.861 26.861 0 0016.445-31.45 21.5 21.5 0 00-15.817-15.9v-26.264a88.506 88.506 0 00-22.754-59.317V69.049a14.013 14.013 0 0114-14h43.415v9.968a6 6 0 006 6h181.129a6 6 0 006-6v-9.966H476a14.013 14.013 0 0114 14z"/><path d="M446.584 221.686h-43.866a6 6 0 000 12h43.866a6 6 0 000-12zm-84.427 12h14.715a6 6 0 000-12h-14.715a6 6 0 000 12zm84.427 52.896h-14.895a6 6 0 100 12h14.895a6 6 0 000-12zm-35.647 12a6 6 0 000-12h-79.459a6 6 0 100 12zm-100.5-12h-5.361a6 6 0 000 12h5.361a6 6 0 000-12zm-65.225 0a6 6 0 000 12h34.018a6 6 0 000-12zm201.372 59.981h-34.335a6 6 0 000 12h34.335a6 6 0 000-12zm-55.87 0H386.4a6 6 0 000 12h4.311a6 6 0 100-12zm-21.2 0H336.9a6 6 0 000 12h32.615a6 6 0 000-12zm-59.077 0h-65.225a6 6 0 000 12h65.225a6 6 0 000-12zM446.584 170.6h-3.872a6 6 0 000 12h3.872a6 6 0 000-12zm-72.245 12h42.528a6 6 0 000-12h-42.528a6 6 0 000 12zm72.245-62h-42.867a6 6 0 000 12h42.867a6 6 0 000-12zm-72.245 12h3.533a6 6 0 000-12h-3.533a6 6 0 000 12zm-86.464 105.32a66 66 0 10-66-66 66.075 66.075 0 0066 66zm0-120a54 54 0 11-54 54 54.062 54.062 0 0154-54z"/><path d="M270.268 198.079a6 6 0 008.485 0l43.832-43.832a6 6 0 00-8.485-8.485l-39.589 39.589-12.862-12.861a6 6 0 10-8.485 8.484z"/></g></svg>