<svg xmlns="http://www.w3.org/2000/svg" viewBox="0 0 513.122 513.122"><path d="M299.228 158.164s6.4-21.333 59.733-16c0 0 30.933-26.667 66.133-11.733l19.2 3.2s0-24.533-2.133-45.867c-1.067-21.333-16-46.933-16-46.933s-5.333 7.467-14.933 7.467c-8.533 0-11.733 1.067-14.933 4.267-3.2 2.133-13.867 3.2-17.067 1.067-3.2-2.133-2.133-6.4 1.067-9.6 0 0-10.667-1.067-9.6-12.8s9.6-23.467 12.8-23.467c0 0 3.2-8.533 11.733-5.333 0 0 6.4-3.2 11.733 0 0 0 18.133 3.2 25.6 6.4s12.8 7.467 17.067 18.133c4.267 10.667 23.467 32 34.133 45.867 10.667 13.867 18.133 34.133 21.333 52.267 3.2 18.133 5.333 23.467 7.467 28.8 2.133 5.333-2.133 13.867-7.467 16-5.333 2.133-35.2 12.8-52.267 23.467-17.067 9.6-33.067 14.933-46.933 14.933s-66.133 9.6-66.133 9.6l-40.533-59.735zm-85.334 0s-6.4-21.333-59.733-16c0 0-30.933-26.667-66.133-11.733l-19.2 3.2s0-24.533 2.133-45.867 16-46.933 16-46.933 5.333 7.467 14.933 7.467 11.733 1.067 14.933 4.267c3.2 2.133 13.867 3.2 17.067 1.067 3.2-2.133 2.133-6.4-1.067-9.6 0 0 10.667-1.067 9.6-12.8-1.067-11.733-9.6-23.467-12.8-23.467 0 0-3.2-8.533-11.733-5.333 0 0-6.4-3.2-11.733 0 0 0-18.133 3.2-25.6 6.4-7.467 3.2-12.8 7.467-17.067 18.133-4.267 10.667-23.467 32-34.133 45.867s-18.133 34.133-21.333 52.267-5.333 23.467-7.467 28.8 2.133 13.867 7.467 16 35.2 12.8 52.267 23.467c17.067 9.6 33.067 14.933 46.933 14.933s69.333 9.6 69.333 9.6l37.333-59.735z" fill="#ffd15c"/><path d="M250.161 512.297c-1.067-19.2-4.267-46.933-4.267-46.933s-3.2 17.067-5.333 27.733c-1.067 3.2-2.133 10.667-4.267 18.133h-58.667c0-4.267 1.067-6.4 1.067-8.533-13.867-50.133-11.733-128-11.733-128l53.333-87.467 78.933-10.667s19.2 81.067 23.467 128c4.267 39.467-3.2 86.4-7.467 106.667H250.16v1.067z" fill="#415a6b"/><g fill="#ffd15c"><path d="M214.961 77.097s4.267 12.8 4.267 27.733-1.067 14.933-1.067 14.933l51.2 16-3.2-18.133 1.067-18.133s11.733-11.733 10.667-38.4c-1.067-26.667 0-27.733 0-27.733s0-18.133-14.933-22.4c-14.933-4.267-38.4 1.067-42.667 6.4-5.334 6.4-9.601 48-5.334 59.733z"/><path d="M205.361 69.63c2.133 6.4 6.4 10.667 10.667 9.6 3.2-1.067 4.267-6.4 2.133-12.8-2.133-6.4-6.4-10.667-10.667-9.6-3.2 0-4.266 6.4-2.133 12.8zm75.733-3.2c-1.067 6.4-4.267 11.733-7.467 11.733-3.2 0-6.4-5.333-5.333-12.8 1.067-7.467 4.267-11.733 7.467-11.733 3.2 0 6.4 5.334 5.333 12.8z"/></g><path d="M209.628 23.764c4.267-9.6 19.2-20.267 28.8-22.4 9.6-2.133 27.733 2.133 34.133 11.733 6.4 9.6 8.533 32 7.467 38.4-1.067 4.267-2.133 11.733-2.133 12.8h-1.067c0-2.133 1.067-13.867 0-18.133-2.133-4.267-4.267-10.667-4.267-14.933s-2.133-9.6-8.533-11.733c-7.467-3.2-35.2 0-39.467 2.133-3.2 2.133-5.333 7.467-4.267 11.733 0 4.267-4.267 11.733-5.333 14.933-1.067 3.2 0 16 0 16h-2.133s-3.2-5.333-4.267-10.667c0-4.266-3.2-20.266 1.067-29.866z" fill="#415a6b"/><path d="M242.694 103.764c16 5.333 25.6-4.267 25.6-4.267l-2.133 18.133 2.133 8.533c-40.533-12.8-50.133-39.467-50.133-39.467s8.533 10.668 24.533 17.068z" fill="#f7b64c"/><path fill="#ced6e0" d="M256.561 121.897h-1.067l-38.4 5.333 48 122.667 17.067-40.533-2.133-72.534-9.6-11.733z"/><g fill="#f3705a"><path d="M249.094 160.297l13.867 61.867h19.2l3.2-10.667s-5.333-43.733-8.533-54.4c-3.2-10.667-9.6-19.2-9.6-19.2l-10.667-7.467s0 1.067-1.067 6.4c0 5.334-6.4 23.467-6.4 23.467z"/><path d="M246.961 126.164s7.467 4.267 9.6 10.667c3.2-2.133 6.4-2.133 10.667 0l2.133-13.867-11.733-1.067h-2.133l-8.534 4.267z"/></g><ellipse cx="314.161" cy="223.23" rx="18.133" ry="21.333" fill="#415a6b"/><g fill="#344a5e"><path d="M281.094 134.697s2.133 1.067 9.6 4.267 21.333 4.267 26.667 11.733 8.533 32 3.2 53.333c-5.333 21.333-12.8 62.933-4.267 104.533s11.733 100.267 11.733 100.267-13.867 6.4-21.333-10.667-24.533-110.933-24.533-110.933-4.267-55.467-1.067-76.8-2.133-68.267-3.2-72.533c0-4.267 3.2-3.2 3.2-3.2z"/><path d="M202.161 119.764s-9.6 7.467-19.2 8.533c-9.6 0-25.6 2.133-28.8 14.933-3.2 12.8 4.267 51.2 7.467 64s20.267 55.467 16 96-20.267 97.067-20.267 97.067 53.333 6.4 76.8 5.333c24.533-1.067 35.2-10.667 39.467-21.333 4.267-10.667 13.867-74.667 12.8-89.6-1.067-13.867-2.133-19.2-2.133-19.2s-12.8-61.867-27.733-100.267-43.733-59.733-43.733-59.733l-10.668 4.267z"/></g><path d="M219.228 100.564s5.333 5.333 11.733 7.467c6.4 2.133 24.533 13.867 24.533 13.867l-16 19.2-25.6-28.8 5.334-11.734zm37.333 21.333c6.4 5.333 11.733 11.733 16 19.2l1.067 1.067s-2.133-14.933-2.133-21.333c-1.067-6.4-3.2-12.8-3.2-12.8s-5.334 10.666-11.734 13.866z" fill="#f3f3f3"/><g fill="#415a6b"><path d="M214.961 108.03s2.133 5.333 6.4 8.533 23.467 17.067 34.133 42.667c11.733 25.6 26.667 87.467 27.733 116.267 0 0-21.333-78.933-36.267-103.467-14.933-24.533-25.6-30.933-25.6-30.933l4.267-7.467h-9.6s-12.8-10.667-14.933-11.733c-1.067-1.067-1.067-1.067 0-2.133l7.467-7.467c5.333-4.267 6.4-4.267 6.4-4.267z"/><path d="M270.428 125.097s10.667 34.133 9.6 51.2c0 16-7.467 52.267 0 78.933 0 0 6.4-38.4 9.6-49.067 3.2-10.667 4.267-53.333 1.067-62.933l-9.6-3.2 4.267-2.133s-7.467-5.333-10.667-8.533c-1.067-2.134-4.267-4.267-4.267-4.267z"/><path d="M267.228 239.23v33.067s6.4 0 13.867 1.067c5.333 0 11.733 1.067 17.067 1.067 4.267 0 8.533 1.067 13.867 2.133 8.533 2.133 17.067 5.333 25.6 5.333 12.8 0 21.333-11.733 21.333-18.133s0-26.667-1.067-29.867c-1.067-3.2-9.6-14.933-12.8-19.2s-6.4-11.733-7.467-16c-1.067-3.2-2.133-8.533-4.267-14.933-2.133-6.4-1.067-8.533-4.267-18.133-3.2-8.533-12.8-16-12.8-16 5.333 7.467 8.533 32 3.2 53.333 0 2.133-1.067 4.267-1.067 6.4l3.2 25.6s-1.067 0-7.467 1.067c-4.267 0-22.4 1.067-34.133 2.133-6.399 1.066-12.799 1.066-12.799 1.066z"/></g><path d="M267.228 239.23h12.8c12.8 0 29.867-1.067 34.133-2.133h3.2c0 4.267 1.067 8.533 0 13.867v2.133h-2.133s-22.4 2.133-36.267 3.2c-3.2 0-8.533 1.067-10.667 1.067h-1.067V239.23z" fill="#344a5e"/><path d="M332.294 232.83s-5.333 6.4-17.067 4.267l-18.133-14.933 4.267-12.8s10.667 1.067 20.267 11.733c9.6 10.667 10.666 11.733 10.666 11.733z" fill="#ffd15c"/><path d="M155.228 172.03c4.267 26.667 17.067 50.133 36.267 68.267l3.2 3.2c8.533 6.4 22.4 7.467 24.533 8.533 2.133 1.067 8.533 0 11.733 0 3.2 0 4.267 2.133 9.6 2.133h27.733c2.133 0 5.333 0 10.667-1.067 13.867-1.067 36.267-3.2 36.267-3.2 1.067-35.2-14.933-40.533-14.933-40.533s-16-2.133-23.467-1.067c-2.133 0-5.333 0-10.667-1.067-12.8-1.067-32-3.2-35.2-4.267-4.267-1.067-5.333 0-7.467 1.067s-1.067 2.133-2.133-2.133c0-4.267-1.067 0-2.133-4.267-1.067-3.2-5.333-13.867-12.8-27.733-6.4-13.867-18.133-30.933-30.933-38.4-2.133-1.067-5.333-2.133-8.533-3.2-6.4 2.133-12.8 5.333-14.933 12.8-.001 7.468 1.065 19.201 3.199 30.934z" fill="#415a6b"/><path d="M155.228 172.03c4.267 26.667 17.067 50.133 36.267 68.267l3.2 3.2c8.533 6.4 22.4 7.467 24.533 8.533 2.133 1.067 8.533 0 11.733 0 3.2 0 4.267 2.133 9.6 2.133h27.733c2.133 0 5.333 0 10.667-1.067 13.867-1.067 36.267-3.2 36.267-3.2 1.067-35.2-14.933-40.533-14.933-40.533s-16-2.133-23.467-1.067c-2.133 0-5.333 0-10.667-1.067-12.8-1.067-32-3.2-35.2-4.267-4.267-1.067-5.333 0-7.467 1.067s-1.067 2.133-2.133-2.133c0-4.267-1.067 0-2.133-4.267-1.067-3.2-5.333-13.867-12.8-27.733-6.4-13.867-18.133-30.933-30.933-38.4-2.133-1.067-5.333-2.133-8.533-3.2-6.4 2.133-12.8 5.333-14.933 12.8-.001 7.468 1.065 19.201 3.199 30.934z" fill="#415a6b"/></svg>