<svg height="512" width="512" xmlns="http://www.w3.org/2000/svg"><path d="M373.667 215.56h.167c14.372 0 26.018-11.655 26.018-26.018 0-14.372-11.646-26.028-26.018-26.028-.187 0-.374 0-.561.01H135.025c-.187-.01-.374-.01-.561-.01-14.372 0-26.018 11.655-26.018 26.028 0 14.363 11.646 26.018 26.018 26.018h.167" fill="#f1b986"/><path d="M367.682 95.572a1173.801 1173.801 0 00-227.066 0c-5.873 47.06-7.603 94.121-5.19 141.181 1.757 34.258 29.17 61.525 63.434 63.143 36.859 1.74 73.718 1.74 110.577 0 34.264-1.618 61.677-28.885 63.434-63.143 2.415-47.061.685-94.121-5.189-141.181z" fill="#f1d0a5"/><path d="M140.621 95.564a1175.43 1175.43 0 01113.536-5.499c-19.162 0-38.323 1.852-57.485 5.555a1614.02 1614.02 0 00-2.631 142.532c.802 31.266 12.229 56.762 27.224 62.577-7.464-.203-14.939-.486-22.402-.836-34.258-1.615-61.674-28.884-63.435-63.142-2.406-47.061-.679-94.124 5.193-141.187z" fill="#f1b986"/><path d="M317.191 134.706c-43.504 16.806-105.301 9.395-136.445-21.748 0 0-7.396 50.566-45.712 50.566l-16.709 5.619C73.699-6.028 168.884 40.777 168.884 40.777c8.986-17.415 22.076-24.625 35.752-26.364a58.426 58.426 0 013.62-.334c.097 0 .193-.007.29-.015 9.633-.513 19.385 1.442 28.052 4.229 3.018.974 5.909 2.044 8.615 3.152 10.889 4.452 18.82 9.455 20.485 10.525.216.149.327.223.327.223C275.82 19.229 285.163 7.5 295.435 7.5c4.214 0 7.128 1.613 9.083 4.192 7.411 9.715 1.323 33.076.832 34.912l-.022.082c.007-.015.015-.045.03-.082l.052-.134c1.316-3.315 16.033-38.97 42.427-38.97 1.665 0 3.159.156 4.489.453 19.675 4.348 4.274 38.762 2.579 42.404l-.045.104c-.045.089-.074.156-.089.186.84-1.07 33.79-42.902 48.432-23.711.007.015.007.015.015.022 14.77 19.468-42.545 90.949-86.027 107.748z" fill="#f4dd45"/><path d="M403.204 26.937h-.007c-7.403-7.396-33.046 27.516-48.447 23.733l.112-.208c-.045.089-.074.156-.089.186.838-1.071 33.788-42.903 48.431-23.711zM352.326 7.953c-11.122-2.526-21.431 18.643-27.255 33.671-2.817 7.267-11.542 10.184-18.166 6.077l-1.591-.986.015-.03.022-.082h.007l.052-.134c1.316-3.315 16.033-38.97 42.427-38.97 1.664.001 3.158.157 4.489.454zm-147.693 6.46c-31.827 5.612-43.854 78.58-23.889 98.544 0 0-7.396 50.566-45.712 50.566l-16.709 5.619C73.696-6.028 168.881 40.777 168.881 40.777c8.987-17.415 22.076-24.625 35.752-26.364zm99.885-2.721c-11.186-11.186-18.642 46.18-43.824 55.367s-27.539-2.557-27.539-2.557v-.007c12.398-4.586 22.863-19.08 32.861-32.311l.007.007c.305-.409.609-.81.914-1.212.379-.513.773-1.026 1.16-1.531C277.15 17.624 285.891 7.5 295.435 7.5c4.214 0 7.128 1.613 9.083 4.192zm-95.953 2.379c-.104 0-.208 0-.312.008.097 0 .193-.008.29-.015z" fill="#ecc32e"/><path d="M444.37 280.45v169.04c0 10.82-7.55 20.18-18.12 22.47L276.1 504.5h-19.38V288.42h19.38l140.41-30.43c14.32-3.11 27.86 7.81 27.86 22.46z" fill="#da4a54"/><path d="M256.72 288.42V504.5H235.9L85.75 471.96c-10.57-2.29-18.12-11.65-18.12-22.47V280.45c0-14.65 13.54-25.57 27.86-22.46l140.41 30.43z" fill="#c32430"/><path d="M235.902 504.5V288.419h40.196V504.5" fill="#dd636e"/><path d="M63.504 362.126H55.64c-11.612 0-21.026-9.414-21.026-21.026v-18.874c0-11.612 9.414-21.026 21.026-21.026h7.864c11.612 0 21.026 9.414 21.026 21.026V341.1c0 11.613-9.413 21.026-21.026 21.026z" fill="#f1d0a5"/><path d="M67.545 361.73c-1.3.27-2.66.4-4.04.4h-7.87c-11.61 0-21.02-9.42-21.02-21.03v-18.87c0-11.62 9.41-21.03 21.02-21.03h7.87c1.38 0 2.74.13 4.04.4-9.67 1.88-16.97 10.4-16.97 20.63v18.87c0 10.23 7.3 18.75 16.97 20.63z" fill="#f1b986"/><path d="M456.359 362.126h-7.864c-11.612 0-21.026-9.414-21.026-21.026v-18.874c0-11.612 9.414-21.026 21.026-21.026h7.864c11.612 0 21.026 9.414 21.026 21.026V341.1c0 11.613-9.413 21.026-21.026 21.026z" fill="#f1d0a5"/><path d="M460.4 361.73c-1.3.27-2.66.4-4.04.4h-7.87c-11.61 0-21.02-9.42-21.02-21.03v-18.87c0-11.62 9.41-21.03 21.02-21.03h7.87c1.38 0 2.74.13 4.04.4-9.67 1.88-16.97 10.4-16.97 20.63v18.87c0 10.23 7.3 18.75 16.97 20.63z" fill="#f1b986"/><path d="M285.269 242.415c1.776-3.742.183-8.215-3.56-9.991s-8.215-.182-9.991 3.56c-3.204 6.75-10.1 11.112-17.569 11.112s-14.365-4.362-17.568-11.112a7.501 7.501 0 00-13.552 6.431c5.674 11.956 17.889 19.681 31.12 19.681s25.446-7.726 31.12-19.681z"/><ellipse cx="198.749" cy="195.403" rx="10.833" ry="16.125"/><ellipse cx="309.55" cy="195.403" rx="10.833" ry="16.125"/><path d="M417.18 318.491a7.498 7.498 0 00-8.918-5.741l-83.05 18a7.5 7.5 0 003.177 14.659l83.05-18a7.5 7.5 0 005.741-8.918zm-8.919 22.129l-83.05 18a7.5 7.5 0 003.177 14.659l83.05-18a7.5 7.5 0 005.741-8.918 7.498 7.498 0 00-8.918-5.741z"/><path d="M456.359 293.701h-4.489V280.45c0-9.264-4.139-17.913-11.355-23.73-7.214-5.816-16.542-8.025-25.593-6.059l-39.094 8.472a74.415 74.415 0 004.542-21.999c.253-4.942.45-9.893.612-14.848 15.058-3.285 26.371-16.714 26.371-32.743 0-16.216-11.569-29.777-26.884-32.866a816.436 816.436 0 00-4.659-56.221c17.549-18.725 31.344-39.584 35.675-54.923 2.748-9.732 1.966-17.519-2.325-23.143-3.96-5.19-9.358-7.95-15.612-7.981-7.16-.026-14.983 3.408-23.894 10.491.337-6.427-.79-11.734-3.381-15.855C363.68 4.918 358.375 0 347.831 0c-14.022 0-25.039 7.87-33.088 16.963-.787-3.628-2.126-7.014-4.247-9.802C306.934 2.477 301.724 0 295.43 0c-12.155 0-21.743 10.081-31.284 22.303a145.037 145.037 0 00-16.106-7.809 135.614 135.614 0 00-9.149-3.346c-11.021-3.534-21.362-5.074-30.736-4.578-.067.003-.16.01-.247.018l-.076.004a60.624 60.624 0 00-4.138.378c-16.16 2.055-28.921 10.243-38.019 24.37-16.275-5.701-42.537-7.755-56.848 15.442a7.5 7.5 0 006.376 11.439 7.493 7.493 0 006.39-3.563c13.376-21.681 42.75-7.743 43.977-7.148a7.498 7.498 0 009.975-3.29c6.894-13.358 16.721-20.676 30.025-22.368a46.017 46.017 0 013.036-.279c.155-.006.314-.017.475-.03 7.517-.379 16.003.931 25.197 3.879 2.731.889 5.457 1.886 8.089 2.959a130.054 130.054 0 0112.597 5.989c-7.869 10.294-15.98 19.987-24.42 23.104a7.5 7.5 0 105.196 14.072c13.853-5.116 24.487-19.219 34.772-32.857C278.885 27.584 288.375 15 295.43 15c2.012 0 2.667.639 3.124 1.238 3.695 4.85 1.906 19.86-.464 28.47a7.5 7.5 0 004.896 9.133 7.497 7.497 0 009.346-4.475c.13-.344 13.609-34.366 35.499-34.366 4.467 0 5.427 1.524 5.742 2.024 3.477 5.519-1.276 21.401-5.58 30.392a7.5 7.5 0 0012.676 7.859c.053-.068 5.341-6.831 12.489-13.555 11.792-11.095 18.098-12.312 20.287-12.312h.029c1.31.007 2.451.363 3.76 2.079 1.202 1.576 1.133 5.302-.185 9.969-7.362 26.074-49.533 73.488-82.572 86.253-43.105 16.655-100.719 7.656-128.433-20.058a7.5 7.5 0 00-12.724 4.218c-.017.114-1.733 11.507-7.708 22.883-7.412 14.115-17.704 21.272-30.589 21.272l-.028.001c-.178-.004-.355-.011-.533-.011-3.91 0-7.663.68-11.156 1.917-7.697-32.53-10.691-58.818-8.871-78.2a7.5 7.5 0 10-14.934-1.402c-2.071 22.06 1.467 51.778 10.487 88.34-5.604 5.995-9.044 14.038-9.044 22.874 0 16.032 11.317 29.464 26.38 32.745.163 4.96.36 9.912.614 14.844a74.314 74.314 0 004.213 21.13l-35.071-7.601c-9.052-1.966-18.382.242-25.598 6.059s-11.354 14.466-11.354 23.73v13.251h-4.489c-15.729 0-28.526 12.797-28.526 28.526V341.1c0 15.729 12.797 28.526 28.526 28.526h4.489v79.864c0 14.25 10.107 26.783 24.032 29.8l150.15 32.54.026.004c.207.044.419.076.632.102.048.006.095.017.143.022.248.026.5.039.755.04l.033.002h40.2l.033-.002c.255-.001.507-.014.755-.04.048-.005.095-.016.143-.022.213-.026.424-.058.632-.102l.026-.004 150.149-32.54c13.925-3.017 24.032-15.55 24.032-29.8v-10.228a7.5 7.5 0 00-15 0v10.228c0 7.24-5.134 13.607-12.208 15.14l-141.063 30.571V294.469l134.504-29.15c4.596-.998 9.334.124 13 3.079s5.769 7.348 5.769 12.052v15.737c-9.949 4.46-16.9 14.45-16.9 26.039V341.1c0 11.59 6.951 21.58 16.9 26.039v42.123a7.5 7.5 0 0015 0v-39.636h4.489c15.729 0 28.526-12.797 28.526-28.526v-18.874c-.001-15.729-12.798-28.525-28.527-28.525zm-64.006-104.159c0 7.538-4.534 14.027-11.012 16.914a813.445 813.445 0 00-.268-33.965c6.623 2.825 11.28 9.403 11.28 17.051zm-276.407 0c0-7.64 4.648-14.213 11.262-17.043a812.627 812.627 0 00-.248 33.957c-6.48-2.886-11.014-9.375-11.014-16.914zm26.974 46.821a794.234 794.234 0 01-.635-65.882c15.325-2.324 27.885-12.143 36.609-28.755 2.792-5.316 4.804-10.613 6.224-15.13 15.282 11.391 35.453 19.302 58.117 22.636 26.694 3.927 53.915 1.253 76.649-7.53 13.928-5.381 28.716-15.607 42.313-27.875 4.193 40.738 5.273 81.886 3.193 122.536a59.31 59.31 0 01-7.971 26.76l-82.123 17.798h-38.593l-86.346-18.713a59.23 59.23 0 01-7.437-25.845zm100.482 59.557h25.196V497h-25.196zM42.115 341.1v-18.874c0-7.458 6.068-13.526 13.526-13.526h7.864c7.458 0 13.526 6.068 13.526 13.526V341.1c0 7.458-6.068 13.526-13.526 13.526h-7.864c-7.458 0-13.526-6.067-13.526-13.526zM75.13 449.49v-82.35c9.949-4.46 16.9-14.45 16.9-26.039v-18.874c0-11.59-6.951-21.58-16.9-26.039V280.45c0-4.704 2.103-9.097 5.769-12.052s8.404-4.077 13.003-3.078l134.5 29.149v200.732L87.338 464.63c-7.074-1.533-12.208-7.9-12.208-15.14zM469.885 341.1c0 7.458-6.068 13.526-13.526 13.526h-7.864c-7.458 0-13.526-6.068-13.526-13.526v-18.874c0-7.458 6.068-13.526 13.526-13.526h7.864c7.458 0 13.526 6.068 13.526 13.526z"/></svg>