<svg id="_x33_0" enable-background="new 0 0 64 64" height="512" viewBox="0 0 64 64" width="512" xmlns="http://www.w3.org/2000/svg"><g><g><g><path d="m44 60h-38c-1.105 0-2-.895-2-2v-44h40z" fill="#e6e9ed"/></g><g><path d="m46 4v8c-2.81 0-5.45.72-7.75 2h-34.25v-10c0-1.1.9-2 2-2h38c1.1 0 2 .9 2 2z" fill="#5cd6b3"/></g><g><circle cx="10" cy="8" fill="#e6e9ed" r="2"/></g><g><circle cx="18" cy="8" fill="#e6e9ed" r="2"/></g><g><circle cx="26" cy="8" fill="#e6e9ed" r="2"/></g><g><path d="m2 29v-10c0-.55.45-1 1-1h1 17c.55 0 1 .45 1 1v10c0 .55-.45 1-1 1h-5v2.67c0 .73-.6 1.33-1.33 1.33-.42 0-.82-.2-1.07-.53l-2.6-3.47h-7-1c-.55 0-1-.45-1-1z" fill="#ffeaa7"/></g><g><path d="m26 48h4v6h-4z" fill="#ff826e"/></g><g><path d="m22 47v7h-4v-11z" fill="#ff826e"/></g><g><path d="m14 46v8h-4v-4z" fill="#ff826e"/></g><g><path d="m48 44v17c0 .55-.45 1-1 1h-2c-.55 0-1-.45-1-1v-1-16l.02-.12c.65.08 1.31.12 1.98.12s1.33-.04 1.98-.12z" fill="#969faa"/></g><g><path d="m56.51 15.93-.54 5.39c1.28 1.91 2.03 4.21 2.03 6.68 0 4.45-2.42 8.33-6 10.4-1.21.7-2.56 1.19-4 1.43-.65.11-1.32.17-2 .17s-1.35-.06-2-.17c-1.44-.24-2.79-.73-4-1.43-2.16-1.25-3.9-3.17-4.94-5.46-.68-1.51-1.06-3.18-1.06-4.94 0-6.63 5.37-12 12-12 1.76 0 3.43.38 4.94 1.06l.03-.03-4.97-5.03c-2.81 0-5.45.72-7.75 2-4.92 2.73-8.25 7.97-8.25 14 0 2.88.76 5.58 2.09 7.91 1.6 2.82 4.04 5.1 6.97 6.51 1.53.74 3.2 1.24 4.96 1.46.65.08 1.31.12 1.98.12s1.33-.04 1.98-.12c7.9-.97 14.02-7.71 14.02-15.88 0-4.82-2.13-9.13-5.49-12.07z" fill="#fcd770"/></g><g><path d="m55.97 21.322-.07.678-4.822-4.861c-1.544-.723-3.26-1.139-5.078-1.139-6.627 0-12 5.373-12 12s5.373 12 12 12 12-5.373 12-12c0-2.472-.749-4.769-2.03-6.678z" fill="#69d6f4"/></g><g><path d="m57 11-.49 4.93-.54 5.39-.07.68-4.93-4.97-4.97-5.03z" fill="#ff826e"/></g><g><path d="m52 38.39v.01c-1.21.7-2.56 1.19-4 1.43v-11.83l4-4z" fill="#ff826e"/></g><g><path d="m44 29v10.83c-1.44-.24-2.79-.73-4-1.43v-.01-5.39z" fill="#ff826e"/></g></g><g><path d="m5 21h4v2h-4z"/><path d="m11 21h8v2h-8z"/><path d="m5 25h14v2h-14z"/><path d="m63 28c0-4.736-1.99-9.233-5.45-12.446l.565-5.659-11.115 1.01v-6.905c0-1.654-1.346-3-3-3h-38c-1.654 0-3 1.346-3 3v13c-1.103 0-2 .897-2 2v10c0 1.103.897 2 2 2v27c0 1.654 1.346 3 3 3h37c0 1.103.897 2 2 2h2c1.103 0 2-.897 2-2v-16.281c7.946-1.423 14-8.37 14-16.719zm-12 9.786c-.634.325-1.302.59-2 .788v-10.16l2-2zm-4-10.2v11.363c-.33.03-.662.051-1 .051s-.67-.021-1-.051v-12.363l-6 6v3.893c-1.113-.921-2.039-2.058-2.721-3.344l14.692-14.692 5.106 5.157c.603 1.379.923 2.87.923 4.4 0 3.408-1.559 6.459-4 8.479v-14.893zm-4 10.988c-.698-.198-1.366-.463-2-.788v-4.372l2-2zm-12-10.574c0-8.137 6.516-14.767 14.603-14.98l2.079 2.099c-.555-.071-1.114-.119-1.682-.119-7.168 0-13 5.832-13 13 0 1.657.323 3.236.891 4.695l-1.524 1.524c-.869-1.897-1.367-3.999-1.367-6.219zm4 0c0-6.065 4.935-11 11-11 1.072 0 2.116.163 3.124.462l-13.665 13.665c-.295-.992-.459-2.04-.459-3.127zm20.885-15.895-.769 7.682-6.913-6.983zm-49.885-9.105h38c.552 0 1 .449 1 1v7.051c-2.511.147-4.88.825-6.983 1.949h-33.017v-9c0-.551.448-1 1-1zm-3 16h18l.001 10h-6.001v3.667c0 .288-.428.43-.601.2l-2.899-3.867h-8.5zm3 40c-.552 0-1-.448-1-1v-27h5.5l2.3 3.066c.438.585 1.136.934 1.867.934 1.286 0 2.333-1.047 2.333-2.333v-1.667h4c1.103 0 2-.897 2-2v-10c0-1.103-.897-2-2-2h-16v-2h30.068c-3.705 3.121-6.068 7.788-6.068 13 0 2.779.683 5.397 1.871 7.715l-6.871 6.871-6.964-6.964-10.705 9.635 1.338 1.486 9.295-8.365 7.036 7.036 7.911-7.911c2.523 3.729 6.491 6.392 11.089 7.215v14.282zm41 2h-2v-16.051c.333.02.662.051 1 .051s.667-.031 1-.051zm-1-18c-5.308 0-9.969-2.779-12.636-6.95l1.454-1.454c2.265 3.826 6.423 6.404 11.182 6.404 7.168 0 13-5.832 13-13 0-2.465-.696-4.846-2.002-6.919l.293-2.93c2.368 2.716 3.709 6.201 3.709 9.849 0 8.271-6.729 15-15 15z"/><path d="m10 11c1.654 0 3-1.346 3-3s-1.346-3-3-3-3 1.346-3 3 1.346 3 3 3zm0-4c.552 0 1 .449 1 1s-.448 1-1 1-1-.449-1-1 .448-1 1-1z"/><path d="m18 11c1.654 0 3-1.346 3-3s-1.346-3-3-3-3 1.346-3 3 1.346 3 3 3zm0-4c.552 0 1 .449 1 1s-.448 1-1 1-1-.449-1-1 .448-1 1-1z"/><path d="m26 11c1.654 0 3-1.346 3-3s-1.346-3-3-3-3 1.346-3 3 1.346 3 3 3zm0-4c.552 0 1 .449 1 1s-.448 1-1 1-1-.449-1-1 .448-1 1-1z"/><path d="m39 53v-8h-2v8h-2v-10h-2v10h-2v-6h-6v6h-2v-6.414l-6-6v12.414h-2v-9.414l-6 6v3.414h-2v2h34v-2zm-12-4h2v4h-2zm-8-3.586 2 2v5.586h-2zm-8 5 2-2v4.586h-2z"/></g></g></svg>