<svg id="Layer_3" enable-background="new 0 0 64 64" height="512" viewBox="0 0 64 64" width="512" xmlns="http://www.w3.org/2000/svg"><g><path d="m54 62h-44c-1.105 0-2-.895-2-2v-56c0-1.105.895-2 2-2h44c1.105 0 2 .895 2 2v56c0 1.105-.895 2-2 2z" fill="#758190"/><path d="m8 4v28.681c12.36-1.278 22-11.723 22-24.421 0-2.164-.283-4.261-.808-6.26h-19.192c-1.105 0-2 .895-2 2z" fill="#8892a0"/><path d="m48 10h4v48h-40v-48h4" fill="#c7e2fc"/><path d="m29.931 10h-13.931-4v21.922c9.839-2.72 17.194-11.406 17.931-21.922z" fill="#ebf7fe"/><path d="m20 6h24v8h-24z" fill="#f2c351"/><path d="m20 14h9.318c.441-1.842.682-3.763.682-5.74 0-.762-.04-1.515-.108-2.26h-9.892z" fill="#f7d881"/><path d="m44 7h2c1.105 0 2 .895 2 2v4h-4" fill="#243242"/><path d="m20 7h-2c-1.105 0-2 .895-2 2v4h4" fill="#4d5d7a"/><g><path d="m14.999 17h27.999v2h-27.999z" fill="#8892a0"/></g><g><path d="m44.999 17h3.999v2h-3.999z" fill="#8892a0"/></g><g><path d="m14.999 21h27.999v2h-27.999z" fill="#8892a0"/></g><g><path d="m44.999 21h3.999v2h-3.999z" fill="#8892a0"/></g><g><path d="m20.999 25h28.001v2h-28.001z" fill="#8892a0"/></g><g><path d="m14.999 25h3.999v2h-3.999z" fill="#ebf7fe"/></g><g><path d="m20.999 29h28.001v2h-28.001z" fill="#8892a0"/></g><g><path d="m14.999 29h3.999v2h-3.999z" fill="#8892a0"/></g><g><path d="m32.999 51h15.999v2h-15.999z" fill="#8892a0"/></g><g><path d="m32.999 47h15.999v2h-15.999z" fill="#8892a0"/></g><g><path d="m32.999 43h15.999v2h-15.999z" fill="#8892a0"/></g><g><path d="m22.999 8h1.999v4h-1.999z" fill="#ebf7fe"/></g><g><path d="m26.999 8h1.999v4h-1.999z" fill="#ebf7fe"/></g><g><path d="m30.999 8h1.999v4h-1.999z" fill="#ebf7fe"/></g><g><path d="m34.999 8h1.999v4h-1.999z" fill="#ebf7fe"/></g><g><path d="m38.999 8h1.999v4h-1.999z" fill="#ebf7fe"/></g><g><path d="m19.999 55.999c-2.758 0-5-2.243-5-5s2.242-5 5-5c2.757 0 4.999 2.243 4.999 5s-2.242 5-4.999 5zm0-7.999c-1.654 0-3 1.346-3 3s1.346 3 3 3c1.653 0 2.999-1.346 2.999-3 0-1.655-1.346-3-2.999-3z" fill="#243242"/></g><g><path d="m19.999 53c-.257 0-.513-.099-.708-.293l-2-2 1.415-1.415 1.338 1.339 7.296-6.384 1.317 1.505-8 7c-.189.165-.424.248-.658.248z" fill="#669e4f"/></g><g><path d="m19.999 44.999c-2.758 0-5-2.243-5-5s2.242-5 5-5c2.757 0 4.999 2.243 4.999 5s-2.242 5-4.999 5zm0-7.999c-1.654 0-3 1.346-3 3s1.346 3 3 3c1.653 0 2.999-1.346 2.999-3 0-1.655-1.346-3-2.999-3z" fill="#243242"/></g><g><path d="m19.999 42c-.257 0-.513-.099-.708-.293l-2-2 1.415-1.415 1.338 1.339 7.296-6.384 1.317 1.505-8 7c-.189.165-.424.248-.658.248z" fill="#669e4f"/></g><g><path d="m32.999 39h3.999v2h-3.999z" fill="#8892a0"/></g><g><path d="m39 39h3.999v2h-3.999z" fill="#8892a0"/></g><g><path d="m45 39h3.999v2h-3.999z" fill="#8892a0"/></g><g fill="#a8b0bc"><path d="m28.392 17h-13.393v2h12.531c.317-.651.603-1.319.862-2z"/><path d="m20.999 25v2h.305c.738-.625 1.438-1.293 2.097-2z"/><path d="m26.44 21h-11.441v2h10.084c.484-.644.937-1.311 1.357-2z"/><path d="m14.999 29v1.886c1.252-.529 2.447-1.165 3.583-1.886z"/></g></g></svg>