<svg height="512" viewBox="0 0 510 510" width="512" xmlns="http://www.w3.org/2000/svg" xmlns:xlink="http://www.w3.org/1999/xlink"><linearGradient id="a"><stop offset="0" stop-color="#ff7044"/><stop offset="1" stop-color="#f92814"/></linearGradient><linearGradient id="g" gradientUnits="userSpaceOnUse" x1="151.593" x2="475.819" xlink:href="#a" y1="305.766" y2="638.377"/><linearGradient id="b"><stop offset="0" stop-color="#f92814" stop-opacity="0"/><stop offset="1" stop-color="#c1272d"/></linearGradient><linearGradient id="h" gradientUnits="userSpaceOnUse" x1="244.764" x2="266.599" xlink:href="#b" y1="406.652" y2="570.412"/><linearGradient id="c"><stop offset="0" stop-color="#f9f7fc"/><stop offset="1" stop-color="#f0ddfc"/></linearGradient><linearGradient id="i" gradientUnits="userSpaceOnUse" x1="239.098" x2="261.599" xlink:href="#c" y1="304.438" y2="428.899"/><linearGradient id="d"><stop offset="0" stop-color="#f0ddfc" stop-opacity="0"/><stop offset=".289" stop-color="#c8b7e0" stop-opacity=".289"/><stop offset=".592" stop-color="#a595c8" stop-opacity=".592"/><stop offset=".84" stop-color="#8f81b8" stop-opacity=".84"/><stop offset="1" stop-color="#8779b3"/></linearGradient><linearGradient id="j" gradientUnits="userSpaceOnUse" x1="264.834" x2="282.082" xlink:href="#d" y1="440.42" y2="540.644"/><linearGradient id="k" gradientUnits="userSpaceOnUse" x1="249.05" x2="242.883" xlink:href="#d" y1="441.338" y2="508.739"/><linearGradient id="l" gradientUnits="userSpaceOnUse" x1="110.754" x2="197.428" xlink:href="#c" y1="338.521" y2="425.195"/><linearGradient id="m" gradientUnits="userSpaceOnUse" x1="331.598" x2="413.866" xlink:href="#c" y1="314.701" y2="420.475"/><linearGradient id="n" gradientUnits="userSpaceOnUse" x1="135.869" x2="56.147" y1="367.495" y2="293.739"><stop offset="0" stop-color="#e9edf5" stop-opacity="0"/><stop offset="1" stop-color="#fff"/></linearGradient><linearGradient id="o" gradientUnits="userSpaceOnUse" x1="401.132" x2="261.799" y1="354.438" y2="211.105"><stop offset="0" stop-color="#f0ddfc" stop-opacity="0"/><stop offset=".161" stop-color="#e8d5f6" stop-opacity=".161"/><stop offset=".417" stop-color="#d1bfe6" stop-opacity=".417"/><stop offset=".733" stop-color="#ac9ccd" stop-opacity=".733"/><stop offset="1" stop-color="#8779b3"/></linearGradient><linearGradient id="p" gradientTransform="rotate(45 1319.38 887.237)" gradientUnits="userSpaceOnUse" x1="97.177" x2="148.993" xlink:href="#a" y1="878.038" y2="878.038"/><linearGradient id="q" gradientTransform="rotate(45 1319.38 887.237)" gradientUnits="userSpaceOnUse" x1="125.983" x2="91.532" y1="887.223" y2="846.073"><stop offset="0" stop-color="#ff7044" stop-opacity="0"/><stop offset="1" stop-color="#ffa425"/></linearGradient><linearGradient id="r" gradientTransform="rotate(45 1319.38 887.237)" gradientUnits="userSpaceOnUse" x1="138.822" x2="149.987" xlink:href="#b" y1="850.466" y2="890.34"/><linearGradient id="s" gradientTransform="rotate(45 1319.38 887.237)" gradientUnits="userSpaceOnUse" x1="94.769" x2="151.983" xlink:href="#c" y1="912.634" y2="912.634"/><linearGradient id="t" gradientTransform="rotate(45 1319.38 887.237)" gradientUnits="userSpaceOnUse" x1="124.377" x2="114.807" xlink:href="#d" y1="934.048" y2="886.837"/><linearGradient id="u" gradientTransform="rotate(45 1319.38 887.237)" gradientUnits="userSpaceOnUse" x1="120.088" x2="120.582" xlink:href="#c" y1="902.843" y2="914.47"/><linearGradient id="v" gradientTransform="rotate(45 1319.38 887.237)" gradientUnits="userSpaceOnUse" x1="81.544" x2="159.033" y1="1222.849" y2="1222.849"><stop offset="0" stop-color="#ffdaaa"/><stop offset=".421" stop-color="#ffd8a8"/><stop offset=".652" stop-color="#fed1a0"/><stop offset=".836" stop-color="#fdc592"/><stop offset=".995" stop-color="#fcb47f"/><stop offset="1" stop-color="#fcb37e"/></linearGradient><linearGradient id="w" gradientTransform="rotate(45 1319.38 887.237)" gradientUnits="userSpaceOnUse" x1="135.216" x2="74.609" y1="1225.783" y2="1216.214"><stop offset="0" stop-color="#ffdaaa" stop-opacity="0"/><stop offset=".251" stop-color="#ffe7c8" stop-opacity=".251"/><stop offset=".554" stop-color="#fff4e6" stop-opacity=".554"/><stop offset=".815" stop-color="#fffcf8" stop-opacity=".815"/><stop offset="1" stop-color="#fff"/></linearGradient><linearGradient id="e"><stop offset="0" stop-color="#ffda45"/><stop offset="1" stop-color="#ffa425"/></linearGradient><linearGradient id="x" gradientTransform="rotate(45 1319.38 887.237)" gradientUnits="userSpaceOnUse" x1="81.544" x2="159.033" xlink:href="#e" y1="1068.962" y2="1068.962"/><linearGradient id="y" gradientTransform="rotate(45 1319.38 887.237)" gradientUnits="userSpaceOnUse" x1="101.039" x2="162.61" xlink:href="#e" y1="1068.29" y2="1068.29"/><linearGradient id="z" gradientUnits="userSpaceOnUse" x1="355.989" x2="311.07" y1="184.682" y2="108.807"><stop offset="0" stop-color="#ffda45" stop-opacity="0"/><stop offset="1" stop-color="#fcee21"/></linearGradient><linearGradient id="A" gradientTransform="rotate(45 1319.38 887.237)" gradientUnits="userSpaceOnUse" x1="117.949" x2="137.721" y1="1258.64" y2="1258.64"><stop offset="0" stop-color="#7e8595"/><stop offset="1" stop-color="#555a66"/></linearGradient><linearGradient id="B" gradientTransform="rotate(45 1319.38 887.237)" gradientUnits="userSpaceOnUse" x1="145.283" x2="95.202" y1="993.862" y2="886.682"><stop offset="0" stop-color="#ffda45" stop-opacity="0"/><stop offset="1" stop-color="#b53759"/></linearGradient><linearGradient id="C" gradientTransform="rotate(45 1319.38 887.237)" gradientUnits="userSpaceOnUse" x1="120.088" x2="120.582" xlink:href="#c" y1="929.348" y2="940.975"/><linearGradient id="f"><stop offset="0" stop-color="#92f37f"/><stop offset="1" stop-color="#4ab272"/></linearGradient><linearGradient id="D" gradientUnits="userSpaceOnUse" x1="20.521" x2="20.521" xlink:href="#f" y1="211.919" y2="232.608"/><linearGradient id="E" gradientTransform="rotate(90 615.218 0)" gradientUnits="userSpaceOnUse" x1="639.118" x2="639.118" xlink:href="#f" y1="-406.677" y2="-385.989"/><linearGradient id="F" gradientTransform="rotate(45 255.072 -360.342)" gradientUnits="userSpaceOnUse" x1="439.736" x2="439.736" xlink:href="#f" y1="74.924" y2="95.613"/><linearGradient id="G" gradientTransform="scale(-1 1) rotate(45 .118 -976.04)" gradientUnits="userSpaceOnUse" x1="502.13" x2="502.13" xlink:href="#f" y1="12.531" y2="33.219"/><path d="M510 330.598v163.678c0 7.732-8.27 13.019-15.897 10.177-36.682-13.651-74.137-20.47-111.603-20.47-39.824 0-79.637 7.71-118.507 23.141-2.864 1.137-5.91 1.751-8.992 1.751-3.084 0-6.131-.614-8.997-1.751-75.432-29.934-154.448-30.825-230.108-2.67C8.27 507.294 0 502.007 0 494.276V330.598c0-5.568 3.497-10.633 8.948-12.797 38.893-15.441 78.711-23.149 118.54-23.149 42.894 0 85.799 8.948 127.512 26.845 80.465-34.519 165.294-35.747 246.052-3.696 5.451 2.164 8.948 7.229 8.948 12.797z" fill="url(#g)"/><path d="M494.103 482.035c-36.682-13.651-74.137-20.47-111.603-20.47-39.824 0-79.637 7.71-118.507 23.141-2.864 1.137-5.91 1.751-8.992 1.751-3.084 0-6.131-.614-8.997-1.751-75.432-29.934-154.448-30.824-230.108-2.67C8.27 484.878 0 479.59 0 471.859v22.417c0 7.732 8.27 13.019 15.897 10.177 75.66-28.154 154.675-27.264 230.108 2.671 2.866 1.137 5.914 1.751 8.997 1.751 3.082 0 6.128-.614 8.992-1.751 38.869-15.431 78.683-23.141 118.507-23.141 37.466 0 74.921 6.819 111.603 20.47 7.627 2.842 15.897-2.445 15.897-10.177v-22.417c-.001 7.731-8.271 13.019-15.898 10.176z" fill="url(#h)"/><path d="M495.367 324.755v135.53c0 7.732-7.79 13.019-14.984 10.177-34.577-13.651-69.879-20.47-105.193-20.47-34.058 0-68.106 6.343-101.499 19.048-5.975 2.273-12.297 3.504-18.69 3.504-6.401 0-12.728-1.236-18.711-3.511-68-25.857-138.765-25.378-206.672 1.428-7.194 2.842-14.984-2.445-14.984-10.177v-135.53c0-5.568 3.299-10.633 8.434-12.797 36.659-15.441 74.207-23.149 111.744-23.149 40.437 0 80.863 8.948 120.189 26.845 75.845-34.519 155.807-35.747 231.933-3.696 5.134 2.165 8.433 7.23 8.433 12.798z" fill="url(#i)"/><path d="M495.367 324.755v135.53c0 7.732-7.79 13.019-14.984 10.177-34.577-13.651-69.879-20.47-105.193-20.47-34.058 0-68.106 6.343-101.499 19.048-5.975 2.273-12.297 3.504-18.69 3.504-6.401 0-12.728-1.236-18.711-3.511-68-25.857-138.765-25.378-206.672 1.428-7.194 2.842-14.984-2.445-14.984-10.177v-135.53c0-5.568 3.299-10.633 8.434-12.797 36.659-15.441 74.207-23.149 111.744-23.149 40.437 0 80.863 8.948 120.189 26.845 75.845-34.519 155.807-35.747 231.933-3.696 5.134 2.165 8.433 7.23 8.433 12.798z" fill="url(#i)"/><path d="M495.367 315.631v135.53c0 7.732-7.79 13.019-14.984 10.177-34.577-13.651-69.879-20.47-105.193-20.47-34.058 0-68.106 6.343-101.499 19.048-5.975 2.273-12.297 3.504-18.69 3.504-6.401 0-12.728-1.236-18.711-3.511-68-25.857-138.765-25.378-206.672 1.428-7.194 2.842-14.984-2.445-14.984-10.177V315.63c0-5.568 3.299-10.633 8.434-12.797 36.659-15.441 74.207-23.149 111.744-23.149 40.437 0 80.863 8.948 120.189 26.845 75.845-34.519 155.807-35.747 231.933-3.696 5.134 2.165 8.433 7.23 8.433 12.798z" fill="url(#j)"/><path d="M14.633 308.613v135.53c0 7.732 7.79 13.019 14.984 10.176 34.577-13.651 69.879-20.47 105.193-20.47 34.058 0 68.106 6.343 101.499 19.048 5.975 2.273 12.297 3.504 18.69 3.504 6.401 0 12.728-1.236 18.711-3.511 68-25.857 138.765-25.378 206.672 1.428 7.194 2.842 14.984-2.445 14.984-10.176v-135.53c0-5.568-3.299-10.633-8.434-12.797-36.659-15.441-74.207-23.149-111.744-23.149-40.437 0-80.863 8.948-120.189 26.845-75.845-34.519-155.807-35.747-231.933-3.696-5.134 2.165-8.433 7.23-8.433 12.798z" fill="url(#k)"/><path d="M23.063 284.306c-5.13 2.16-8.429 7.229-8.429 12.795v135.527c0 7.735 7.795 13.022 14.989 10.181 74.16-29.288 151.719-27.16 225.377 6.37v-161.18c-75.837-34.517-155.798-35.755-231.937-3.693z" fill="url(#l)"/><path d="M486.937 284.307C410.806 252.251 330.846 253.475 255 288v161.18c73.667-33.535 151.226-35.653 225.377-6.369 7.194 2.841 14.989-2.446 14.989-10.181V297.103c.001-5.568-3.299-10.636-8.429-12.796z" fill="url(#m)"/><path d="M38.23 305.947c-4.795 2.019-7.878 6.756-7.878 11.958V433.71c0 7.229 7.285 12.171 14.009 9.515 69.31-27.372 141.797-25.384 210.639 5.953v-139.78c-70.878-32.259-145.609-33.417-216.77-3.451z" fill="url(#n)"/><path d="M50.776 310.205c21.179-7.505 42.586-12.176 64.078-14.01 1.997-.171 3.707 1.426 3.707 3.43v8.17a3.437 3.437 0 01-3.151 3.418c-20.902 1.843-41.718 6.548-62.316 14.106-2.236.82-4.603-.844-4.603-3.226v-8.64a3.445 3.445 0 012.285-3.248zm120.974-9.218v8.196c0 2.078-1.833 3.693-3.89 3.403a230.754 230.754 0 00-36.514-2.223c-1.932.036-3.525-1.501-3.525-3.433v-8.126c0-1.866 1.49-3.407 3.356-3.442a245.31 245.31 0 0137.612 2.214 3.439 3.439 0 012.961 3.411zm42.25 9.504v8.535c0 2.326-2.268 3.992-4.479 3.27a246.839 246.839 0 00-25.784-6.92 3.431 3.431 0 01-2.737-3.355v-8.313c0-2.162 1.976-3.804 4.094-3.372a261.919 261.919 0 0126.51 6.872 3.442 3.442 0 012.396 3.283zM50.775 341.797a268.925 268.925 0 0117.212-5.454c2.199-.616 4.383 1.021 4.383 3.305v8.46a3.43 3.43 0 01-2.489 3.294 252.145 252.145 0 00-16.791 5.5c-2.234.819-4.599-.848-4.599-3.227v-8.632a3.44 3.44 0 012.284-3.246zm98.095-11.241v8.13c0 1.945-1.613 3.514-3.556 3.432a232.17 232.17 0 00-13.454-.172c-15.372.257-30.77 2.068-46.062 5.41-2.145.469-4.168-1.19-4.168-3.386v-8.277a3.44 3.44 0 012.716-3.367c15.687-3.314 31.475-5.116 47.264-5.381 4.658-.081 9.323-.024 13.984.17 1.834.078 3.276 1.605 3.276 3.441zM214 342.081v8.528c0 2.327-2.269 3.99-4.481 3.268-15.96-5.208-32.116-8.732-48.319-10.54a3.436 3.436 0 01-3.07-3.41v-8.176c0-2.033 1.757-3.637 3.778-3.42 16.662 1.789 33.275 5.292 49.696 10.466a3.445 3.445 0 012.396 3.284zM50.776 373.385c21.097-7.471 42.559-12.156 64.081-13.991 1.996-.17 3.703 1.424 3.703 3.427v8.163a3.437 3.437 0 01-3.152 3.418c-20.92 1.844-41.792 6.561-62.316 14.087-2.235.82-4.602-.845-4.602-3.226v-8.631c0-1.454.915-2.761 2.286-3.247zm163.224.277v8.537c0 2.326-2.268 3.991-4.479 3.27-25.597-8.354-51.678-12.357-77.661-11.932l-.531.009a3.436 3.436 0 01-3.509-3.432v-8.133a3.434 3.434 0 013.366-3.436l.424-.007c26.787-.446 53.641 3.534 79.993 11.842a3.44 3.44 0 012.397 3.282zM50.775 404.967a271.205 271.205 0 0117.211-5.45c2.199-.617 4.384 1.021 4.384 3.305v8.459a3.428 3.428 0 01-2.486 3.293 254.662 254.662 0 00-16.794 5.508c-2.234.819-4.599-.848-4.599-3.227v-8.641a3.44 3.44 0 012.284-3.247zm120.975-9.213v8.198c0 2.099-1.863 3.689-3.941 3.398a231.027 231.027 0 00-35.949-2.223c-15.372.257-30.77 2.059-46.062 5.408-2.145.47-4.168-1.189-4.168-3.385v-8.277c0-1.62 1.13-3.032 2.715-3.367 15.688-3.322 31.476-5.115 47.265-5.38a245.62 245.62 0 0137.181 2.219 3.437 3.437 0 012.959 3.409z" fill="#bec3d2"/><path d="M480.378 442.81c7.194 2.841 14.989-2.446 14.989-10.181V297.102c0-5.567-3.299-10.635-8.43-12.795C410.806 252.251 330.846 253.475 255 288c-14.121-6.427-28.385-11.697-42.741-15.816l-11.553 32.317c-1.087 3.04 1.151 5.986 4.036 6.18L321.661 427.6c52.901-10.409 106.648-5.352 158.717 15.21z" fill="url(#o)"/><path d="M490.469 70.28l-49.622-49.622 17.295-17.295a7.632 7.632 0 019.52-1.026 136.428 136.428 0 0141.129 41.129 7.634 7.634 0 01-1.026 9.52z" fill="url(#p)"/><path d="M490.469 70.28l17.295-17.295a7.65 7.65 0 001.06-1.338 7.614 7.614 0 00-.933-2.112 136.43 136.43 0 00-41.13-41.129 7.634 7.634 0 00-9.52 1.026l-13.81 13.81z" fill="url(#q)"/><path d="M508.791 43.465a136.53 136.53 0 00-5.681-8.163 9.32 9.32 0 01-2.099 3.227l-21.146 21.146L490.47 70.28l17.295-17.295a7.634 7.634 0 001.026-9.52z" fill="url(#r)"/><path d="M465.349 100.57l29.211-29.211a2.912 2.912 0 000-4.119l-50.673-50.673a2.912 2.912 0 00-4.119 0l-29.211 29.211z" fill="url(#s)"/><path d="M425.269 31.028v109.621l54.875-54.838-54.828-54.829z" fill="url(#t)"/><path d="M478.388 84.575l-51.836-51.836a6.65 6.65 0 019.403-9.403l51.836 51.836a6.65 6.65 0 01-9.403 9.403z" fill="url(#u)"/><path d="M227.898 228.436l-27.192 76.065c-1.316 3.68 2.239 7.235 5.919 5.919l76.065-27.192c15.176-15.175-39.616-69.968-54.792-54.792z" fill="url(#v)"/><path d="M241.16 241.036l-40.017 66.869c-.065.108-.112.215-.167.322 1.015 1.889 3.303 3.031 5.648 2.193l76.065-27.192c.117-.117.218-.244.327-.366 4.515-17.735-27.029-53.681-41.856-41.826z" fill="url(#w)"/><path d="M469.979 95.939L282.69 283.228a16.977 16.977 0 00-2.707-3.519c-6.704-6.704-17.575-6.704-24.279 0-.302.302.866-.938.866-.938 5.824-6.744 5.535-16.939-.871-23.345s-16.601-6.695-23.345-.871c0 0-1.24 1.168-.938.866 6.704-6.704 6.704-17.575 0-24.279a17.012 17.012 0 00-3.519-2.707l187.29-187.288z" fill="url(#x)"/><path d="M454.691 80.651l-198.12 198.12c5.824-6.744 5.535-16.939-.871-23.345s-16.601-6.695-23.345-.871l198.12-198.12z" fill="url(#y)"/><path d="M231.417 255.422c-.302.302.938-.866.938-.866 6.744-5.824 16.939-5.535 23.345.871s6.694 16.601.871 23.345c0 0-1.168 1.24-.866.938 6.704-6.704 17.575-6.704 24.279 0a17.012 17.012 0 012.707 3.519l187.288-187.29-48.275-48.275-187.37 187.37c3.573 6.519 2.604 14.866-2.917 20.388z" fill="url(#z)"/><path d="M216.061 295.066a38.148 38.148 0 00-9.499-6.943l-5.855 16.378c-1.316 3.68 2.239 7.235 5.919 5.919l16.378-5.855a38.136 38.136 0 00-6.943-9.499z" fill="url(#A)"/><path d="M406.537 49.76l.129 109.529 54.746-54.746-54.828-54.829z" fill="url(#B)"/><path d="M459.646 103.317L407.81 51.481a6.648 6.648 0 010-9.403 6.648 6.648 0 019.403 0l51.836 51.836a6.65 6.65 0 01-9.403 9.403z" fill="url(#C)"/><path d="M30.988 224.315H10.054C4.501 224.315 0 219.814 0 214.261s4.501-10.054 10.054-10.054h20.934c5.553 0 10.054 4.502 10.054 10.054.001 5.553-4.501 10.054-10.054 10.054z" fill="url(#D)"/><path d="M220.936 34.367V13.433c0-5.553-4.502-10.054-10.054-10.054-5.553 0-10.054 4.502-10.054 10.054v20.934c0 5.553 4.501 10.054 10.054 10.054 5.552.001 10.054-4.501 10.054-10.054z" fill="url(#E)"/><path d="M76.568 94.166L61.766 79.364c-3.926-3.926-3.926-10.292 0-14.219 3.926-3.926 10.292-3.926 14.219 0l14.803 14.803c3.926 3.926 3.926 10.292 0 14.219-3.927 3.926-10.293 3.926-14.22-.001z" fill="url(#F)"/><path d="M345.195 94.166l14.803-14.803c3.926-3.926 3.926-10.292 0-14.219-3.926-3.926-10.293-3.926-14.219 0l-14.803 14.803c-3.926 3.926-3.926 10.292 0 14.219 3.926 3.927 10.292 3.927 14.219 0z" fill="url(#G)"/></svg>