<svg height="512" viewBox="0 0 58 59" width="512" xmlns="http://www.w3.org/2000/svg"><g fill="none"><path d="M38.51 21H4a4 4 0 00-4 4v30a4 4 0 004 4h46a4 4 0 004-4V36.49z" fill="#2fa8cc"/><path d="M15 46h39v7H0v-7h7z" fill="#35495e"/><circle cx="8" cy="29" fill="#ecf0f1" r="3"/><circle cx="14" cy="29" fill="#e64c3c" r="3"/><circle cx="47" cy="28" fill="#f0c419" r="11"/><circle cx="26" cy="17" fill="#f0c419" r="8"/><path d="M42 15a1 1 0 01-1-1V8a1 1 0 012 0v6a1 1 0 01-1 1zm0-10a1 1 0 01-1-1V2a1 1 0 012 0v2a1 1 0 01-1 1zm6 9a1 1 0 01-1-1V1a1 1 0 012 0v12a1 1 0 01-1 1zm5 1a1 1 0 01-1-1v-2a1 1 0 012 0v2a1 1 0 01-1 1zm0-6a1 1 0 01-1-1V7a1 1 0 012 0v1a1 1 0 01-1 1zM20 4a1 1 0 01-1-1V1a1 1 0 012 0v2a1 1 0 01-1 1zm0 4a1 1 0 01-1-1V6a1 1 0 012 0v1a1 1 0 01-1 1zm6-2a1 1 0 01-1-1V1a1 1 0 012 0v4a1 1 0 01-1 1zm5 2a1 1 0 01-1-1V5a1 1 0 012 0v2a1 1 0 01-1 1z" fill="#f3d55b"/><path d="M8 41H6a1 1 0 010-2h2a1 1 0 010 2zm12 0h-8a1 1 0 010-2h8a1 1 0 010 2z" fill="#547580"/><path d="M47 27a1.993 1.993 0 01-.949-3.749.976.976 0 001.9 0A1.991 1.991 0 0149 25a1 1 0 002 0 4 4 0 00-3-3.858V20a1 1 0 00-2 0v1.142A3.992 3.992 0 0047 29a1.993 1.993 0 01.949 3.749.976.976 0 00-1.9 0A1.991 1.991 0 0145 31a1 1 0 00-2 0 4 4 0 003 3.858V36a1 1 0 002 0v-1.142A3.992 3.992 0 0047 27zm-18-8a3 3 0 00-3-3 1 1 0 11.9-1.446 1 1 0 101.788-.9A2.986 2.986 0 0027 12.177V12a1 1 0 00-2 0v.184A2.993 2.993 0 0026 18a1 1 0 11-.9 1.446 1 1 0 10-1.788.9c.35.693.955 1.223 1.688 1.477V22a1 1 0 002 0v-.184A3 3 0 0029 19z" fill="#e57e25"/></g></svg>