<svg height="512" width="512" xmlns="http://www.w3.org/2000/svg"><path d="M430.372 184.005L256 32.452 79.904 185.359l-5.565 14.757v304.272h363.322V200.116z" fill="#90d8f9"/><path d="M115.61 241.716c0-19.907 8.815-38.174 23.045-50.53l150.061-130.3L256 32.452 79.904 185.359l-5.565 14.758v304.272h41.271z" fill="#75cef9"/><path d="M434.347 24.756h-43.386l-4.336 3.394v80.187l2.053 6.488 45.415 40.595 3.568-2.479V28.15z" fill="#ffe07d"/><path d="M412.144 24.756h-21.183l-4.336 3.394v80.187l2.053 6.488 23.466 20.975z" fill="#ffd064"/><path d="M447.29 0h-70.292a6.125 6.125 0 00-6.125 6.125v15.899a6.125 6.125 0 006.125 6.125h70.292a6.125 6.125 0 006.125-6.125V6.126A6.126 6.126 0 00447.29 0z" fill="#fff0af"/><path d="M407.407 22.025V6.126a6.125 6.125 0 016.125-6.125h-36.535a6.125 6.125 0 00-6.125 6.125v15.899a6.125 6.125 0 006.125 6.125h36.535a6.125 6.125 0 01-6.125-6.125z" fill="#ffe07d"/><path d="M479.989 189.935L267.688 4.388c-6.694-5.85-16.682-5.85-23.376 0L32.011 189.935c-7.386 6.455-8.14 17.675-1.685 25.06 6.456 7.386 17.676 8.139 25.061 1.685L253.191 43.803a4.27 4.27 0 015.619 0L456.613 216.68c7.386 6.454 18.604 5.701 25.061-1.685 6.454-7.386 5.7-18.606-1.685-25.06z" fill="#dd636e"/><path d="M47.234 200.083L259.535 14.536c4.277-3.738 9.897-5.075 15.146-4.036l-6.994-6.113c-6.694-5.85-16.682-5.85-23.376 0l-212.3 185.547c-7.386 6.455-8.14 17.675-1.685 25.06 3.314 3.792 7.885 5.822 12.547 6.04-3.308-6.997-1.755-15.605 4.361-20.951z" fill="#da4a54"/><path d="M330.762 255.234a7.612 7.612 0 01-7.612-7.612v-43.977c0-2.476-2.091-4.567-4.567-4.567h-17.337a7.612 7.612 0 110-15.224h17.337c10.912 0 19.79 8.878 19.79 19.79v43.977a7.61 7.61 0 01-7.611 7.613zm-149.524 0a7.612 7.612 0 01-7.612-7.612v-43.977c0-10.912 8.878-19.79 19.79-19.79h17.338a7.612 7.612 0 110 15.224h-17.338c-2.476 0-4.567 2.091-4.567 4.567v43.977a7.61 7.61 0 01-7.611 7.611z" fill="#e4f6ff"/><path d="M459.481 512H52.519a7.612 7.612 0 110-15.224h406.962a7.612 7.612 0 110 15.224z" fill="#b3e59f"/><path d="M206.694 184.617v13.701a8.626 8.626 0 008.626 8.626h81.359a8.626 8.626 0 008.626-8.626v-13.701a8.626 8.626 0 00-8.626-8.626H215.32a8.626 8.626 0 00-8.626 8.626z" fill="#bc7f7f"/><path d="M247.543 198.317v-13.701a8.626 8.626 0 018.626-8.626h-40.848a8.626 8.626 0 00-8.626 8.626v13.701a8.626 8.626 0 008.626 8.626h40.848a8.625 8.625 0 01-8.626-8.626zM127.112 334.225v83.896c0 6.698 5.48 12.178 12.178 12.178h233.42c6.698 0 12.178-5.48 12.178-12.178v-83.896z" fill="#b06c6c"/><path d="M167.96 418.121v-83.896h-40.848v83.896c0 6.698 5.48 12.178 12.178 12.178h40.848c-6.697 0-12.178-5.48-12.178-12.178z" fill="#9d5e5e"/><path d="M372.71 241.534H139.29c-6.698 0-12.178 5.48-12.178 12.178v82.543c0 6.698 5.48 12.178 12.178 12.178h233.42c6.698 0 12.178-5.48 12.178-12.178v-82.543c0-6.698-5.48-12.178-12.178-12.178z" fill="#bc7f7f"/><path d="M167.96 336.255v-82.543c0-6.698 5.48-12.178 12.178-12.178H139.29c-6.698 0-12.178 5.48-12.178 12.178v82.543c0 6.698 5.48 12.178 12.178 12.178h40.848c-6.698 0-12.178-5.48-12.178-12.178zm162.802-92.012v-2.71H181.238v2.71c0 14.708 11.925 26.637 26.637 26.637h96.249c14.708.001 26.638-11.925 26.638-26.637z" fill="#b06c6c"/><path d="M222.086 244.243v-2.71h-40.848v2.71c0 14.708 11.925 26.637 26.638 26.637h40.848c-14.712.001-26.638-11.929-26.638-26.637z" fill="#9d5e5e"/><path d="M188.088 320.524h-13.701a8.626 8.626 0 00-8.626 8.626v38.565a8.626 8.626 0 008.626 8.626h13.701a8.626 8.626 0 008.626-8.626V329.15a8.625 8.625 0 00-8.626-8.626zm149.524 0h-13.701a8.626 8.626 0 00-8.626 8.626v38.565a8.626 8.626 0 008.626 8.626h13.701a8.626 8.626 0 008.626-8.626V329.15a8.626 8.626 0 00-8.626-8.626z" fill="#e4f6ff"/><path d="M181.238 367.716v-38.565a8.628 8.628 0 017.738-8.581 8.684 8.684 0 00-.888-.045h-13.701a8.626 8.626 0 00-8.626 8.626v38.565a8.626 8.626 0 008.626 8.626h13.701c.3 0 .596-.016.888-.045a8.628 8.628 0 01-7.738-8.581zm149.524 0v-38.565a8.628 8.628 0 017.738-8.581 8.684 8.684 0 00-.888-.045h-13.701a8.626 8.626 0 00-8.626 8.626v38.565a8.626 8.626 0 008.626 8.626h13.701c.3 0 .596-.016.888-.045a8.628 8.628 0 01-7.738-8.581z" fill="#d3effb"/></svg>