<svg viewBox="0 0 512 512" xmlns="http://www.w3.org/2000/svg"><circle cx="256" cy="256" fill="#e2dfe2" r="151.524"/><path d="M353.677 140.17c22.266 26.377 35.695 60.456 35.695 97.677 0 83.685-67.84 151.524-151.524 151.524-37.221 0-71.3-13.429-97.677-35.695 27.795 32.927 69.366 53.847 115.83 53.847 83.685 0 151.524-67.84 151.524-151.524-.001-46.463-20.921-88.034-53.848-115.829z" fill="#d3ced5"/><path d="M308.528 282.264H203.472c-22.316 0-40.407 18.091-40.407 40.407v53.007c25.662 19.957 57.909 31.847 92.935 31.847s67.272-11.89 92.935-31.847v-53.007c0-22.316-18.091-40.407-40.407-40.407z" fill="#a2f4c1"/><path d="M348.935 375.677V322.67c0-22.316-18.091-40.406-40.406-40.406h-21.211c22.315.001 40.404 18.092 40.404 40.406v31.989a9.992 9.992 0 01-4.324 8.244c-24.345 16.692-53.802 26.468-85.55 26.468-27.2 0-52.718-7.178-74.782-19.729v6.034c25.662 19.957 57.909 31.847 92.935 31.847 35.025.001 67.272-11.889 92.934-31.846z" fill="#86f1a7"/><path d="M235.797 254h40.407v28.264h-40.407z" fill="#f1b986"/><path d="M215.593 181.146v40.406c0 22.316 18.091 40.407 40.407 40.407s40.406-18.091 40.406-40.407v-40.406z" fill="#f1d0a5"/><g fill="#665e66"><path d="M296.406 181.146c0-16.737-13.568-30.305-30.305-30.305h-20.203c-16.737 0-30.305 13.568-30.305 30.305v20.203c19.842 0 36.654-3.182 49.724-7.02 2.679-.787 5.541-.341 7.951 1.069 10.659 6.24 23.138 5.951 23.138 5.951.19.19 0-20.203 0-20.203zM195.97 395.15v-52.28c0-4.14 3.36-7.5 7.5-7.5s7.5 3.36 7.5 7.5v57.84zm105.06 5.56v-57.84c0-4.14 3.36-7.5 7.5-7.5s7.5 3.36 7.5 7.5v52.28zM256 449.37c-43.374 0-86.232-8.33-123.942-24.09-3.822-1.597-5.625-5.99-4.028-9.812s5.991-5.627 9.812-4.028c35.894 15.001 76.752 22.93 118.158 22.93s82.264-7.929 118.158-22.93a7.5 7.5 0 015.784 13.84c-37.71 15.76-80.568 24.09-123.942 24.09zm122.287-347.698a7.465 7.465 0 01-2.925-.598C339.195 85.737 297.921 77.63 256 77.63s-83.195 8.107-119.362 23.444a7.498 7.498 0 01-9.833-3.977 7.499 7.499 0 013.977-9.832C168.785 71.148 212.084 62.63 256 62.63s87.215 8.519 125.218 24.636a7.5 7.5 0 01-2.931 14.406zM82.184 396.351a7.468 7.468 0 01-4.425-1.45c-24.242-17.751-43.319-38.57-56.702-61.879C7.084 308.686 0 282.772 0 256c0-52.387 27.205-101.412 76.603-138.044a7.5 7.5 0 018.935 12.049C40.051 163.736 15 208.482 15 256c0 47.947 25.436 92.979 71.621 126.799a7.499 7.499 0 011.62 10.481 7.49 7.49 0 01-6.057 3.071zm347.632 0a7.487 7.487 0 01-6.057-3.07 7.499 7.499 0 011.62-10.481C471.564 348.979 497 303.947 497 256c0-47.518-25.051-92.264-70.537-125.995a7.5 7.5 0 018.935-12.049C484.795 154.588 512 203.613 512 256c0 26.772-7.084 52.686-21.057 77.021-13.383 23.309-32.46 44.128-56.702 61.879a7.462 7.462 0 01-4.425 1.451z"/><path d="M256 512c-52.387 0-101.412-27.205-138.044-76.603a7.5 7.5 0 0112.049-8.935C163.736 471.949 208.482 497 256 497s92.264-25.051 125.996-70.538a7.5 7.5 0 0112.049 8.935C357.412 484.795 308.387 512 256 512zM388.856 89.691a7.487 7.487 0 01-6.057-3.07C348.979 40.436 303.948 15 256 15s-92.979 25.436-126.799 71.621a7.497 7.497 0 01-10.482 1.62 7.499 7.499 0 01-1.62-10.481c17.751-24.242 38.571-43.32 61.879-56.703C203.314 7.085 229.228 0 256 0s52.686 7.085 77.022 21.057c23.309 13.383 44.128 32.461 61.879 56.703a7.499 7.499 0 01-1.62 10.481 7.468 7.468 0 01-4.425 1.45zM94.173 385.792a7.503 7.503 0 01-6.908-4.573C71.148 343.217 62.63 299.917 62.63 256c0-43.374 8.33-86.232 24.09-123.941a7.501 7.501 0 0113.84 5.785C85.559 173.735 77.63 214.594 77.63 256c0 41.923 8.107 83.197 23.445 119.361a7.5 7.5 0 01-3.977 9.833 7.461 7.461 0 01-2.925.598zm323.654 0a7.447 7.447 0 01-2.925-.598 7.5 7.5 0 01-3.977-9.833C426.263 339.197 434.37 297.923 434.37 256c0-41.406-7.929-82.265-22.93-118.157a7.501 7.501 0 0113.84-5.785c15.76 37.709 24.09 80.567 24.09 123.941 0 43.917-8.519 87.217-24.635 125.219a7.502 7.502 0 01-6.908 4.574z"/></g><path d="M106.496 69.701c-20.846 0-37.805 16.959-37.805 37.805s16.959 37.806 37.805 37.806 37.805-16.96 37.805-37.806-16.959-37.805-37.805-37.805z" fill="#e27a66"/><path d="M404.494 367.699c-20.846 0-37.805 16.959-37.805 37.805s16.959 37.806 37.805 37.806 37.805-16.96 37.805-37.806-16.96-37.805-37.805-37.805z" fill="#90d8f9"/><path d="M107.506 367.699c-20.846 0-37.805 16.959-37.805 37.805s16.959 37.806 37.805 37.806 37.805-16.96 37.805-37.806-16.959-37.805-37.805-37.805z" fill="#f4dd45"/><path d="M405.504 69.701c-20.846 0-37.805 16.959-37.805 37.805s16.959 37.806 37.805 37.806 37.805-16.96 37.805-37.806-16.959-37.805-37.805-37.805z" fill="#aad540"/></svg>