<svg viewBox="0 0 511.995 511.995" xmlns="http://www.w3.org/2000/svg"><path d="M454.558 348.609h42.322v82.925h-42.322z" fill="#ffe177"/><path d="M413.118 263.147v106.505a14.93 14.93 0 01-7.861 13.152l-138.605 74.677a22.443 22.443 0 01-21.309 0l-93.563-50.405-45.041-24.272a14.929 14.929 0 01-7.861-13.152V263.147l157.12 94.854z" fill="#456b93"/><path d="M252.38 365.818l-153.503-92.67v96.505a14.93 14.93 0 007.861 13.152l45.041 24.272v-42.129c0-12.356 13.496-19.972 24.073-13.587l76.527 46.2a7.001 7.001 0 007.236 0l153.503-92.67v-31.742l-153.503 92.67a7.002 7.002 0 01-7.235-.001z" fill="#3b4f66"/><path d="M508.417 215.629l-248.59 150.06a7.42 7.42 0 01-7.66 0L3.578 215.629c-4.77-2.88-4.77-9.8 0-12.68l15.79-9.53 232.8-140.53a7.42 7.42 0 017.66 0l232.8 140.53 15.79 9.53c4.769 2.88 4.769 9.8-.001 12.68z" fill="#618baa"/><path d="M508.417 215.629l-248.59 150.06a7.42 7.42 0 01-7.66 0L3.578 215.629c-4.77-2.88-4.77-9.8 0-12.68l15.79-9.53 236.63 142.84 236.63-142.84 15.79 9.53c4.769 2.88 4.769 9.8-.001 12.68z" fill="#456b93"/><path d="M475.72 355.58a7.934 7.934 0 01-7.935-7.935V242.417l-212.722-25.249a7.934 7.934 0 01-6.944-8.815c.517-4.354 4.48-7.463 8.815-6.944l219.722 26.079c3.992.473 7 3.859 7 7.88v112.276a7.936 7.936 0 01-7.936 7.936z" fill="#d9ecfd"/><circle cx="475.719" cy="348.609" fill="#fff" r="21.161"/><circle cx="475.719" cy="348.609" fill="#ffc85e" r="21.161"/></svg>