<svg viewBox="0 0 512 512" xmlns="http://www.w3.org/2000/svg"><path d="M256 0L128 256l128 256c141.385 0 256-114.615 256-256S397.385 0 256 0z" fill="#28abfa"/><path d="M0 256c0 141.385 114.615 256 256 256V0C114.615 0 0 114.615 0 256z" fill="#14cfff"/><path d="M256 60l-98 196 98 196c108.248 0 196-87.752 196-196S364.248 60 256 60z" fill="#c4f3ff"/><path d="M60 256c0 108.248 87.752 196 196 196V60C147.752 60 60 147.752 60 256z" fill="#fff"/><path d="M298.426 277.213L256 234.787h-20l20 42.426 21.213 21.213z" fill="#340d66"/><path d="M170.794 149.581l-21.213 21.213L256 277.213v-42.426z" fill="#373e9f"/><path d="M341.561 149.227L256 234.787l-20 42.426h20l106.773-106.774z" fill="#373e9f"/><path d="M213.574 277.213l21.213 21.213L256 277.213v-42.426z" fill="#3857bc"/><path d="M271 90h-15l-10 15 10 15h15z" fill="#340d66"/><path d="M241 90h15v30h-15z" fill="#373e9f"/><path d="M271 392h-15l-10 15 10 15h15z" fill="#340d66"/><path d="M241 392h15v30h-15zM90 271v-30h30v30z" fill="#373e9f"/><path d="M392 271v-30h30v30z" fill="#340d66"/></svg>