<svg viewBox="0 0 512 512" xmlns="http://www.w3.org/2000/svg"><circle cx="256" cy="256" fill="#424ede" r="256"/><path d="M131.975 402.634l108.91 108.91A260.14 260.14 0 00256 512c141.385 0 256-114.615 256-256a258.58 258.58 0 00-1.774-30.13L385.894 101.538z" fill="#3340dc"/><path d="M255.89 101.538h-93.429c-20.2 0-36.575 16.375-36.575 36.575V382.38l130.004-25.692 60.571-122.305z" fill="#ff6379"/><path d="M255.89 101.538h130.004v255.425H255.89z" fill="#ff415b"/><path d="M217.174 252.371h-36.282l-7.152 16.793h-13.891l32.653-72.563h13.269l32.757 72.563H224.43zm-4.458-10.574l-13.684-31.72-13.58 31.72z" fill="#ffd357"/><path d="M341.981 257.761v11.403h-61.886v-9.019l42.709-52.142h-41.983V196.6h59.813v9.019l-42.708 52.142z" fill="#ffb806"/><path d="M242.374 234.029h27.034v10.781h-27.034z" fill="#ffd357"/><path d="M255.891 234.029h13.517v10.781h-13.517z" fill="#ffb806"/><path d="M162.303 418.921c-20.081 0-36.417-16.336-36.417-36.417s16.336-36.417 36.417-36.417h93.588l11.267 38.866-11.267 33.968z" fill="#ff415b"/><path d="M255.891 418.921h130.003v-11l-6.568-25.417 6.568-25.418v-10.999H255.891z" fill="#b30042"/><path d="M162.304 357.086c-14.037 0-25.417 11.38-25.417 25.417s11.38 25.417 25.417 25.417h93.586l14.504-25.417-14.504-25.417z" fill="#fff"/><path d="M255.891 357.086h130.003v50.834H255.891z" fill="#d7e8ff"/><path d="M344.833 438.464l-23.941-20.001-23.94 20.001v-67.101h47.881z" fill="#ffb806"/></svg>