<svg xmlns="http://www.w3.org/2000/svg" viewBox="0 0 511.999 511.999"><circle cx="255.999" cy="255.999" r="255.999" fill="#34abe0"/><path d="M471.252 88.659v305.966a257.132 257.132 0 01-67.751 70.635 254.522 254.522 0 01-23.27 14.629c-36.78 20.449-79.151 32.11-124.228 32.11s-87.447-11.661-124.228-32.11a254.522 254.522 0 01-23.27-14.629 257.132 257.132 0 01-67.751-70.635V22.8c0-12.591 10.209-22.8 22.8-22.8h319.038l88.66 88.659z" fill="#f9eed7"/><path d="M102.621 113.347c0-2.894 2.662-5.441 6.713-5.441h23.962c15.28 0 27.318 7.176 27.318 26.623v.579c0 19.447-12.501 26.855-28.475 26.855H120.68v25.002c0 3.704-4.515 5.556-9.029 5.556-4.515 0-9.029-1.852-9.029-5.556v-73.618zm18.058 10.302v24.423h11.459c6.483 0 10.418-3.704 10.418-11.575v-1.273c0-7.871-3.936-11.575-10.418-11.575h-11.459zm53.596-10.302c0-2.894 2.199-5.441 5.556-5.441h23.962c15.858 0 28.476 5.904 28.476 24.771 0 12.964-5.904 20.372-14.006 23.498l14.122 25.581c.463.695.578 1.505.578 2.084 0 4.514-6.019 9.376-11.343 9.376-2.315 0-4.515-.926-5.788-3.357l-15.858-30.79h-7.639v27.897c0 3.704-4.515 5.556-9.029 5.556s-9.029-1.852-9.029-5.556l-.002-73.619zm18.058 10.302v21.53h11.459c6.483 0 10.418-2.662 10.418-10.766 0-8.102-3.936-10.766-10.418-10.766h-11.459v.002zm55.333-10.302c0-3.82 4.515-5.441 9.029-5.441s9.029 1.621 9.029 5.441v73.619c0 3.704-4.515 5.556-9.029 5.556-4.515 0-9.029-1.852-9.029-5.556v-73.619zm63.897 10.302c-6.597 0-10.418 3.704-10.418 11.575v30.675c0 7.871 3.819 11.575 10.534 11.575 9.26 0 9.839-7.061 10.187-11.575.347-4.283 4.283-5.441 8.913-5.441 6.251 0 9.144 1.621 9.144 8.566 0 15.395-12.501 24.192-29.054 24.192-15.164 0-27.781-7.408-27.781-27.318v-30.675c0-19.909 12.617-27.318 27.781-27.318 16.553 0 29.054 8.334 29.054 23.035 0 6.945-2.893 8.566-9.029 8.566-4.862 0-8.797-1.274-9.029-5.44-.115-3.009-.463-10.417-10.302-10.417zm61.353 19.562h17.363c3.472 0 5.441 3.357 5.441 7.061 0 3.125-1.621 6.829-5.441 6.829h-17.363v19.679h31.022c3.472 0 5.441 3.704 5.441 7.987 0 3.704-1.621 7.755-5.441 7.755H362.73c-3.936 0-7.871-1.852-7.871-5.556v-73.503c0-3.704 3.936-5.556 7.871-5.556h41.208c3.82 0 5.441 4.051 5.441 7.755 0 4.283-1.969 7.987-5.441 7.987h-31.022v19.562z" fill="#ff525d"/><path d="M410.121 296.824H199.055a7.314 7.314 0 110-14.628h211.066a7.315 7.315 0 010 14.628zm0 122.043H199.055a7.314 7.314 0 110-14.628h211.066a7.314 7.314 0 110 14.628zm0-183.065H199.055a7.314 7.314 0 110-14.628h211.066a7.315 7.315 0 010 14.628zm0 122.043H199.055a7.314 7.314 0 110-14.628h211.066a7.314 7.314 0 110 14.628zm-6.62 107.416a254.522 254.522 0 01-23.27 14.629H199.057a7.309 7.309 0 01-7.314-7.314 7.27 7.27 0 012.142-5.172 7.27 7.27 0 015.172-2.142h204.444zM154.124 296.824h-52.245a7.314 7.314 0 110-14.628h52.245a7.314 7.314 0 017.314 7.314 7.313 7.313 0 01-7.314 7.314zm0 122.043h-52.245a7.314 7.314 0 110-14.628h52.245a7.314 7.314 0 017.314 7.314 7.313 7.313 0 01-7.314 7.314zm0-183.065h-52.245a7.314 7.314 0 110-14.628h52.245a7.314 7.314 0 017.314 7.314 7.313 7.313 0 01-7.314 7.314zm0 122.043h-52.245a7.314 7.314 0 110-14.628h52.245a7.314 7.314 0 017.314 7.314 7.313 7.313 0 01-7.314 7.314zm7.317 114.73a7.27 7.27 0 01-2.142 5.172 7.29 7.29 0 01-5.172 2.142h-22.35a254.522 254.522 0 01-23.27-14.629h45.62a7.317 7.317 0 017.314 7.315z" fill="#5c5e70"/><path fill="#e8dbc4" d="M416.918 82.446l54.331 34.928.003-28.715z"/><path d="M382.593 67.006V0l88.659 88.659h-67.006c-11.959 0-21.653-9.694-21.653-21.653z" fill="#fcf8f2"/></svg>