<svg viewBox="0 0 512 512" xmlns="http://www.w3.org/2000/svg"><path d="M512 256c0 79.94-36.65 151.33-94.06 198.27-14.3 11.7-263.644 41.797-304.363 14.484C45.084 422.81 0 344.668 0 256 0 114.62 114.62 0 256 0s256 114.62 256 256z" fill="#dd5790"/><path d="M379.06 458.459c-12.34 8.28-27.074 34.968-30.759 36.394a251.442 251.442 0 01-22.101 7.397C303.9 508.6 280.35 512 256 512c-6.51 0-12.96-.25-19.35-.73-.03-.01-.06-.01-.09-.01-2.818-.209-5.62-6.72-8.408-7.021-5.078-.548-10.108 5.01-15.092 4.171-.02-.01-.03-.01-.04-.01-9.25-1.56-18.33-3.62-27.22-6.14-7.24-2.06-14.36-4.44-21.33-7.12a67.9 67.9 0 01-1.29-.49c-3.51-1.36-6.98-2.81-10.41-4.32a254.763 254.763 0 01-39.19-21.58 126.016 126.016 0 0139.19-35.32 124.256 124.256 0 0132.37-12.99c.22-.05.44-.11.66-.16 1.81-.44 3.64-.84 5.48-1.19 3.47-.68 7-1.2 10.57-1.57 1.03-.11 2.05-.21 3.09-.29 3.38-.28 6.8-.42 10.26-.42h81.59a127.725 127.725 0 0123.92 2.26c1.39.27 2.77.56 4.14.87.45.12.91.21 1.35.33 8.4 2.02 16.47 4.88 24.12 8.51 3.04 1.43 6.01 2.98 8.91 4.65 15.43 8.9 9.441 10.659 19.83 25.029z" fill="#b1e4f9"/><path d="M215.2 416.81c-29.36 0-49.26 42.43-50.73 78.33a67.9 67.9 0 01-1.29-.49c-3.51-1.36-6.98-2.81-10.41-4.32a254.763 254.763 0 01-39.19-21.58 126.016 126.016 0 0139.19-35.32c10.2-5.87 21.3-10.34 33.03-13.15 1.81-.44 3.64-.84 5.48-1.19 3.47-.68 7-1.2 10.57-1.57 1.03-.11 2.05-.21 3.09-.29 3.38-.28 6.8-.42 10.26-.42z" fill="#90d8f9"/><path d="M300.706 368.538v54.869c0 20.088-13.245 37.067-31.489 42.707a44.605 44.605 0 01-13.23 1.997c-24.691 0-44.703-20.012-44.703-44.703v-54.869h89.422z" fill="#ffcbbe"/><path d="M300.706 419.932v3.475c0 20.088-13.245 37.067-31.489 42.707-16.461-5.06-28.837-19.372-31.123-36.884 2.987.183 5.99.274 9.008.274 8.459 0 16.75-.671 24.828-1.997 9.953-1.6 19.57-4.161 28.776-7.575zM132.54 278.153c0 20.497-14.973 37.492-34.579 40.646a41.252 41.252 0 01-6.596.528c-22.746 0-41.175-18.429-41.175-41.175s18.429-41.175 41.175-41.175c2.249 0 4.453.181 6.596.528 19.606 3.156 34.579 20.152 34.579 40.648z" fill="#ffddce"/><path d="M132.54 278.153c0 20.497-14.973 37.492-34.579 40.646-3.562-12.95-5.464-26.579-5.464-40.646s1.902-27.696 5.464-40.646c19.606 3.154 34.579 20.15 34.579 40.646z" fill="#ffcbbe"/><circle cx="91.365" cy="278.153" fill="#ffcbbe" r="14.716"/><path d="M379.449 278.153c0 20.497 14.973 37.492 34.579 40.646 2.143.347 4.347.528 6.596.528 22.746 0 41.175-18.429 41.175-41.175s-18.429-41.175-41.175-41.175c-2.249 0-4.453.181-6.596.528-19.606 3.156-34.579 20.152-34.579 40.648z" fill="#ffddce"/><g fill="#ffcbbe"><path d="M379.449 278.153c0 20.497 14.973 37.492 34.579 40.646 3.562-12.95 5.464-26.579 5.464-40.646s-1.902-27.696-5.464-40.646c-19.606 3.154-34.579 20.15-34.579 40.646z"/><circle cx="420.624" cy="278.153" r="14.716"/></g><path d="M410.696 256.511c0 76.985-56.241 140.847-129.873 152.705-8.078 1.326-16.369 1.997-24.828 1.997-85.444 0-154.701-69.257-154.701-154.701v-157.5h309.403v157.499z" fill="#ffddce"/><g fill="#ffcbbe"><path d="M283.243 408.81c-.8.14-1.61.28-2.42.41-8.08 1.32-16.37 1.99-24.83 1.99-85.44 0-154.7-69.25-154.7-154.7V99.01h54.55v157.5c0 76.14 54.98 139.41 127.4 152.3z"/><path d="M273.544 291.694h-35.098a7.57 7.57 0 110-15.14h35.098a7.57 7.57 0 110 15.14zm38.553-.56a6.477 6.477 0 01-3.151-.819c-29.137-16.187-31.263-42.139-31.339-43.236a6.5 6.5 0 016.034-6.935c3.568-.255 6.663 2.432 6.932 5.993.076.891 1.992 20.206 24.687 32.813a6.5 6.5 0 01-3.163 12.184zm-112.204 0a6.5 6.5 0 01-3.163-12.183c22.74-12.633 24.618-32 24.687-32.819.299-3.559 3.422-6.232 6.977-5.96 3.561.273 6.236 3.345 5.989 6.907-.076 1.097-2.202 27.049-31.339 43.236a6.482 6.482 0 01-3.151.819z"/></g><path d="M180.01 274.632a6.502 6.502 0 01-2.666-12.431l31.761-14.26-43.617-12.663a6.5 6.5 0 113.625-12.484l60.597 17.593a6.5 6.5 0 01.85 12.172l-47.892 21.502a6.49 6.49 0 01-2.658.571zm151.969 0c-.89 0-1.794-.184-2.658-.572l-47.892-21.502a6.5 6.5 0 01.85-12.172l60.597-17.593a6.498 6.498 0 018.055 4.43 6.498 6.498 0 01-4.43 8.054l-43.616 12.663 31.761 14.26a6.5 6.5 0 01-2.667 12.432z" fill="#eaac9d"/><path d="M410.696 238.188l-6.536-97.847c-97.726 33.103-162.821 48.731-204.106 41.674 57.871-11.058 74.587-47.603 74.587-47.603s-37.928 24.502-78.977 32.656c-19.254 3.82-38.799-6.126-46.508-24.185-.056-.097-.097-.208-.139-.306 0 0 .923 95.61-47.725 95.61 0 0-65.49-215.076 38.001-184.515 0 0 29.936-27.491 74.624-43.119.167-.056.333-.111.514-.18.486-.181.986-.347 1.486-.5a47.031 47.031 0 001.5-.5c47.26-15.586 110.035-17.211 171.227 39.438 121.549 112.52 22.052 189.377 22.052 189.377z" fill="#407093"/><path d="M195.665 167.068c-19.254 3.82-38.799-6.126-46.508-24.185-.056-.097-.097-.208-.139-.306 0 0 .923 95.61-47.725 95.61 0 0-65.49-215.076 38.001-184.515 0 0 29.936-27.491 74.624-43.119-61.33 22.338-45.161 156.515-18.253 156.515z" fill="#365e7d"/><path d="M345.76 443.02c-13.388 39.133-55.622 60.798-91.77 66.641-6.001.97-12.261-1.404-17.766-1.299-.03-.01-48.053-65.116-47.683-87.436 1.54-95.32 71.07-132.853 91.419-129.793 4.71.707 10.3-.721 14.588 2.031 18.582 11.925 34.297 41.617 56.641 76.635.001.001-3.689 68.131-5.429 73.221z" fill="#ddeafb"/><path d="M221.38 416.81c-.83 23.19 2.65 49.74 12.37 79.8 2.71 6.49 10.09 10.87 20.24 13.05-6.04.98-11.9 1.51-17.43 1.6a252.58 252.58 0 01-23.54-2.86c-7.65-2.43-13.16-6.38-15.42-11.79-9.21-28.51-12.83-53.85-12.46-76.17 1.54-95.32 75.63-135.6 95.98-132.54 4.85.73 9.42 2.62 13.83 5.52-29.04 13.8-71.05 53.32-73.57 123.39z" fill="#cbe2ff"/><path d="M417.94 454.27c-20.75 16.97-44.21 30.75-69.64 40.58l-19.42-15.98a97.807 97.807 0 00-26.46-15.56 147.725 147.725 0 00-33.5-8.79 149.142 149.142 0 00-34.64-.72l-14.71 1.43c-9.32.92-17.62-5.91-18.51-15.22-.91-9.32 5.9-17.6 15.23-18.51l32.13-3.14-42.26-16.77c-1.61-.64-3.07-1.49-4.36-2.52-4.47-3.61-6.85-9.28-6.25-15 .14-1.37.47-2.74.97-4.07.05-.14.1-.28.16-.42.01-.07.02-.12.05-.17.18-.43.36-.84.57-1.22 2.75-5.49 8.18-8.88 14.02-9.28 2.43-.15 4.94.22 7.36 1.16l48.67 19.34-41.25-33.94c-1.82-1.5-3.26-3.29-4.3-5.29-.68-1.24-1.18-2.57-1.52-3.92-1.24-4.85-.4-10.15 2.76-14.34.2-.27.42-.54.64-.81l.08-.08c.24-.27.45-.51.69-.75 4.74-4.87 11.85-6.33 17.99-4.05 1.74.63 3.39 1.58 4.88 2.81L288 362.52l-21.94-36.83-2-3.37c-2.02-3.33-2.72-7.06-2.29-10.65a16.82 16.82 0 017.53-12.18c.2-.14.41-.27.62-.4 5.7-3.39 12.57-3.07 17.79.26.94.59 1.82 1.29 2.65 2.07a17.62 17.62 0 012.8 3.55l9.18 15.4 12.12 20.32c5.24 8.79 11.32 17 18.12 24.59 1.8 2 3.66 3.97 5.56 5.86.31.32.65.66.97.97l2.58-35.23c.34-4.57 2.44-8.57 5.62-11.4 3.3-2.95 7.75-4.6 12.53-4.26l.25.03h.01c.13.01.27.02.39.04 1.06.12 2.09.33 3.09.62 3.22.99 5.98 2.89 8.04 5.38 2 2.38 3.32 5.33 3.77 8.54.16 1.14.2 2.33.12 3.54l-5.03 68.67-.01.01c0 .02-.01.04-.01.06-.31 4.16 1.3 8.25 4.53 10.9l40.96 33.72z" fill="#ffddce"/><path d="M371.41 484.57c-7.49 3.79-15.21 7.23-23.11 10.28l-19.42-15.98a97.807 97.807 0 00-26.46-15.56 147.725 147.725 0 00-33.5-8.79 149.142 149.142 0 00-34.64-.72l-14.71 1.43c-9.32.92-17.62-5.91-18.51-15.22 1.96 6.44 59.57-6.14 88.9 2.52 23.13 6.82 53.44 20.37 81.45 42.04zm-115.177-72.309l-7.815 6.103-42.261-16.772a17.096 17.096 0 01-4.354-2.522c-4.474-3.608-6.858-9.279-6.25-15.004a16.42 16.42 0 01.967-4.069c-.415 7.189 27.182 19.395 59.713 32.264zm17.131-29.199l-6.011 6.352-41.258-33.949a16.99 16.99 0 01-4.299-5.284 16.586 16.586 0 01-1.519-3.921c-1.233-4.851-.396-10.153 2.762-14.342.202-.267.424-.534.644-.81l.074-.083c.239-.267.451-.507.69-.746-6.019 6.021 19.332 32.155 48.917 52.783zm24.91-23.215L288 362.517l-21.945-36.83-1.998-3.369c-2.016-3.323-2.715-7.06-2.292-10.65a16.813 16.813 0 012.918-7.695 16.878 16.878 0 014.612-4.483c-9.508 7.519 28.979 60.357 28.979 60.357zm61.812-38.597c-9.353.037-12.758 58.747-12.758 58.747l-8.22-7.889 2.578-35.228a16.864 16.864 0 015.624-11.396 16.908 16.908 0 0112.528-4.262l.248.028z" fill="#ffcbbe"/></svg>