<svg xmlns="http://www.w3.org/2000/svg" viewBox="0 0 512 512"><path d="M444.128 229.568L301.312 63.2c1.6-4.8 2.688-9.856 2.688-15.2 0-26.464-21.536-48-48-48s-48 21.536-48 48c0 5.344 1.088 10.4 2.688 15.2L67.84 229.6c-5.728 6.688-4.96 16.8 1.728 22.528C72.608 254.72 76.288 256 80 256a15.93 15.93 0 0012.128-5.568L230.912 88.768C238.24 93.248 246.784 96 256 96s17.76-2.752 25.056-7.264L419.872 250.4A15.855 15.855 0 00432 256c3.68 0 7.392-1.28 10.4-3.872 6.72-5.728 7.52-15.84 1.728-22.56zM240 48c0-8.832 7.168-16 16-16s16 7.168 16 16-7.168 16-16 16-16-7.168-16-16z" fill="#455a64"/><path d="M496 224H16c-8.832 0-16 7.168-16 16v256c0 8.832 7.168 16 16 16h480c8.832 0 16-7.168 16-16V240c0-8.832-7.168-16-16-16z" fill="#009688"/><path d="M112 320c8.832 0 16-7.168 16-16s-7.168-16-16-16H80c-8.832 0-16 7.168-16 16v128c0 8.832 7.168 16 16 16s16-7.168 16-16v-48h16c8.832 0 16-7.168 16-16s-7.168-16-16-16H96v-32h16zm224 0c8.832 0 16-7.168 16-16s-7.168-16-16-16h-32c-8.832 0-16 7.168-16 16v128c0 8.832 7.168 16 16 16h32c8.832 0 16-7.168 16-16s-7.168-16-16-16h-16v-32h16c8.832 0 16-7.168 16-16s-7.168-16-16-16h-16v-32h16zm96 64c8.832 0 16-7.168 16-16s-7.168-16-16-16h-16v-32h16c8.832 0 16-7.168 16-16s-7.168-16-16-16h-32c-8.832 0-16 7.168-16 16v128c0 8.832 7.168 16 16 16h32c8.832 0 16-7.168 16-16s-7.168-16-16-16h-16v-32h16zm-176-48c0-26.464-21.536-48-48-48h-32c-8.832 0-16 7.168-16 16v128c0 8.832 7.168 16 16 16s16-7.168 16-16v-37.344l35.2 46.944c3.136 4.192 7.936 6.4 12.8 6.4a15.79 15.79 0 009.568-3.2c7.072-5.312 8.512-15.328 3.2-22.4l-30.592-40.8C241.696 375.52 256 357.504 256 336zm-48 16h-16v-32h16c8.832 0 16 7.2 16 16s-7.168 16-16 16z" fill="#fafafa"/></svg>