<svg viewBox="0 0 512 512" xmlns="http://www.w3.org/2000/svg"><path d="M388.567.439C329.119.328 280.688 48.664 280.689 108.112c.001 41.668 23.67 77.806 58.297 95.706a4.48 4.48 0 012.366 4.64c-1.078 7.283-4.621 24.649-14.828 35.128-2.462 2.528-.179 6.741 3.291 6.098 17.673-3.277 44.478-11.441 54.404-31.326.784-1.57 2.357-2.577 4.112-2.576h.03c59.465 0 107.672-48.206 107.672-107.672C496.032 48.714 447.937.551 388.567.439z" fill="#c1e9af"/><path d="M496.031 108.106c0 59.473-48.209 107.672-107.672 107.672h-.031c-1.757 0-3.33 1.007-4.111 2.58-9.928 19.886-36.73 28.046-54.406 31.324-3.463.647-5.745-3.566-3.289-6.094 5.868-6.022 9.527-14.316 11.788-21.664 13-4.933 25.734-12.764 31.92-25.158.781-1.572 2.353-2.58 4.111-2.58h.031c59.462 0 107.672-48.199 107.672-107.672 0-16.947-3.916-32.979-10.904-47.243 15.549 18.663 24.891 42.66 24.891 68.835z" fill="#ade194"/><path d="M51.315 240.306H34.643c-10.314 0-18.675-8.361-18.675-18.675v-1.034c0-10.314 8.361-18.675 18.675-18.675h16.672zm189.758 0h17.179c10.314 0 18.675-8.361 18.675-18.675v-1.034c0-10.314-8.361-18.675-18.675-18.675h-17.179z" fill="#ffcebf"/><path d="M258.68 458.93V512H34.22v-55.95c0-57.38 46.51-103.9 103.9-103.9h13.78c58.97 0 106.78 47.8 106.78 106.78z" fill="#fe7ab6"/><path d="M258.68 458.93V512h-20.46v-53.07c0-57.38-45.24-104.18-102-106.66 1.58-.09 3.17-.12 4.78-.12h10.9c58.97 0 106.78 47.8 106.78 106.78z" fill="#fe5ca7"/><path d="M167.931 362.11v-34.163h-42.969v34.163c0 11.865 9.619 21.484 21.484 21.484 11.866 0 21.485-9.619 21.485-21.484z" fill="#ffcebf"/><path d="M91.651 457.778v54.221H76.236v-54.221a7.71 7.71 0 017.708-7.708 7.704 7.704 0 017.707 7.708zm124.999 0v54.221h-15.415v-54.221a7.71 7.71 0 017.708-7.708 7.704 7.704 0 017.707 7.708z" fill="#fe3d97"/><path d="M245.29 185.553v51.465c0 54.591-44.252 98.844-98.844 98.844s-98.844-44.252-98.844-98.844v-64.531l101.21-37.502z" fill="#ffcebf"/><path d="M245.292 180.306v56.716c0 54.587-44.258 98.846-98.845 98.846-3.754 0-7.463-.211-11.106-.622 49.489-5.686 87.995-49.823 87.995-103.41v-51.917z" fill="#ffb09e"/><path d="M222.869 112.074c-14.253-16.894-34.407-29.207-56.801-34.559a79.811 79.811 0 00-19.621-2.172 79.811 79.811 0 00-19.621 2.172c-22.394 5.352-42.549 17.665-56.802 34.559-14.482 17.166-22.421 38.613-22.421 60.414v28.937c46.087-3.921 69.035-30.887 96.776-60.071a2.858 2.858 0 014.135 0c27.742 29.185 50.689 56.15 96.776 60.071v-28.937c0-21.801-7.938-43.248-22.421-60.414z" fill="#596c76"/><path d="M245.296 172.489v28.938c-7.82-.67-14.982-1.998-21.603-3.889v-25.049c0-21.798-7.939-43.25-22.424-60.413-14.258-16.894-34.403-29.208-56.806-34.565a78.578 78.578 0 00-8.814-1.588 82.526 82.526 0 0110.802-.583 80.26 80.26 0 0119.616 2.171c22.392 5.358 42.548 17.671 56.806 34.565 14.484 17.163 22.423 38.615 22.423 60.413z" fill="#465a61"/><path d="M180.68 23.733c-10.354-31.591-58.081-31.693-68.466.001-6.068 18.517 1.875 40.665 18.328 51.106h31.812c16.452-10.442 24.394-32.59 18.326-51.107z" fill="#596c76"/><path d="M162.35 74.842h-21.603c16.451-10.445 24.401-32.589 18.33-51.113-3.889-11.839-13.016-19.259-23.472-22.23 17.445-4.979 38.583 2.452 45.075 22.23 6.071 18.524-1.879 40.668-18.33 51.113z" fill="#465a61"/><path d="M191.145 59.046c-.335-4.255-3.857-7.55-8.125-7.55h-73.146c-4.269 0-7.79 3.294-8.125 7.55-.5 6.357-.409 15.576 2.953 23.012 1.329 2.939 4.232 4.849 7.457 4.849h68.577c3.225 0 6.128-1.91 7.457-4.849 3.362-7.436 3.453-16.655 2.952-23.012z" fill="#8ac9fe"/><path d="M188.188 82.057c-1.329 2.938-4.223 4.85-7.453 4.85h-22.651c3.219 0 6.124-1.912 7.453-4.85 3.359-7.432 3.457-16.656 2.949-23.008-.335-4.256-3.856-7.55-8.123-7.55h22.662c4.267 0 7.788 3.295 8.123 7.55.496 6.352.41 15.577-2.96 23.008z" fill="#60b7ff"/><path d="M111.184 243.132a7.708 7.708 0 01-7.708-7.708v-15.447a7.708 7.708 0 0115.416 0v15.447a7.707 7.707 0 01-7.708 7.708zm70.527 0a7.708 7.708 0 01-7.708-7.708v-15.447c0-4.257 3.45-7.708 7.708-7.708s7.708 3.451 7.708 7.708v15.447a7.708 7.708 0 01-7.708 7.708z" fill="#596c76"/><g fill="#80d261"><path d="M387.547 71.539a7.708 7.708 0 00-7.708 7.708v24.437h-30.653V79.247c0-4.257-3.45-7.708-7.708-7.708s-7.708 3.451-7.708 7.708v66.572c0 4.257 3.45 7.708 7.708 7.708s7.708-3.451 7.708-7.708v-26.72h30.653v26.72a7.708 7.708 0 0015.416 0V79.247a7.708 7.708 0 00-7.708-7.708z"/><circle cx="426.397" cy="79.247" r="8.845"/><path d="M426.398 95.795a7.708 7.708 0 00-7.708 7.708v42.317a7.708 7.708 0 0015.416 0v-42.317a7.708 7.708 0 00-7.708-7.708z"/></g><path d="M146.751 294.088c-9.395 0-18.32-4.07-24.487-11.167a7.708 7.708 0 0111.636-10.112 17.021 17.021 0 0012.851 5.863c4.762 0 9.177-1.917 12.431-5.397a7.707 7.707 0 0110.894-.366 7.707 7.707 0 01.366 10.894 32.547 32.547 0 01-23.691 10.285z" fill="#596c76"/></svg>