<svg viewBox="0 0 511.999 511.999" xmlns="http://www.w3.org/2000/svg"><path d="M239.075 30.17v71.712A181.984 181.984 0 01256 101.08c5.698 0 11.337.281 16.913.801V30.17z" fill="#cbe2ff"/><path d="M255.994 30.17h-16.919v71.712a181.855 181.855 0 0116.919-.802z" fill="#9dc6fb"/><path d="M50.753 2.101c-7.491 4.325-10.058 13.904-5.733 21.396l8.71 15.086 5.443 1.503 21.685-13.392V22.92l-8.71-15.086C67.823.343 58.244-2.224 50.753 2.101z" fill="#f9f6f9"/><path d="M60.129 19.204C56.552 13.008 57.7 5.392 62.44.493a15.604 15.604 0 00-11.687 1.608c-7.491 4.325-10.058 13.904-5.733 21.396l8.71 15.086 5.443 1.503 9.592-5.924z" fill="#cbe2ff"/><path d="M461.247 2.101c-7.491-4.325-17.071-1.758-21.396 5.733l-8.71 15.086v7.25l21.685 10.559 5.443-2.147 8.71-15.086c4.326-7.491 1.759-17.07-5.732-21.395z" fill="#f9f6f9"/><path d="M444.276 30.647l8.71-15.086c2.963-5.132 8.391-7.95 13.925-7.827a15.575 15.575 0 00-5.664-5.632c-7.491-4.325-17.071-1.758-21.396 5.733l-8.71 15.086v7.25l13.135 6.396z" fill="#cbe2ff"/><path d="M367.326 133.451l1.467 5.059 16.483 14.958h6.665l20.74-35.923-27.129-15.662z" fill="#f9f6f9"/><path d="M378.318 147.154l21.412-37.086-14.178-8.185-18.226 31.568 1.467 5.059z" fill="#cbe2ff"/><path d="M99.319 117.545l20.74 35.923h4.025l20.589-16.803v-3.214l-18.226-31.568z" fill="#f9f6f9"/><path d="M113.317 109.463l-13.998 8.082 20.74 35.923h4.025l9.95-8.121z" fill="#cbe2ff"/><path d="M383.741 477.692l-11.497-23.286-4.91-1.091-35.627 21.29-.971 3.145 10.365 20.994c5.813 11.774 20.071 16.606 31.845 10.793 11.775-5.813 16.608-20.07 10.795-31.845z" fill="#f9f6f9"/><path d="M358.88 482.479l-9.193-18.619-17.981 10.745-.971 3.145 10.365 20.994c5.813 11.774 20.071 16.606 31.845 10.793 6.102-3.012 10.333-8.295 12.191-14.322-10.384 2.212-21.34-2.779-26.256-12.736z" fill="#cbe2ff"/><path d="M139.756 454.406l-11.497 23.286c-5.813 11.775-.98 26.032 10.794 31.845s26.032.981 31.845-10.793l10.365-20.993v-4.991L144.43 452.8z" fill="#f9f6f9"/><path d="M152.607 480.611l9.107-18.445-17.284-9.366-4.674 1.607-11.497 23.286c-5.813 11.775-.98 26.032 10.794 31.845 6.619 3.268 14.023 3.172 20.27.369-8.737-6.785-11.804-18.991-6.716-29.296z" fill="#cbe2ff"/><path d="M256 492.504c-108.531 0-196.827-88.296-196.827-196.827S147.469 98.85 256 98.85s196.827 88.296 196.827 196.827S364.531 492.504 256 492.504z" fill="#ff636e"/><path d="M107.977 295.677c0-100.269 75.367-183.26 172.425-195.315A197.96 197.96 0 00256 98.85c-108.531 0-196.827 88.296-196.827 196.827S147.469 492.504 256 492.504c8.262 0 16.405-.518 24.402-1.512-97.058-12.055-172.425-95.046-172.425-195.315z" fill="#ff4654"/><circle cx="256" cy="295.677" fill="#f9f6f9" r="162.988"/><path d="M141.816 295.677c0-81.58 60.248-149.35 138.586-161.161A163.52 163.52 0 00256 132.689c-89.872 0-162.989 73.116-162.989 162.989S166.127 458.666 256 458.666c8.292 0 16.44-.627 24.402-1.827-78.338-11.812-138.586-79.581-138.586-161.162z" fill="#cbe2ff"/><path d="M255.994 157.018a7.726 7.726 0 01-7.726-7.726V133.72a7.726 7.726 0 1115.452 0v15.572a7.726 7.726 0 01-7.726 7.726zm0 308.344a7.726 7.726 0 01-7.726-7.726v-15.572a7.726 7.726 0 1115.452 0v15.572a7.726 7.726 0 01-7.726 7.726zM176.11 172.767l-7.786-13.486a7.726 7.726 0 012.828-10.554 7.725 7.725 0 0110.554 2.828l7.786 13.486a7.726 7.726 0 11-13.382 7.726zm154.172 267.034l-7.786-13.486a7.727 7.727 0 0113.382-7.726l7.786 13.486a7.727 7.727 0 01-13.382 7.726zM125.356 229.175l-13.486-7.786a7.726 7.726 0 017.726-13.382l13.486 7.786a7.726 7.726 0 012.828 10.554 7.725 7.725 0 01-10.554 2.828zm267.035 154.172l-13.486-7.786a7.726 7.726 0 017.726-13.382l13.486 7.786a7.726 7.726 0 01-7.726 13.382zm-282.783-79.944H94.035a7.726 7.726 0 110-15.452h15.572a7.726 7.726 0 017.726 7.726 7.724 7.724 0 01-7.725 7.726zm308.344 0H402.38a7.726 7.726 0 110-15.452h15.572a7.726 7.726 0 110 15.452zm-308.909 77.116a7.726 7.726 0 012.828-10.554l13.486-7.786a7.727 7.727 0 017.726 13.382l-13.486 7.786a7.725 7.725 0 01-10.554-2.828zm267.034-154.172a7.726 7.726 0 012.828-10.554l13.486-7.786a7.727 7.727 0 017.726 13.382l-13.486 7.786a7.726 7.726 0 01-10.554-2.828zM171.151 442.629a7.725 7.725 0 01-2.828-10.554l7.786-13.486a7.726 7.726 0 0113.382 7.726l-7.786 13.486a7.726 7.726 0 01-10.554 2.828zm154.173-267.034a7.726 7.726 0 01-2.828-10.554l7.786-13.486a7.724 7.724 0 0110.554-2.828 7.726 7.726 0 012.828 10.554l-7.786 13.486a7.726 7.726 0 01-10.554 2.828z" fill="#9dc6fb"/><path d="M66.628 29.598C22.451 55.103 7.261 111.793 32.767 155.969l160.232-92.51C167.494 19.282 110.804 4.092 66.628 29.598z" fill="#ff636e"/><path d="M72.555 26.458a93.653 93.653 0 00-5.928 3.14C22.451 55.103 7.261 111.793 32.766 155.969l28.064-16.203C42.594 102.118 48.146 58.219 72.555 26.458z" fill="#ff4654"/><path d="M445.372 29.598c44.176 25.505 59.366 82.195 33.861 126.371L319 63.459c25.506-44.177 82.196-59.367 126.372-33.861z" fill="#ff636e"/><path d="M449.042 31.836a92.903 92.903 0 00-3.67-2.238C401.196 4.092 344.506 19.282 319 63.459l26.229 15.143c23.611-34.386 64.154-51.565 103.813-46.766z" fill="#ff4654"/><path d="M281.033 0h-50.066a8.38 8.38 0 00-8.38 8.38v17.078a8.38 8.38 0 008.38 8.38h50.066a8.38 8.38 0 008.38-8.38V8.38a8.38 8.38 0 00-8.38-8.38z" fill="#f9f6f9"/><path d="M248.761 25.458V8.38a8.38 8.38 0 018.38-8.38h-26.175a8.38 8.38 0 00-8.38 8.38v17.078a8.38 8.38 0 008.38 8.38h26.175a8.38 8.38 0 01-8.38-8.38z" fill="#cbe2ff"/><path d="M256 466.392c-94.132 0-170.715-76.583-170.715-170.715S161.867 124.963 256 124.963s170.715 76.582 170.715 170.714S350.132 466.392 256 466.392zm0-325.977c-85.612 0-155.262 69.65-155.262 155.262S170.388 450.94 256 450.94s155.262-69.651 155.262-155.263c0-85.611-69.651-155.262-155.262-155.262z" fill="#ff7f87"/><path d="M256 175.303c-8.534 0-15.453 6.918-15.453 15.453v80.962l.596.973h28.968l1.341-.973v-80.962c0-8.534-6.918-15.453-15.452-15.453z" fill="#ff636e"/><path d="M256 190.756c0-5.716 3.112-10.695 7.726-13.368a15.357 15.357 0 00-7.726-2.084c-8.534 0-15.453 6.918-15.453 15.453v80.962l.596.973h15.453l-.596-.974z" fill="#ff4654"/><path d="M256 321.452l-23.876-12.748h-1.489l-32.526 56.333c-4.268 7.391-1.735 16.841 5.656 21.109 7.39 4.268 16.841 1.736 21.109-5.655l32.52-56.322z" fill="#6e60b8"/><path d="M214.086 366.859l29.916-51.813-11.879-6.343h-1.489l-32.526 56.333c-4.268 7.391-1.735 16.841 5.656 21.109a15.406 15.406 0 0011.734 1.542c-4.513-5.835-5.329-14.045-1.412-20.828z" fill="#6353b2"/><path d="M265.991 268.962c-9.225 5.341-15.452 15.31-15.452 26.716 0 11.405 6.226 21.374 15.452 26.716 10.815-4.058 18.534-14.501 18.534-26.716.001-12.216-7.718-22.658-18.534-26.716z" fill="#cbe2ff"/><path d="M251.876 295.677c0-11.366 6.683-21.197 16.325-25.779A28.351 28.351 0 00256 267.151c-15.73 0-28.526 12.797-28.526 28.526s12.797 28.526 28.526 28.526c4.363 0 8.5-.988 12.201-2.747-9.642-4.581-16.325-14.413-16.325-25.779z" fill="#9dc6fb"/><path d="M19.607 163.567a7.725 7.725 0 012.828-10.554l173.17-99.98c3.696-2.135 8.42-.868 10.554 2.828s.868 8.421-2.828 10.554l-173.17 99.98a7.725 7.725 0 01-10.554-2.828zm462.231 2.828l-173.169-99.98a7.725 7.725 0 01-2.828-10.554 7.725 7.725 0 0110.554-2.828l173.17 99.98a7.725 7.725 0 012.828 10.554 7.726 7.726 0 01-10.555 2.828z" fill="#ff7f87"/></svg>