<svg viewBox="0 0 512 512" xmlns="http://www.w3.org/2000/svg"><path d="M150.399 239.282C65.233 231.284 0 160.664 0 75V45C0 20.186 20.186 0 45 0s45 20.186 45 45c0 8.276 6.724 15 15 15h31c8.291 0 15 6.709 15 15s-6.709 15-15 15h-31c-24.814 0-45-20.186-45-45 0-8.276-6.724-15-15-15s-15 6.724-15 15v30c0 70.093 53.544 127.866 123.212 134.399 8.247.776 14.297 8.101 13.535 16.348-.776 8.221-8.056 14.289-16.348 13.535z" fill="#ffbe40"/><path d="M346.253 225.747c-.762-8.247 5.288-15.571 13.535-16.348C429.456 202.866 482 145.093 482 75V45c0-8.276-6.724-15-15-15s-15 6.724-15 15c0 24.814-20.186 45-45 45h-30c-8.291 0-15-6.709-15-15s6.709-15 15-15h30c8.276 0 15-6.724 15-15 0-24.814 20.186-45 45-45s45 20.186 45 45v30c0 85.664-64.233 156.284-149.399 164.282-8.291.754-15.572-5.313-16.348-13.535z" fill="#ff9f40"/><path d="M377 0H136c-8.291 0-15 6.709-15 15v150c0 57.349 36.46 107.944 90 126.841V407h90V291.841c53.54-18.896 91-69.492 91-126.841V15c0-8.291-6.709-15-15-15z" fill="#ffdf40"/><path d="M301 291.841c53.54-18.896 91-69.492 91-126.841V15c0-8.291-6.709-15-15-15H256v407h45z" fill="#ffbe40"/><path d="M332.611 115.664a15.004 15.004 0 00-12.114-10.21l-35.273-5.127-15.776-31.963c-2.52-5.127-7.983-7.69-13.447-7.69s-10.928 2.563-13.447 7.69l-15.776 31.963-35.273 5.127a15.004 15.004 0 00-12.114 10.21 15.002 15.002 0 003.794 15.366l25.532 24.888-6.021 35.127a14.99 14.99 0 005.962 14.663c4.614 3.369 10.796 3.809 15.791 1.143L256 190.283l31.553 16.567a14.955 14.955 0 0015.791-1.143 14.99 14.99 0 005.962-14.663l-6.021-35.127 25.532-24.888a15 15 0 003.794-15.365z" fill="#ffbe40"/><path d="M303.344 205.708a14.99 14.99 0 005.962-14.663l-6.021-35.127 25.532-24.888a15.002 15.002 0 003.794-15.366 15.004 15.004 0 00-12.114-10.21l-35.273-5.127-15.776-31.963c-2.52-5.127-7.983-7.69-13.447-7.69v129.609l31.553 16.567a14.951 14.951 0 0015.79-1.142z" fill="#ff9f40"/><path d="M376 452h-15v-45c0-8.291-6.709-15-15-15H166c-8.291 0-15 6.709-15 15v45h-15c-8.291 0-15 6.709-15 15v30c0 8.291 6.709 15 15 15h240c8.291 0 15-6.709 15-15v-30c0-8.291-6.709-15-15-15z" fill="#4d6699"/><path d="M391 497v-30c0-8.291-6.709-15-15-15h-15v-45c0-8.291-6.709-15-15-15h-90v120h120c8.291 0 15-6.709 15-15z" fill="#404b80"/><path d="M286 437h-60c-8.291 0-15 6.709-15 15s6.709 15 15 15h60c8.291 0 15-6.709 15-15s-6.709-15-15-15z" fill="#404b80"/><path d="M301 452c0-8.291-6.709-15-15-15h-30v30h30c8.291 0 15-6.709 15-15z" fill="#336"/></svg>