<svg id="_x33_0" enable-background="new 0 0 64 64" viewBox="0 0 64 64" xmlns="http://www.w3.org/2000/svg"><g><g><g><path d="m43 54 2 8h-22l2-8z" fill="#aab2bd"/></g><g><path d="m62 42v10c0 1.1-.9 2-2 2h-17-18-17c-1.1 0-2-.9-2-2v-4h27c.55 0 1-.45 1-1v-5z" fill="#ccd1d9"/></g><g><path d="m46 46h12v4h-12z" fill="#ff826e"/></g><g><path d="m62 42h-28v-36h26c1.1 0 2 .9 2 2z" fill="#69d6f4"/></g><g><path d="m38 10h20v4h-20z" fill="#ff826e"/></g><g><path d="m34 42v5c0 .55-.45 1-1 1h-27-3c-.55 0-1-.45-1-1v-44c0-.55.45-1 1-1h30c.55 0 1 .45 1 1v3z" fill="#e6e9ed"/></g><g><path d="m25.61 19.18c-.4 1.2-1.09 2.27-2 3.14l-.71.68-.03-.01c.09-.31.13-.65.13-.99v-3.28c0-.43-.28-.81-.68-.95-1.53-.51-2.91-1.36-4.05-2.5l-.27-.27v-5h2c.94 0 1.86.22 2.68.63.83.41 1.56 1.01 2.12 1.77.78 1.04 1.2 2.3 1.2 3.6v.75c0 .83-.13 1.65-.39 2.43z" fill="#656d78"/></g><g><path d="m12.39 22.32c-.91-.87-1.6-1.94-2-3.14-.26-.78-.39-1.6-.39-2.43v-.75c0-1.3.42-2.56 1.2-3.6 1.13-1.51 2.91-2.4 4.8-2.4h2v5l-.27.27c-1.14 1.14-2.52 1.99-4.05 2.5-.4.14-.68.52-.68.95v3.28c0 .34.04.68.13.99l-.03.01z" fill="#656d78"/></g><g><path d="m12.65 28.59 2.35-.59.11.21c.54 1.1 1.66 1.79 2.89 1.79s2.35-.69 2.89-1.79l.11-.21 2.35.59c1.08.27 2.07.83 2.85 1.61 1.15 1.15 1.8 2.71 1.8 4.34v5.46h-4-12-4v-5.46c0-1.63.65-3.19 1.8-4.34.78-.78 1.77-1.34 2.85-1.61z" fill="#fcd770"/></g><g><path d="m19 26c.5 0 .99-.09 1.43-.27v.01l.57 2.26-.11.21c-.54 1.1-1.66 1.79-2.89 1.79s-2.35-.69-2.89-1.79l-.11-.21.57-2.26v-.01c.44.18.92.27 1.43.27z" fill="#f0d0b4"/></g><g><path d="m23 18.72v3.28c0 .34-.04.68-.13.99-.32 1.26-1.24 2.28-2.44 2.74-.44.18-.93.27-1.43.27h-2c-.51 0-.99-.09-1.43-.27-1.2-.46-2.12-1.48-2.44-2.74-.09-.31-.13-.65-.13-.99v-3.28c0-.43.28-.81.68-.95 1.53-.51 2.91-1.36 4.05-2.5l.27-.27.27.27c1.14 1.14 2.52 1.99 4.05 2.5.4.14.68.52.68.95z" fill="#f0d0b4"/></g></g><g><path d="m23.593 27.618-1.769-.442-.231-.922c.986-.604 1.736-1.534 2.117-2.644l.593-.565c1.025-.977 1.803-2.202 2.25-3.544.297-.89.447-1.813.447-2.749v-.752c0-1.506-.498-2.997-1.4-4.199-1.314-1.754-3.408-2.801-5.6-2.801h-4c-2.192 0-4.286 1.047-5.6 2.8-.902 1.203-1.4 2.694-1.4 4.2v.752c0 .936.15 1.859.446 2.748.447 1.342 1.226 2.567 2.251 3.545l.592.564c.381 1.111 1.131 2.041 2.117 2.644l-.231.922-1.768.442c-1.254.313-2.401.962-3.316 1.877-1.348 1.35-2.091 3.142-2.091 5.049v6.457h4 2 16v-6.457c0-1.907-.743-3.699-2.091-5.048-.915-.915-2.062-1.564-3.316-1.877zm.407-14.617c.645.858 1 1.924 1 2.999v.752c0 .72-.116 1.432-.343 2.115-.163.489-.387.955-.657 1.393v-1.539c0-.862-.55-1.625-1.367-1.896-1.361-.454-2.616-1.229-3.633-2.24v-3.585h1c1.566 0 3.061.748 4 2.001zm-12.657 5.866c-.227-.683-.343-1.395-.343-2.115v-.752c0-1.075.355-2.141 1-3 .938-1.252 2.434-2 4-2h1v3.584c-1.017 1.011-2.271 1.786-3.632 2.239-.818.273-1.368 1.035-1.368 1.898v1.539c-.27-.438-.494-.904-.657-1.393zm2.657-.146c1.473-.49 2.845-1.291 4-2.329 1.155 1.038 2.526 1.838 4 2.329v3.279c0 1.654-1.346 3-3 3h-2c-1.654 0-3-1.346-3-3zm3 8.279h2c.24 0 .47-.038.701-.071l.233.931c-.397.701-1.121 1.14-1.934 1.14s-1.537-.439-1.934-1.14l.233-.931c.231.033.461.071.701.071zm10 12h-2v-4h-2v4h-10v-4h-2v4h-2v-4.457c0-1.373.535-2.663 1.505-3.634.659-.658 1.484-1.126 2.387-1.352l1.612-.403c.782 1.151 2.076 1.846 3.496 1.846s2.714-.695 3.496-1.845l1.612.403c.902.226 1.728.693 2.387 1.352.97.97 1.505 2.26 1.505 3.633z"/><path d="m45 51h14v-6h-14zm6-2v-2h2v2zm6 0h-2v-2h2zm-10-2h2v2h-2z"/><path d="m60 5h-25v-2c0-1.103-.897-2-2-2h-30c-1.103 0-2 .897-2 2v44c0 1.103.897 2 2 2h2v3c0 1.654 1.346 3 3 3h15.719l-1.5 6h-3.219v2h30v-2h-3.219l-1.5-6h15.719c1.654 0 3-1.346 3-3v-44c0-1.654-1.346-3-3-3zm0 2c.551 0 1 .448 1 1v33h-26v-34zm-57-4h30l.001 44h-30.001zm40.719 58h-19.438l1.5-6h16.438zm16.281-8h-52c-.551 0-1-.448-1-1v-3h26c1.103 0 2-.897 2-2v-4h26v9c0 .552-.449 1-1 1z"/><path d="m55 19.101v-2.101h-2v2h-4v5c0 2.757 2.243 5 5 5 1.654 0 3 1.346 3 3v3h-3c-1.654 0-3-1.346-3-3v-3h-2v3c0 2.414 1.721 4.434 4 4.899v2.101h2v-2h4v-5c0-2.757-2.243-5-5-5-1.654 0-3-1.346-3-3v-3h3c1.654 0 3 1.346 3 3v3h2v-3c0-2.414-1.721-4.434-4-4.899z"/><path d="m59 9h-22v6h22zm-2 4h-18v-2h18z"/><path d="m37 19h4v2h-4z"/><path d="m43 19h4v2h-4z"/><path d="m37 23h10v2h-10z"/><path d="m37 27h10v2h-10z"/><path d="m37 31h10v2h-10z"/><path d="m37 35h2v2h-2z"/><path d="m41 35h2v2h-2z"/><path d="m45 35h2v2h-2z"/></g></g></svg>