<svg id="Layer_1" enable-background="new 0 0 256 256" viewBox="0 0 256 256" xmlns="http://www.w3.org/2000/svg"><g><g><g><path d="m177.678 239.964-3.527 2.036c-2.87 1.657-6.539.674-8.196-2.196l-63.289-109.62c-1.657-2.87-.674-6.539 2.196-8.196l3.527-2.036c2.87-1.657 6.539-.674 8.196 2.196l63.289 109.62c1.657 2.869.673 6.539-2.196 8.196z" fill="#a4c9ff"/></g><g><path d="m62.003 239.964 3.526 2.036c2.87 1.657 6.539.674 8.196-2.196l63.289-109.62c1.657-2.87.674-6.539-2.196-8.196l-3.527-2.036c-2.87-1.657-6.539-.674-8.196 2.196l-63.289 109.62c-1.656 2.869-.673 6.539 2.197 8.196z" fill="#a4c9ff"/></g></g><g><g><path d="m171.164 244.808c-.695 0-1.395-.092-2.084-.276-2.064-.553-3.789-1.877-4.857-3.728l-63.289-109.62c-1.068-1.85-1.353-4.006-.799-6.07.553-2.064 1.877-3.789 3.728-4.858l3.526-2.036c3.819-2.205 8.722-.89 10.928 2.929l63.29 109.62c2.204 3.82.891 8.723-2.929 10.929l-3.526 2.036c-1.233.709-2.602 1.074-3.988 1.074zm-59.782-123.66c-.679 0-1.365.173-1.993.535l-3.526 2.036c-.926.534-1.588 1.396-1.864 2.429s-.135 2.11.399 3.035l63.29 109.62c.534.926 1.396 1.588 2.428 1.864 1.032.275 2.111.136 3.036-.4l3.526-2.036c1.91-1.103 2.566-3.554 1.464-5.464l-63.289-109.62c-.741-1.281-2.088-1.999-3.471-1.999zm66.296 118.816h.01z" fill="#3762cc"/></g><g><path d="m68.516 244.803c-1.356 0-2.729-.345-3.986-1.07l-3.526-2.036c-1.851-1.069-3.175-2.794-3.728-4.858-.554-2.063-.27-4.22.799-6.07l63.289-109.62c2.205-3.819 7.104-5.134 10.929-2.929l3.526 2.036c1.851 1.069 3.175 2.794 3.728 4.858.554 2.064.27 4.221-.8 6.07l-63.288 109.62c-1.481 2.563-4.177 3.999-6.943 3.999zm-5.513-6.572 3.526 2.036c1.91 1.104 4.361.446 5.464-1.464l63.289-109.62c.535-.925.677-2.003.4-3.035s-.938-1.895-1.864-2.429l-3.526-2.036c-1.909-1.103-4.361-.445-5.465 1.464l-63.288 109.62c-.535.926-.677 2.003-.4 3.035s.938 1.895 1.864 2.429z" fill="#3762cc"/></g></g><g><path d="m227.024 191.691h-214.368c-4.418 0-8-3.582-8-8v-139.365c0-4.418 3.582-8 8-8h214.368c4.418 0 8 3.582 8 8v139.365c0 4.418-3.581 8-8 8z" fill="#e0ebfc"/></g><g><path d="m15.371 176.975v-125.935c0-2.209 1.791-4 4-4h200.939c2.209 0 4 1.791 4 4v125.935c0 2.209-1.791 4-4 4h-200.939c-2.209 0-4-1.79-4-4z" fill="#4671c6"/></g><g><g><path d="m161.079 135.766-4.495-14.155c-.821-2.584.45-5.369 2.939-6.444l18.045-7.792c1.053-.455 1.053-1.948 0-2.402l-18.045-7.792c-2.489-1.075-3.759-3.86-2.939-6.444l4.495-14.155c.326-1.028-.661-1.987-1.678-1.631l-11.423 3.99c-3.432 1.199-7.02-1.349-7.02-4.984v-13.712c0-1.172-1.422-1.753-2.242-.916l-6.181 6.303c-2.366 2.412-6.357 2.012-8.197-.822l-6.919-10.661c-.516-.795-1.679-.795-2.195 0l-6.919 10.661c-1.84 2.834-5.831 3.235-8.197.822l-6.181-6.303c-.82-.837-2.242-.256-2.242.916v13.713c0 3.635-3.588 6.182-7.02 4.984l-11.423-3.99c-1.018-.356-2.005.604-1.678 1.631l4.495 14.155c.821 2.584-.45 5.369-2.939 6.444l-18.045 7.792c-1.053.455-1.053 1.948 0 2.402l18.045 7.792c2.489 1.075 3.759 3.86 2.939 6.444l-4.495 14.155c-.326 1.028.661 1.987 1.678 1.631l11.423-3.99c3.432-1.199 7.02 1.349 7.02 4.984v13.713c0 1.172 1.422 1.753 2.242.916l6.181-6.303c2.366-2.412 6.357-2.012 8.197.822l6.919 10.661c.516.795 1.679.795 2.195 0l6.919-10.661c1.84-2.834 5.831-3.235 8.197-.822l6.181 6.303c.82.837 2.242.256 2.242-.916v-13.713c0-3.635 3.588-6.182 7.02-4.984l11.423 3.99c1.018.355 2.004-.604 1.678-1.632z" fill="#f9a7a7"/></g><g><g><path d="m129.983 124.919h15.756c1.369 0 2.48 1.11 2.48 2.48v7.749c0 2.739-2.22 4.959-4.959 4.959h-16.893c-3.195 0-5.786-2.59-5.786-5.786.001-5.192 4.21-9.402 9.402-9.402z" fill="#f9cfcf"/></g><g><path d="m143.26 142.106h-16.893c-4.293 0-7.785-3.492-7.785-7.785 0-6.287 5.114-11.402 11.401-11.402h15.756c2.47 0 4.479 2.01 4.479 4.479v7.749c.001 3.837-3.121 6.959-6.958 6.959zm-13.277-15.187c-4.081 0-7.401 3.32-7.401 7.402 0 2.087 1.698 3.785 3.785 3.785h16.893c1.632 0 2.959-1.327 2.959-2.959v-7.749c0-.265-.215-.479-.479-.479z" fill="#3762cc"/></g><g><path d="m87.048 86.727 4.579-5.861c1.253-1.604 3.175-2.541 5.21-2.541h38.965c2.035 0 3.957.937 5.21 2.541l4.579 5.861c1.702 2.179 2.627 4.864 2.627 7.628v8.145 25.209c0 1.826-1.48 3.306-3.306 3.306h-9.337c-1.826 0-3.306-1.48-3.306-3.306 0 1.826-1.48 3.306-3.306 3.306h-9.337c-1.826 0-3.306-1.48-3.306-3.306 0 1.826-1.48 3.306-3.306 3.306h-9.337c-1.826 0-3.306-1.48-3.306-3.306 0 1.826-1.48 3.306-3.306 3.306h-9.337c-1.826 0-3.306-1.48-3.306-3.306v-25.209-8.145c0-2.764.924-5.45 2.626-7.628z" fill="#f9cfcf"/></g><g><path d="m144.913 133.015h-9.337c-1.249 0-2.399-.434-3.307-1.158-.907.725-2.057 1.158-3.306 1.158h-9.338c-1.249 0-2.398-.434-3.306-1.158-.907.725-2.057 1.158-3.306 1.158h-9.338c-1.249 0-2.398-.434-3.306-1.158-.907.725-2.058 1.158-3.307 1.158h-9.337c-2.926 0-5.306-2.38-5.306-5.306v-33.354c0-3.196 1.083-6.343 3.05-8.86l4.579-5.861c1.646-2.104 4.119-3.31 6.787-3.31h38.965c2.668 0 5.142 1.206 6.786 3.309l4.58 5.862c1.967 2.518 3.05 5.664 3.05 8.86v33.354c.003 2.926-2.377 5.306-5.303 5.306zm-10.643-5.306c0 .72.586 1.306 1.307 1.306h9.337c.72 0 1.306-.586 1.306-1.306v-33.354c0-2.308-.782-4.58-2.202-6.397l-4.579-5.861c-.881-1.126-2.205-1.772-3.635-1.772h-38.966c-1.43 0-2.754.646-3.636 1.773l-4.578 5.86c-1.42 1.817-2.202 4.09-2.202 6.397v33.354c0 .72.586 1.306 1.306 1.306h9.337c.721 0 1.307-.586 1.307-1.306 0-1.104.896-2 2-2s2 .896 2 2c0 .72.586 1.306 1.306 1.306h9.338c.72 0 1.306-.586 1.306-1.306 0-1.104.896-2 2-2s2 .896 2 2c0 .72.586 1.306 1.306 1.306h9.338c.72 0 1.306-.586 1.306-1.306 0-1.104.896-2 2-2s1.998.895 1.998 2zm-47.222-40.982h.01z" fill="#3762cc"/></g><g><path d="m132.27 129.709c-1.104 0-2-.896-2-2v-25.209c0-1.104.896-2 2-2s2 .896 2 2v25.209c0 1.104-.896 2-2 2z" fill="#3762cc"/></g><g><path d="m116.32 129.709c-1.104 0-2-.896-2-2v-25.209c0-1.104.896-2 2-2s2 .896 2 2v25.209c0 1.104-.895 2-2 2z" fill="#3762cc"/></g><g><path d="m100.371 129.709c-1.104 0-2-.896-2-2v-25.209c0-1.104.896-2 2-2s2 .896 2 2v25.209c0 1.104-.895 2-2 2z" fill="#3762cc"/></g></g></g><g><path d="m227.024 193.69h-214.368c-5.514 0-10-4.486-10-10v-139.364c0-5.514 4.486-10 10-10h214.368c5.514 0 10 4.486 10 10v139.364c0 5.514-4.486 10-10 10zm-214.368-155.364c-3.309 0-6 2.691-6 6v139.364c0 3.309 2.691 6 6 6h214.368c3.309 0 6-2.691 6-6v-139.364c0-3.309-2.691-6-6-6z" fill="#3762cc"/></g><g><path d="m220.31 182.976h-200.939c-3.309 0-6-2.691-6-6v-125.936c0-3.309 2.691-6 6-6h200.939c3.309 0 6 2.691 6 6v125.936c0 3.308-2.692 6-6 6zm-200.939-133.936c-1.103 0-2 .897-2 2v125.936c0 1.103.897 2 2 2h200.939c1.103 0 2-.897 2-2v-125.936c0-1.103-.897-2-2-2z" fill="#3762cc"/></g><g><path d="m163.985 191.691h-88.29c-1.657 0-3-1.343-3-3v-19.358c0-1.657 1.343-3 3-3h88.29c1.657 0 3 1.343 3 3v19.358c0 1.656-1.343 3-3 3z" fill="#a4c9ff"/></g><g><path d="m163.985 193.69h-88.29c-2.757 0-5-2.243-5-5v-19.358c0-2.757 2.243-5 5-5h88.29c2.757 0 5 2.243 5 5v19.358c0 2.757-2.243 5-5 5zm-88.29-25.358c-.552 0-1 .448-1 1v19.358c0 .552.448 1 1 1h88.29c.552 0 1-.448 1-1v-19.358c0-.552-.448-1-1-1z" fill="#3762cc"/></g><g><g><circle cx="203" cy="181" fill="#6bdddd" r="50"/></g><g><circle cx="203" cy="181" fill="#4671c6" r="38"/></g><g><path d="m203 233c-28.673 0-52-23.327-52-52s23.327-52 52-52 52 23.327 52 52-23.327 52-52 52zm0-100c-26.468 0-48 21.532-48 48s21.532 48 48 48 48-21.532 48-48-21.532-48-48-48z" fill="#3762cc"/></g></g><g><g><path d="m200.735 203.308c-5.442-.456-10.157-2.094-14.145-4.915-1.092-.746-1.624-1.85-1.624-3.034 0-.997.356-1.887 1.069-2.671 1.312-1.443 3.245-1.485 4.958-.534 1.497.764 8.582 5.38 16.367 2.927 2.215-.696 3.803-2.161 3.803-4.466 0-1.583-1.065-2.658-2.436-3.462-1.478-.865-2.438-1.018-9.487-2.863-6.578-1.857-13.058-3.547-14.145-10.086-1.592-9.528 5.156-14.438 14.957-15.043v-8.889c0-1.875 1.328-2.906 2.821-2.906 1.775 0 2.992 1.289 2.992 2.906v8.974c3.304.342 6.71 1.34 10.214 2.992 1.713.799 2.522 2.24 2.522 3.718 0 .94-.314 1.759-.94 2.457-1.309 1.458-3.467 1.151-4.701.534-3.989-1.396-7.379-2.094-10.171-2.094-3.142 0-7.222.85-7.222 3.889 0 2.634 1.609 3.527 5.555 4.487 7.602 1.901 12.584 2.844 16.474 6.09 2.6 2.173 3.526 5.073 3.526 8.483 0 5.442-2.807 9.419-7.03 11.517-2.152 1.069-4.666 1.731-7.543 1.987v8.419c0 .883-.3 1.588-.897 2.116-.598.527-1.297.79-2.094.79-.485 0-.933-.107-1.346-.32-.413-.214-.763-.542-1.047-.983-.285-.442-.427-.977-.427-1.603v-8.417z" fill="#ffea92"/></g></g><g><path d="m157.003 174.184h88.377v12h-88.377z" fill="#6bdddd" transform="matrix(.707 -.707 .707 .707 -68.482 195.038)"/></g></g></svg>