<svg id="Capa_1" enable-background="new 0 0 512 512" viewBox="0 0 512 512" xmlns="http://www.w3.org/2000/svg"><g><g><g><g><g><g><g><g><g><g><g><g><g><g><g><g><circle cx="256" cy="256" fill="#424ede" r="256"/></g></g></g></g></g></g></g></g></g></g></g></g></g></g></g><path d="m131.975 402.634 108.91 108.91c5.003.291 10.039.456 15.115.456 141.385 0 256-114.615 256-256 0-10.195-.615-20.246-1.774-30.13l-124.332-124.332z" fill="#3340dc"/><g><path d="m255.89 101.538h-93.429c-20.2 0-36.575 16.375-36.575 36.575v244.267l130.004-25.692 60.571-122.305z" fill="#ff6379"/><path d="m255.89 101.538h130.004v255.425h-130.004z" fill="#ff415b"/><g><g><g><path d="m217.174 252.371h-36.282l-7.152 16.793h-13.891l32.653-72.563h13.269l32.757 72.563h-14.098zm-4.458-10.574-13.684-31.72-13.58 31.72z" fill="#ffd357"/><path d="m341.981 257.761v11.403h-61.886v-9.019l42.709-52.142h-41.983v-11.403h59.813v9.019l-42.708 52.142z" fill="#ffb806"/></g></g><path d="m242.374 234.029h27.034v10.781h-27.034z" fill="#ffd357"/><path d="m255.891 234.029h13.517v10.781h-13.517z" fill="#ffb806"/></g><g><path d="m162.303 418.921c-20.081 0-36.417-16.336-36.417-36.417s16.336-36.417 36.417-36.417h93.588l11.267 38.866-11.267 33.968z" fill="#ff415b"/><path d="m255.891 418.921h130.003v-11l-6.568-25.417 6.568-25.418v-10.999h-130.003z" fill="#b30042"/><path d="m162.304 357.086c-14.037 0-25.417 11.38-25.417 25.417s11.38 25.417 25.417 25.417h93.586l14.504-25.417-14.504-25.417z" fill="#fff"/><path d="m255.891 357.086h130.003v50.834h-130.003z" fill="#d7e8ff"/></g><path d="m344.833 438.464-23.941-20.001-23.94 20.001v-67.101h47.881z" fill="#ffb806"/></g></g></svg>