<?xml version="1.0" encoding="iso-8859-1"?>
<!-- Generator: Adobe Illustrator 19.0.0, SVG Export Plug-In . SVG Version: 6.00 Build 0)  -->
<svg version="1.1" id="Capa_1" xmlns="http://www.w3.org/2000/svg" xmlns:xlink="http://www.w3.org/1999/xlink" x="0px" y="0px"
	 viewBox="0 0 511.999 511.999" style="enable-background:new 0 0 511.999 511.999;" xml:space="preserve">
<circle style="fill:#34ABE0;" cx="255.999" cy="255.999" r="255.999"/>
<path style="fill:#F9EED7;" d="M471.252,88.659v305.966c-17.847,27.669-40.897,51.681-67.751,70.635
	c-7.471,5.277-15.235,10.167-23.27,14.629c-36.78,20.449-79.151,32.11-124.228,32.11s-87.447-11.661-124.228-32.11
	c-8.035-4.462-15.799-9.352-23.27-14.629c-26.854-18.954-49.904-42.966-67.751-70.635V22.8c0-12.591,10.209-22.8,22.8-22.8h319.038
	L471.252,88.659z"/>
<g>
	<path style="fill:#FF525D;" d="M102.621,113.347c0-2.894,2.662-5.441,6.713-5.441h23.962c15.28,0,27.318,7.176,27.318,26.623v0.579
		c0,19.447-12.501,26.855-28.475,26.855h-11.459v25.002c0,3.704-4.515,5.556-9.029,5.556c-4.515,0-9.029-1.852-9.029-5.556V113.347z
		 M120.679,123.649v24.423h11.459c6.483,0,10.418-3.704,10.418-11.575v-1.273c0-7.871-3.936-11.575-10.418-11.575L120.679,123.649
		L120.679,123.649z"/>
	<path style="fill:#FF525D;" d="M174.275,113.347c0-2.894,2.199-5.441,5.556-5.441h23.962c15.858,0,28.476,5.904,28.476,24.771
		c0,12.964-5.904,20.372-14.006,23.498l14.122,25.581c0.463,0.695,0.578,1.505,0.578,2.084c0,4.514-6.019,9.376-11.343,9.376
		c-2.315,0-4.515-0.926-5.788-3.357l-15.858-30.79h-7.639v27.897c0,3.704-4.515,5.556-9.029,5.556s-9.029-1.852-9.029-5.556
		L174.275,113.347L174.275,113.347z M192.333,123.649v21.53h11.459c6.483,0,10.418-2.662,10.418-10.766
		c0-8.102-3.936-10.766-10.418-10.766h-11.459V123.649z"/>
	<path style="fill:#FF525D;" d="M247.666,113.347c0-3.82,4.515-5.441,9.029-5.441c4.514,0,9.029,1.621,9.029,5.441v73.619
		c0,3.704-4.515,5.556-9.029,5.556c-4.515,0-9.029-1.852-9.029-5.556V113.347z"/>
	<path style="fill:#FF525D;" d="M311.563,123.649c-6.597,0-10.418,3.704-10.418,11.575v30.675c0,7.871,3.819,11.575,10.534,11.575
		c9.26,0,9.839-7.061,10.187-11.575c0.347-4.283,4.283-5.441,8.913-5.441c6.251,0,9.144,1.621,9.144,8.566
		c0,15.395-12.501,24.192-29.054,24.192c-15.164,0-27.781-7.408-27.781-27.318v-30.675c0-19.909,12.617-27.318,27.781-27.318
		c16.553,0,29.054,8.334,29.054,23.035c0,6.945-2.893,8.566-9.029,8.566c-4.862,0-8.797-1.274-9.029-5.44
		C321.75,131.057,321.402,123.649,311.563,123.649z"/>
	<path style="fill:#FF525D;" d="M372.916,143.211h17.363c3.472,0,5.441,3.357,5.441,7.061c0,3.125-1.621,6.829-5.441,6.829h-17.363
		v19.679h31.022c3.472,0,5.441,3.704,5.441,7.987c0,3.704-1.621,7.755-5.441,7.755H362.73c-3.936,0-7.871-1.852-7.871-5.556v-73.503
		c0-3.704,3.936-5.556,7.871-5.556h41.208c3.82,0,5.441,4.051,5.441,7.755c0,4.283-1.969,7.987-5.441,7.987h-31.022V143.211z"/>
</g>
<g>
	<path style="fill:#5C5E70;" d="M410.121,296.824H199.055c-4.04,0-7.314-3.275-7.314-7.314l0,0c0-4.04,3.275-7.314,7.314-7.314
		h211.066c4.04,0,7.314,3.275,7.314,7.314l0,0C417.435,293.549,414.16,296.824,410.121,296.824z"/>
	<path style="fill:#5C5E70;" d="M410.121,418.867H199.055c-4.04,0-7.314-3.275-7.314-7.314l0,0c0-4.04,3.275-7.314,7.314-7.314
		h211.066c4.04,0,7.314,3.275,7.314,7.314l0,0C417.435,415.593,414.16,418.867,410.121,418.867z"/>
	<path style="fill:#5C5E70;" d="M410.121,235.802H199.055c-4.04,0-7.314-3.275-7.314-7.314l0,0c0-4.04,3.275-7.314,7.314-7.314
		h211.066c4.04,0,7.314,3.275,7.314,7.314l0,0C417.435,232.527,414.16,235.802,410.121,235.802z"/>
	<path style="fill:#5C5E70;" d="M410.121,357.845H199.055c-4.04,0-7.314-3.275-7.314-7.314l0,0c0-4.04,3.275-7.314,7.314-7.314
		h211.066c4.04,0,7.314,3.275,7.314,7.314l0,0C417.435,354.571,414.16,357.845,410.121,357.845z"/>
	<path style="fill:#5C5E70;" d="M403.501,465.261c-7.471,5.277-15.235,10.167-23.27,14.629H199.057
		c-4.044,0-7.314-3.271-7.314-7.314c0-2.027,0.815-3.845,2.142-5.172c1.327-1.327,3.145-2.142,5.172-2.142H403.501z"/>
	<path style="fill:#5C5E70;" d="M154.124,296.824h-52.245c-4.04,0-7.314-3.275-7.314-7.314l0,0c0-4.04,3.275-7.314,7.314-7.314
		h52.245c4.04,0,7.314,3.275,7.314,7.314l0,0C161.439,293.549,158.164,296.824,154.124,296.824z"/>
	<path style="fill:#5C5E70;" d="M154.124,418.867h-52.245c-4.04,0-7.314-3.275-7.314-7.314l0,0c0-4.04,3.275-7.314,7.314-7.314
		h52.245c4.04,0,7.314,3.275,7.314,7.314l0,0C161.439,415.593,158.164,418.867,154.124,418.867z"/>
	<path style="fill:#5C5E70;" d="M154.124,235.802h-52.245c-4.04,0-7.314-3.275-7.314-7.314l0,0c0-4.04,3.275-7.314,7.314-7.314
		h52.245c4.04,0,7.314,3.275,7.314,7.314l0,0C161.439,232.527,158.164,235.802,154.124,235.802z"/>
	<path style="fill:#5C5E70;" d="M154.124,357.845h-52.245c-4.04,0-7.314-3.275-7.314-7.314l0,0c0-4.04,3.275-7.314,7.314-7.314
		h52.245c4.04,0,7.314,3.275,7.314,7.314l0,0C161.439,354.571,158.164,357.845,154.124,357.845z"/>
	<path style="fill:#5C5E70;" d="M161.441,472.575c0,2.027-0.815,3.845-2.142,5.172c-1.327,1.327-3.156,2.142-5.172,2.142h-22.35
		c-8.035-4.462-15.799-9.352-23.27-14.629h45.62C158.16,465.261,161.441,468.531,161.441,472.575z"/>
</g>
<polygon style="fill:#E8DBC4;" points="416.918,82.446 471.249,117.374 471.252,88.659 "/>
<path style="fill:#FCF8F2;" d="M382.593,67.006V0l88.659,88.659h-67.006C392.287,88.659,382.593,78.965,382.593,67.006z"/>
<g>
</g>
<g>
</g>
<g>
</g>
<g>
</g>
<g>
</g>
<g>
</g>
<g>
</g>
<g>
</g>
<g>
</g>
<g>
</g>
<g>
</g>
<g>
</g>
<g>
</g>
<g>
</g>
<g>
</g>
</svg>
