<svg viewBox="0 0 64 64" xmlns="http://www.w3.org/2000/svg"><path d="M43 54l2 8H23l2-8z" fill="#aab2bd"/><path d="M62 42v10c0 1.1-.9 2-2 2H8c-1.1 0-2-.9-2-2v-4h27c.55 0 1-.45 1-1v-5z" fill="#ccd1d9"/><path d="M46 46h12v4H46z" fill="#ff826e"/><path d="M62 42H34V6h26c1.1 0 2 .9 2 2z" fill="#69d6f4"/><path d="M38 10h20v4H38z" fill="#ff826e"/><path d="M34 42v5c0 .55-.45 1-1 1H3c-.55 0-1-.45-1-1V3c0-.55.45-1 1-1h30c.55 0 1 .45 1 1v3z" fill="#e6e9ed"/><path d="M25.61 19.18a7.72 7.72 0 01-2 3.14l-.71.68-.03-.01c.09-.31.13-.65.13-.99v-3.28c0-.43-.28-.81-.68-.95a10.33 10.33 0 01-4.05-2.5L18 15v-5h2c.94 0 1.86.22 2.68.63.83.41 1.56 1.01 2.12 1.77.78 1.04 1.2 2.3 1.2 3.6v.75c0 .83-.13 1.65-.39 2.43zm-13.22 3.14a7.72 7.72 0 01-2-3.14c-.26-.78-.39-1.6-.39-2.43V16a5.996 5.996 0 016-6h2v5l-.27.27a10.33 10.33 0 01-4.05 2.5c-.4.14-.68.52-.68.95V22c0 .34.04.68.13.99l-.03.01z" fill="#656d78"/><path d="M12.65 28.59L15 28l.11.21C15.65 29.31 16.77 30 18 30s2.35-.69 2.89-1.79L21 28l2.35.59c1.08.27 2.07.83 2.85 1.61a6.139 6.139 0 011.8 4.34V40H8v-5.46c0-1.63.65-3.19 1.8-4.34.78-.78 1.77-1.34 2.85-1.61z" fill="#fcd770"/><path d="M19 26c.5 0 .99-.09 1.43-.27v.01L21 28l-.11.21C20.35 29.31 19.23 30 18 30s-2.35-.69-2.89-1.79L15 28l.57-2.26v-.01c.44.18.92.27 1.43.27z" fill="#f0d0b4"/><path d="M23 18.72V22c0 .34-.04.68-.13.99a3.996 3.996 0 01-2.44 2.74c-.44.18-.93.27-1.43.27h-2c-.51 0-.99-.09-1.43-.27a3.996 3.996 0 01-2.44-2.74c-.09-.31-.13-.65-.13-.99v-3.28c0-.43.28-.81.68-.95a10.33 10.33 0 004.05-2.5L18 15l.27.27a10.33 10.33 0 004.05 2.5c.4.14.68.52.68.95z" fill="#f0d0b4"/><path d="M23.593 27.618l-1.769-.442-.231-.922a4.998 4.998 0 002.117-2.644l.593-.565a8.721 8.721 0 002.25-3.544A8.66 8.66 0 0027 16.752V16a7.04 7.04 0 00-1.4-4.199A7.03 7.03 0 0020 9h-4a7.032 7.032 0 00-5.6 2.8A7.045 7.045 0 009 16v.752c0 .936.15 1.859.446 2.748a8.733 8.733 0 002.251 3.545l.592.564a4.99 4.99 0 002.117 2.644l-.231.922-1.768.442a7.135 7.135 0 00-3.316 1.877A7.099 7.099 0 007 34.543V41h22v-6.457a7.095 7.095 0 00-2.091-5.048 7.135 7.135 0 00-3.316-1.877zM24 13.001c.645.858 1 1.924 1 2.999v.752c0 .72-.116 1.432-.343 2.115A6.693 6.693 0 0124 20.26v-1.539c0-.862-.55-1.625-1.367-1.896A9.398 9.398 0 0119 14.585V11h1c1.566 0 3.061.748 4 2.001zm-12.657 5.866A6.697 6.697 0 0111 16.752V16c0-1.075.355-2.141 1-3a5.022 5.022 0 014-2h1v3.584a9.38 9.38 0 01-3.632 2.239A1.998 1.998 0 0012 18.721v1.539a6.693 6.693 0 01-.657-1.393zM14 18.721a11.39 11.39 0 004-2.329 11.397 11.397 0 004 2.329V22c0 1.654-1.346 3-3 3h-2c-1.654 0-3-1.346-3-3zM17 27h2c.24 0 .47-.038.701-.071l.233.931C19.537 28.561 18.813 29 18 29s-1.537-.439-1.934-1.14l.233-.931c.231.033.461.071.701.071zm10 12h-2v-4h-2v4H13v-4h-2v4H9v-4.457c0-1.373.535-2.663 1.505-3.634a5.15 5.15 0 012.387-1.352l1.612-.403C15.286 30.305 16.58 31 18 31s2.714-.695 3.496-1.845l1.612.403a5.145 5.145 0 012.387 1.352c.97.97 1.505 2.26 1.505 3.633zm18 12h14v-6H45zm6-2v-2h2v2zm6 0h-2v-2h2zm-10-2h2v2h-2z"/><path d="M60 5H35V3c0-1.103-.897-2-2-2H3c-1.103 0-2 .897-2 2v44c0 1.103.897 2 2 2h2v3c0 1.654 1.346 3 3 3h15.719l-1.5 6H19v2h30v-2h-3.219l-1.5-6H60c1.654 0 3-1.346 3-3V8c0-1.654-1.346-3-3-3zm0 2c.551 0 1 .448 1 1v33H35V7zM3 3h30l.001 44H3zm40.719 58H24.281l1.5-6h16.438zM60 53H8c-.551 0-1-.448-1-1v-3h26c1.103 0 2-.897 2-2v-4h26v9c0 .552-.449 1-1 1z"/><path d="M55 19.101V17h-2v2h-4v5c0 2.757 2.243 5 5 5 1.654 0 3 1.346 3 3v3h-3c-1.654 0-3-1.346-3-3v-3h-2v3a5.01 5.01 0 004 4.899V39h2v-2h4v-5c0-2.757-2.243-5-5-5-1.654 0-3-1.346-3-3v-3h3c1.654 0 3 1.346 3 3v3h2v-3a5.01 5.01 0 00-4-4.899zM59 9H37v6h22zm-2 4H39v-2h18zm-20 6h4v2h-4zm6 0h4v2h-4zm-6 4h10v2H37zm0 4h10v2H37zm0 4h10v2H37zm0 4h2v2h-2zm4 0h2v2h-2zm4 0h2v2h-2z"/></svg>