<svg viewBox="0 0 256 256" xmlns="http://www.w3.org/2000/svg"><path d="M177.678 239.964L174.151 242a6 6 0 01-8.196-2.196l-63.289-109.62a6 6 0 012.196-8.196l3.527-2.036a6 6 0 018.196 2.196l63.289 109.62a6 6 0 01-2.196 8.196z" fill="#a4c9ff"/><path d="M62.003 239.964L65.529 242a6 6 0 008.196-2.196l63.289-109.62a6 6 0 00-2.196-8.196l-3.527-2.036a6 6 0 00-8.196 2.196l-63.289 109.62a6 6 0 002.197 8.196z" fill="#a4c9ff"/><path d="M171.164 244.808a8.075 8.075 0 01-2.084-.276 7.945 7.945 0 01-4.857-3.728l-63.289-109.62a7.944 7.944 0 01-.799-6.07 7.95 7.95 0 013.728-4.858l3.526-2.036c3.819-2.205 8.722-.89 10.928 2.929l63.29 109.62c2.204 3.82.891 8.723-2.929 10.929l-3.526 2.036a7.985 7.985 0 01-3.988 1.074zm-59.782-123.66c-.679 0-1.365.173-1.993.535l-3.526 2.036c-.926.534-1.588 1.396-1.864 2.429s-.135 2.11.399 3.035l63.29 109.62a3.968 3.968 0 002.428 1.864 3.974 3.974 0 003.036-.4l3.526-2.036a4.005 4.005 0 001.464-5.464l-63.289-109.62a4.006 4.006 0 00-3.471-1.999zm66.296 118.816h.01z" fill="#3762cc"/><path d="M68.516 244.803a7.956 7.956 0 01-3.986-1.07l-3.526-2.036a7.95 7.95 0 01-3.728-4.858 7.94 7.94 0 01.799-6.07l63.289-109.62c2.205-3.819 7.104-5.134 10.929-2.929l3.526 2.036a7.95 7.95 0 013.728 4.858 7.935 7.935 0 01-.8 6.07l-63.288 109.62a8.011 8.011 0 01-6.943 3.999zm-5.513-6.572l3.526 2.036a4.004 4.004 0 005.464-1.464l63.289-109.62c.535-.925.677-2.003.4-3.035s-.938-1.895-1.864-2.429l-3.526-2.036a4.007 4.007 0 00-5.465 1.464l-63.288 109.62c-.535.926-.677 2.003-.4 3.035s.938 1.895 1.864 2.429z" fill="#3762cc"/><path d="M227.024 191.691H12.656a8 8 0 01-8-8V44.326a8 8 0 018-8h214.368a8 8 0 018 8v139.365a8 8 0 01-8 8z" fill="#e0ebfc"/><path d="M15.371 176.975V51.04a4 4 0 014-4H220.31a4 4 0 014 4v125.935a4 4 0 01-4 4H19.371a4 4 0 01-4-4z" fill="#4671c6"/><path d="M161.079 135.766l-4.495-14.155a5.279 5.279 0 012.939-6.444l18.045-7.792c1.053-.455 1.053-1.948 0-2.402l-18.045-7.792a5.28 5.28 0 01-2.939-6.444l4.495-14.155c.326-1.028-.661-1.987-1.678-1.631l-11.423 3.99c-3.432 1.199-7.02-1.349-7.02-4.984V60.245c0-1.172-1.422-1.753-2.242-.916l-6.181 6.303c-2.366 2.412-6.357 2.012-8.197-.822l-6.919-10.661a1.308 1.308 0 00-2.195 0l-6.919 10.661c-1.84 2.834-5.831 3.235-8.197.822l-6.181-6.303c-.82-.837-2.242-.256-2.242.916v13.713c0 3.635-3.588 6.182-7.02 4.984l-11.423-3.99c-1.018-.356-2.005.604-1.678 1.631l4.495 14.155a5.279 5.279 0 01-2.939 6.444l-18.045 7.792c-1.053.455-1.053 1.948 0 2.402l18.045 7.792a5.28 5.28 0 012.939 6.444l-4.495 14.155c-.326 1.028.661 1.987 1.678 1.631l11.423-3.99c3.432-1.199 7.02 1.349 7.02 4.984v13.713c0 1.172 1.422 1.753 2.242.916l6.181-6.303c2.366-2.412 6.357-2.012 8.197.822l6.919 10.661a1.308 1.308 0 002.195 0l6.919-10.661c1.84-2.834 5.831-3.235 8.197-.822l6.181 6.303c.82.837 2.242.256 2.242-.916v-13.713c0-3.635 3.588-6.182 7.02-4.984l11.423 3.99c1.018.355 2.004-.604 1.678-1.632z" fill="#f9a7a7"/><path d="M129.983 124.919h15.756a2.48 2.48 0 012.48 2.48v7.749a4.959 4.959 0 01-4.959 4.959h-16.893a5.786 5.786 0 01-5.786-5.786c.001-5.192 4.21-9.402 9.402-9.402z" fill="#f9cfcf"/><path d="M143.26 142.106h-16.893c-4.293 0-7.785-3.492-7.785-7.785 0-6.287 5.114-11.402 11.401-11.402h15.756c2.47 0 4.479 2.01 4.479 4.479v7.749c.001 3.837-3.121 6.959-6.958 6.959zm-13.277-15.187c-4.081 0-7.401 3.32-7.401 7.402a3.79 3.79 0 003.785 3.785h16.893a2.962 2.962 0 002.959-2.959v-7.749a.48.48 0 00-.479-.479z" fill="#3762cc"/><path d="M87.048 86.727l4.579-5.861a6.611 6.611 0 015.21-2.541h38.965c2.035 0 3.957.937 5.21 2.541l4.579 5.861a12.393 12.393 0 012.627 7.628v33.354a3.306 3.306 0 01-3.306 3.306h-9.337a3.306 3.306 0 01-3.306-3.306 3.306 3.306 0 01-3.306 3.306h-9.337a3.306 3.306 0 01-3.306-3.306 3.306 3.306 0 01-3.306 3.306h-9.337a3.306 3.306 0 01-3.306-3.306 3.306 3.306 0 01-3.306 3.306h-9.337a3.306 3.306 0 01-3.306-3.306V94.355c0-2.764.924-5.45 2.626-7.628z" fill="#f9cfcf"/><path d="M144.913 133.015h-9.337a5.289 5.289 0 01-3.307-1.158 5.278 5.278 0 01-3.306 1.158h-9.338a5.286 5.286 0 01-3.306-1.158 5.278 5.278 0 01-3.306 1.158h-9.338a5.286 5.286 0 01-3.306-1.158 5.28 5.28 0 01-3.307 1.158h-9.337a5.312 5.312 0 01-5.306-5.306V94.355c0-3.196 1.083-6.343 3.05-8.86l4.579-5.861a8.564 8.564 0 016.787-3.31H135.8a8.561 8.561 0 016.786 3.309l4.58 5.862a14.457 14.457 0 013.05 8.86v33.354a5.307 5.307 0 01-5.303 5.306zm-10.643-5.306c0 .72.586 1.306 1.307 1.306h9.337c.72 0 1.306-.586 1.306-1.306V94.355c0-2.308-.782-4.58-2.202-6.397l-4.579-5.861a4.586 4.586 0 00-3.635-1.772H96.838c-1.43 0-2.754.646-3.636 1.773l-4.578 5.86a10.438 10.438 0 00-2.202 6.397v33.354c0 .72.586 1.306 1.306 1.306h9.337c.721 0 1.307-.586 1.307-1.306a2 2 0 014 0c0 .72.586 1.306 1.306 1.306h9.338c.72 0 1.306-.586 1.306-1.306a2 2 0 014 0c0 .72.586 1.306 1.306 1.306h9.338c.72 0 1.306-.586 1.306-1.306a1.998 1.998 0 113.998 0zM87.048 86.727h.01z" fill="#3762cc"/><path d="M132.27 129.709a2 2 0 01-2-2V102.5a2 2 0 014 0v25.209a2 2 0 01-2 2zm-15.95 0a2 2 0 01-2-2V102.5a2 2 0 014 0v25.209a2 2 0 01-2 2zm-15.949 0a2 2 0 01-2-2V102.5a2 2 0 014 0v25.209a2 2 0 01-2 2z" fill="#3762cc"/><path d="M227.024 193.69H12.656c-5.514 0-10-4.486-10-10V44.326c0-5.514 4.486-10 10-10h214.368c5.514 0 10 4.486 10 10V183.69c0 5.514-4.486 10-10 10zM12.656 38.326c-3.309 0-6 2.691-6 6V183.69c0 3.309 2.691 6 6 6h214.368c3.309 0 6-2.691 6-6V44.326c0-3.309-2.691-6-6-6z" fill="#3762cc"/><path d="M220.31 182.976H19.371c-3.309 0-6-2.691-6-6V51.04c0-3.309 2.691-6 6-6H220.31c3.309 0 6 2.691 6 6v125.936c0 3.308-2.692 6-6 6zM19.371 49.04c-1.103 0-2 .897-2 2v125.936c0 1.103.897 2 2 2H220.31c1.103 0 2-.897 2-2V51.04c0-1.103-.897-2-2-2z" fill="#3762cc"/><path d="M163.985 191.691h-88.29a3 3 0 01-3-3v-19.358a3 3 0 013-3h88.29a3 3 0 013 3v19.358a3 3 0 01-3 3z" fill="#a4c9ff"/><path d="M163.985 193.69h-88.29c-2.757 0-5-2.243-5-5v-19.358c0-2.757 2.243-5 5-5h88.29c2.757 0 5 2.243 5 5v19.358c0 2.757-2.243 5-5 5zm-88.29-25.358a1 1 0 00-1 1v19.358a1 1 0 001 1h88.29a1 1 0 001-1v-19.358a1 1 0 00-1-1z" fill="#3762cc"/><circle cx="203" cy="181" fill="#6bdddd" r="50"/><circle cx="203" cy="181" fill="#4671c6" r="38"/><path d="M203 233c-28.673 0-52-23.327-52-52s23.327-52 52-52 52 23.327 52 52-23.327 52-52 52zm0-100c-26.468 0-48 21.532-48 48s21.532 48 48 48 48-21.532 48-48-21.532-48-48-48z" fill="#3762cc"/><path d="M200.735 203.308c-5.442-.456-10.157-2.094-14.145-4.915-1.092-.746-1.624-1.85-1.624-3.034 0-.997.356-1.887 1.069-2.671 1.312-1.443 3.245-1.485 4.958-.534 1.497.764 8.582 5.38 16.367 2.927 2.215-.696 3.803-2.161 3.803-4.466 0-1.583-1.065-2.658-2.436-3.462-1.478-.865-2.438-1.018-9.487-2.863-6.578-1.857-13.058-3.547-14.145-10.086-1.592-9.528 5.156-14.438 14.957-15.043v-8.889c0-1.875 1.328-2.906 2.821-2.906 1.775 0 2.992 1.289 2.992 2.906v8.974c3.304.342 6.71 1.34 10.214 2.992 1.713.799 2.522 2.24 2.522 3.718 0 .94-.314 1.759-.94 2.457-1.309 1.458-3.467 1.151-4.701.534-3.989-1.396-7.379-2.094-10.171-2.094-3.142 0-7.222.85-7.222 3.889 0 2.634 1.609 3.527 5.555 4.487 7.602 1.901 12.584 2.844 16.474 6.09 2.6 2.173 3.526 5.073 3.526 8.483 0 5.442-2.807 9.419-7.03 11.517-2.152 1.069-4.666 1.731-7.543 1.987v8.419c0 .883-.3 1.588-.897 2.116a3.07 3.07 0 01-2.094.79c-.485 0-.933-.107-1.346-.32a2.754 2.754 0 01-1.047-.983c-.285-.442-.427-.977-.427-1.603v-8.417z" fill="#ffea92"/><path d="M165.667 207.185l62.483-62.483 8.484 8.484-62.483 62.483z" fill="#6bdddd"/></svg>