<svg viewBox="0 0 512 512" xmlns="http://www.w3.org/2000/svg"><path d="M309.216 512a15.002 15.002 0 01-14.493-11.118l-34.739-129.648c-2.133-7.96 2.556-16.15 10.5-18.342l77.122-21.272a14.997 14.997 0 0118.477 10.578l34.891 130.214a15.001 15.001 0 01-21.988 16.873l-36-20.785-20.784 36a15 15 0 01-12.986 7.5z" fill="#a2003d"/><path d="M202.784 512a14.997 14.997 0 01-12.986-7.5l-20.784-36-35.999 20.785a14.999 14.999 0 01-21.988-16.872l34.89-130.213a15.005 15.005 0 017.036-9.136 14.992 14.992 0 0111.44-1.442l77.123 21.27c7.945 2.19 12.634 10.382 10.501 18.342l-34.739 129.648A15 15 0 01202.784 512z" fill="#d0004f"/><path d="M256 390c-13.741 0-24.566-8.315-33.265-14.995-4.665-3.582-9.488-7.287-12.78-8.167-3.651-.977-9.911-.168-15.964.615-11.252 1.453-24.005 3.102-35.526-3.565-11.664-6.749-16.838-19.236-20.996-29.27-2.303-5.558-4.684-11.305-7.236-13.856-2.552-2.553-8.299-4.934-13.856-7.236-10.033-4.157-22.52-9.332-29.268-20.994-6.665-11.521-5.018-24.274-3.563-35.526.782-6.054 1.591-12.314.616-15.962-.88-3.292-4.584-8.115-8.166-12.779C69.315 219.565 61 208.741 61 195s8.314-24.566 14.995-33.265c3.583-4.664 7.287-9.488 8.167-12.78.976-3.649.167-9.909-.615-15.962-1.454-11.253-3.102-24.006 3.565-35.528 6.748-11.663 19.236-16.838 29.27-20.995 5.557-2.303 11.304-4.685 13.856-7.236 2.552-2.552 4.933-8.299 7.236-13.855 4.158-10.033 9.332-22.521 20.996-29.268 11.522-6.667 24.275-5.019 35.526-3.563 6.054.781 12.313 1.59 15.962.616 3.291-.88 8.114-4.584 12.778-8.167C231.434 8.314 242.259 0 256 0s24.566 8.314 33.265 14.995c4.665 3.582 9.488 7.287 12.78 8.167 3.648.977 9.908.166 15.963-.615 11.252-1.452 24.006-3.101 35.527 3.565 11.664 6.749 16.838 19.236 20.996 29.27 2.303 5.558 4.684 11.305 7.236 13.856 2.552 2.553 8.299 4.934 13.856 7.236 10.033 4.157 22.52 9.332 29.268 20.994 6.666 11.521 5.018 24.274 3.564 35.526-.782 6.054-1.591 12.313-.616 15.962.88 3.292 4.584 8.115 8.167 12.779C442.686 170.435 451 181.259 451 195s-8.314 24.566-14.995 33.265c-3.583 4.664-7.287 9.488-8.168 12.78-.976 3.649-.167 9.909.615 15.962 1.454 11.253 3.102 24.006-3.565 35.528-6.748 11.663-19.236 16.838-29.27 20.995-5.557 2.303-11.304 4.685-13.857 7.236-2.552 2.552-4.933 8.299-7.236 13.855-4.158 10.033-9.332 22.521-20.996 29.268-11.521 6.666-24.275 5.019-35.526 3.564-6.054-.781-12.313-1.59-15.962-.616-3.291.88-8.114 4.584-12.778 8.167C280.566 381.685 269.741 390 256 390z" fill="#ff6378"/><path d="M289.264 375.005c4.664-3.583 9.487-7.287 12.778-8.167 3.649-.974 9.909-.165 15.962.616 11.25 1.455 24.004 3.103 35.526-3.564 11.664-6.748 16.838-19.235 20.996-29.268 2.303-5.557 4.684-11.304 7.236-13.855 2.552-2.552 8.299-4.934 13.857-7.236 10.034-4.157 22.522-9.332 29.27-20.995 6.667-11.522 5.019-24.275 3.565-35.528-.782-6.053-1.591-12.312-.615-15.962.88-3.292 4.585-8.116 8.168-12.78C442.686 219.566 451 208.741 451 195s-8.314-24.565-14.995-33.264c-3.583-4.664-7.287-9.487-8.167-12.779-.976-3.648-.167-9.908.616-15.962 1.454-11.252 3.102-24.005-3.564-35.526-6.748-11.662-19.235-16.837-29.268-20.994-5.557-2.303-11.304-4.684-13.856-7.236s-4.934-8.299-7.236-13.856c-4.157-10.033-9.332-22.521-20.996-29.27-11.521-6.666-24.274-5.018-35.527-3.565-6.055.781-12.315 1.592-15.963.615-3.293-.88-8.116-4.585-12.78-8.167C280.566 8.314 269.741 0 256 0v390c13.741 0 24.566-8.315 33.264-14.995z" fill="#d0004f"/><circle cx="256" cy="195" fill="#ffb454" r="120"/><path d="M376 195c0-66.274-53.726-120-120-120v240c66.274 0 120-53.726 120-120z" fill="#ff8659"/><path d="M256 330c-74.439 0-135-60.561-135-135S181.561 60 256 60s135 60.561 135 135-60.561 135-135 135zm0-240c-57.897 0-105 47.102-105 105s47.103 105 105 105 105-47.102 105-105S313.897 90 256 90z" fill="#ffe196"/><path d="M361 195c0 57.898-47.103 105-105 105v30c74.439 0 135-60.561 135-135S330.439 60 256 60v30c57.897 0 105 47.102 105 105z" fill="#ffb454"/><path d="M294.989 260c-2.388 0-4.784-.569-6.978-1.723L256 241.448l-32.01 16.829a14.999 14.999 0 01-21.764-15.813l6.113-35.645-25.897-25.243a15 15 0 018.314-25.585l35.788-5.2 16.005-32.431a15 15 0 0126.902 0l16.005 32.431 35.788 5.2a14.998 14.998 0 018.314 25.585l-25.897 25.243 6.113 35.645A15.002 15.002 0 01294.989 260z" fill="#ffe196"/><path d="M288.01 258.277a14.994 14.994 0 0015.796-1.141 14.999 14.999 0 005.967-14.671l-6.113-35.645 25.897-25.243a15 15 0 00-8.314-25.585l-35.788-5.2-16.005-32.431A14.997 14.997 0 00256 110v131.448z" fill="#ffb454"/></svg>